<ttFont>
    <TTGlyph name=".notdef" xMin="174" yMin="0" xMax="1016" yMax="1462">
      <contour>
        <pt x="1016" y="0" on="1"/>
        <pt x="174" y="0" on="1"/>
        <pt x="174" y="1462" on="1"/>
        <pt x="1016" y="1462" on="1"/>
      </contour>
      <contour>
        <pt x="279" y="1358" on="1"/>
        <pt x="279" y="104" on="1"/>
        <pt x="911" y="104" on="1"/>
        <pt x="911" y="1358" on="1"/>
      </contour>
    </TTGlyph>
    <TTGlyph name="A" xMin="-10" yMin="0" xMax="1150" yMax="1468">
      <contour>
        <pt x="1150" y="0" on="1"/>
        <pt x="798" y="0" on="1"/>
        <pt x="717" y="358" on="1"/>
        <pt x="422" y="358" on="1"/>
        <pt x="341" y="0" on="1"/>
        <pt x="-10" y="0" on="1"/>
        <pt x="353" y="1468" on="1"/>
        <pt x="786" y="1468" on="1"/>
      </contour>
      <contour>
        <pt x="657" y="635" on="1"/>
        <pt x="570" y="1020" on="1"/>
        <pt x="554" y="943" on="0"/>
        <pt x="485" y="635" on="1"/>
      </contour>
    </TTGlyph>
    <TTGlyph name="AE" xMin="-50" yMin="0" xMax="1342" yMax="1462">
      <contour>
        <pt x="409" y="358" on="1"/>
        <pt x="355" y="187" on="0"/>
        <pt x="300" y="0" on="1"/>
        <pt x="-50" y="0" on="1"/>
        <pt x="423" y="1462" on="1"/>
        <pt x="1342" y="1462" on="1"/>
        <pt x="1342" y="1191" on="1"/>
        <pt x="971" y="1191" on="1"/>
        <pt x="971" y="896" on="1"/>
        <pt x="1315" y="896" on="1"/>
        <pt x="1315" y="624" on="1"/>
        <pt x="971" y="624" on="1"/>
        <pt x="971" y="274" on="1"/>
        <pt x="1342" y="274" on="1"/>
        <pt x="1342" y="0" on="1"/>
        <pt x="621" y="0" on="1"/>
        <pt x="621" y="358" on="1"/>
      </contour>
      <contour>
        <pt x="621" y="635" on="1"/>
        <pt x="621" y="1052" on="1"/>
        <pt x="653" y="1159" on="1"/>
        <pt x="658" y="1177" on="0"/>
        <pt x="663" y="1191" on="1"/>
        <pt x="664" y="1191" on="1"/>
        <pt x="621" y="1213" on="1"/>
        <pt x="621" y="1052" on="1"/>
        <pt x="496" y="635" on="1"/>
      </contour>
    </TTGlyph>
    <TTGlyph name="Aacute" xMin="-51" yMin="0" xMax="1109" yMax="1904">
      <contour>
        <pt x="916" y="1904" on="1"/>
        <pt x="916" y="1886" on="1"/>
        <pt x="840" y="1826" on="0"/>
        <pt x="597" y="1653" on="0"/>
        <pt x="536" y="1616" on="1"/>
        <pt x="308" y="1616" on="1"/>
        <pt x="308" y="1641" on="1"/>
        <pt x="449" y="1793" on="0"/>
        <pt x="516" y="1870" on="0"/>
        <pt x="540" y="1904" on="1"/>
      </contour>
      <contour>
        <pt x="1109" y="0" on="1"/>
        <pt x="757" y="0" on="1"/>
        <pt x="676" y="358" on="1"/>
        <pt x="381" y="358" on="1"/>
        <pt x="300" y="0" on="1"/>
        <pt x="-51" y="0" on="1"/>
        <pt x="312" y="1468" on="1"/>
        <pt x="745" y="1468" on="1"/>
      </contour>
      <contour>
        <pt x="616" y="635" on="1"/>
        <pt x="529" y="1020" on="1"/>
        <pt x="513" y="943" on="0"/>
        <pt x="444" y="635" on="1"/>
      </contour>
    </TTGlyph>
    <TTGlyph name="Acircumflex" xMin="-51" yMin="0" xMax="1109" yMax="1905">
      <contour>
        <pt x="928" y="1617" on="1"/>
        <pt x="704" y="1617" on="1"/>
        <pt x="630" y="1659" on="0"/>
        <pt x="527" y="1749" on="1"/>
        <pt x="418" y="1654" on="0"/>
        <pt x="356" y="1617" on="1"/>
        <pt x="129" y="1617" on="1"/>
        <pt x="129" y="1642" on="1"/>
        <pt x="186" y="1695" on="0"/>
        <pt x="322" y="1852" on="0"/>
        <pt x="356" y="1905" on="1"/>
        <pt x="702" y="1905" on="1"/>
        <pt x="783" y="1787" on="0"/>
        <pt x="928" y="1642" on="1"/>
      </contour>
      <contour>
        <pt x="1109" y="0" on="1"/>
        <pt x="757" y="0" on="1"/>
        <pt x="676" y="358" on="1"/>
        <pt x="381" y="358" on="1"/>
        <pt x="300" y="0" on="1"/>
        <pt x="-51" y="0" on="1"/>
        <pt x="312" y="1468" on="1"/>
        <pt x="745" y="1468" on="1"/>
      </contour>
      <contour>
        <pt x="616" y="635" on="1"/>
        <pt x="529" y="1020" on="1"/>
        <pt x="513" y="943" on="0"/>
        <pt x="444" y="635" on="1"/>
      </contour>
    </TTGlyph>
    <TTGlyph name="Adieresis" xMin="-51" yMin="0" xMax="1109" yMax="1892">
      <contour>
        <pt x="180" y="1818" on="0"/>
        <pt x="260" y="1892" on="0"/>
        <pt x="402" y="1892" on="0"/>
        <pt x="484" y="1815" on="0"/>
        <pt x="484" y="1688" on="0"/>
        <pt x="402" y="1613" on="0"/>
        <pt x="260" y="1613" on="0"/>
        <pt x="180" y="1686" on="0"/>
      </contour>
      <contour>
        <pt x="603" y="1818" on="0"/>
        <pt x="683" y="1892" on="0"/>
        <pt x="825" y="1892" on="0"/>
        <pt x="907" y="1815" on="0"/>
        <pt x="907" y="1688" on="0"/>
        <pt x="825" y="1613" on="0"/>
        <pt x="683" y="1613" on="0"/>
        <pt x="603" y="1686" on="0"/>
      </contour>
      <contour>
        <pt x="1109" y="0" on="1"/>
        <pt x="757" y="0" on="1"/>
        <pt x="676" y="358" on="1"/>
        <pt x="381" y="358" on="1"/>
        <pt x="300" y="0" on="1"/>
        <pt x="-51" y="0" on="1"/>
        <pt x="312" y="1468" on="1"/>
        <pt x="745" y="1468" on="1"/>
      </contour>
      <contour>
        <pt x="616" y="635" on="1"/>
        <pt x="529" y="1020" on="1"/>
        <pt x="513" y="943" on="0"/>
        <pt x="444" y="635" on="1"/>
      </contour>
    </TTGlyph>
    <TTGlyph name="Agrave" xMin="-51" yMin="0" xMax="1109" yMax="1905">
      <contour>
        <pt x="140" y="1905" on="1"/>
        <pt x="518" y="1905" on="1"/>
        <pt x="567" y="1840" on="0"/>
        <pt x="697" y="1700" on="1"/>
        <pt x="748" y="1642" on="1"/>
        <pt x="748" y="1617" on="1"/>
        <pt x="520" y="1617" on="1"/>
        <pt x="470" y="1647" on="0"/>
        <pt x="239" y="1810" on="0"/>
        <pt x="140" y="1887" on="1"/>
      </contour>
      <contour>
        <pt x="1109" y="0" on="1"/>
        <pt x="757" y="0" on="1"/>
        <pt x="676" y="358" on="1"/>
        <pt x="381" y="358" on="1"/>
        <pt x="300" y="0" on="1"/>
        <pt x="-51" y="0" on="1"/>
        <pt x="312" y="1468" on="1"/>
        <pt x="745" y="1468" on="1"/>
      </contour>
      <contour>
        <pt x="616" y="635" on="1"/>
        <pt x="529" y="1020" on="1"/>
        <pt x="513" y="943" on="0"/>
        <pt x="444" y="635" on="1"/>
      </contour>
    </TTGlyph>
    <TTGlyph name="Aring" xMin="-51" yMin="0" xMax="1109" yMax="1802">
      <contour>
        <pt x="306" y="1578" on="1"/>
        <pt x="306" y="1680" on="0"/>
        <pt x="431" y="1802" on="0"/>
        <pt x="642" y="1802" on="0"/>
        <pt x="778" y="1678" on="0"/>
        <pt x="778" y="1580" on="1"/>
        <pt x="778" y="1510" on="0"/>
        <pt x="747" y="1461" on="1"/>
        <pt x="1109" y="0" on="1"/>
        <pt x="757" y="0" on="1"/>
        <pt x="676" y="358" on="1"/>
        <pt x="381" y="358" on="1"/>
        <pt x="300" y="0" on="1"/>
        <pt x="-51" y="0" on="1"/>
        <pt x="312" y="1468" on="1"/>
        <pt x="330" y="1468" on="1"/>
        <pt x="306" y="1516" on="0"/>
      </contour>
      <contour>
        <pt x="569" y="1652" on="0"/>
        <pt x="507" y="1652" on="0"/>
        <pt x="465" y="1611" on="0"/>
        <pt x="465" y="1545" on="0"/>
        <pt x="503" y="1504" on="0"/>
        <pt x="569" y="1504" on="0"/>
        <pt x="612" y="1546" on="0"/>
        <pt x="612" y="1611" on="0"/>
      </contour>
      <contour>
        <pt x="616" y="635" on="1"/>
        <pt x="529" y="1020" on="1"/>
        <pt x="513" y="943" on="0"/>
        <pt x="444" y="635" on="1"/>
      </contour>
    </TTGlyph>
    <TTGlyph name="Atilde" xMin="-51" yMin="0" xMax="1109" yMax="1878">
      <contour>
        <pt x="683" y="1577" on="1"/>
        <pt x="627" y="1577" on="0"/>
        <pt x="422" y="1662" on="0"/>
        <pt x="380" y="1662" on="1"/>
        <pt x="334" y="1662" on="0"/>
        <pt x="317" y="1576" on="1"/>
        <pt x="159" y="1576" on="1"/>
        <pt x="168" y="1730" on="0"/>
        <pt x="276" y="1877" on="0"/>
        <pt x="380" y="1877" on="1"/>
        <pt x="424" y="1877" on="0"/>
        <pt x="631" y="1792" on="0"/>
        <pt x="722" y="1792" on="0"/>
        <pt x="739" y="1878" on="1"/>
        <pt x="899" y="1878" on="1"/>
        <pt x="890" y="1731" on="0"/>
        <pt x="779" y="1577" on="0"/>
      </contour>
      <contour>
        <pt x="1109" y="0" on="1"/>
        <pt x="757" y="0" on="1"/>
        <pt x="676" y="358" on="1"/>
        <pt x="381" y="358" on="1"/>
        <pt x="300" y="0" on="1"/>
        <pt x="-51" y="0" on="1"/>
        <pt x="312" y="1468" on="1"/>
        <pt x="745" y="1468" on="1"/>
      </contour>
      <contour>
        <pt x="616" y="635" on="1"/>
        <pt x="529" y="1020" on="1"/>
        <pt x="513" y="943" on="0"/>
        <pt x="444" y="635" on="1"/>
      </contour>
    </TTGlyph>
    <TTGlyph name="B" xMin="148" yMin="0" xMax="1046" yMax="1462">
      <contour>
        <pt x="148" y="1462" on="1"/>
        <pt x="552" y="1462" on="1"/>
        <pt x="796" y="1462" on="0"/>
        <pt x="1018" y="1280" on="0"/>
        <pt x="1018" y="1081" on="1"/>
        <pt x="1018" y="954" on="0"/>
        <pt x="958" y="863" on="1"/>
        <pt x="917" y="798" on="0"/>
        <pt x="840" y="769" on="1"/>
        <pt x="947" y="728" on="0"/>
        <pt x="1046" y="563" on="0"/>
        <pt x="1046" y="433" on="1"/>
        <pt x="1046" y="231" on="0"/>
        <pt x="813" y="2" on="0"/>
        <pt x="617" y="0" on="1"/>
        <pt x="148" y="0" on="1"/>
      </contour>
      <contour>
        <pt x="481" y="1191" on="1"/>
        <pt x="481" y="891" on="1"/>
        <pt x="560" y="891" on="1"/>
        <pt x="619" y="891" on="0"/>
        <pt x="669" y="968" on="0"/>
        <pt x="669" y="1123" on="0"/>
        <pt x="612" y="1191" on="0"/>
        <pt x="550" y="1191" on="1"/>
      </contour>
      <contour>
        <pt x="481" y="628" on="1"/>
        <pt x="481" y="274" on="1"/>
        <pt x="572" y="274" on="1"/>
        <pt x="692" y="274" on="0"/>
        <pt x="692" y="459" on="1"/>
        <pt x="692" y="628" on="0"/>
        <pt x="568" y="628" on="1"/>
      </contour>
    </TTGlyph>
    <TTGlyph name="C" xMin="94" yMin="-19" xMax="984" yMax="1482">
      <contour>
        <pt x="634" y="-19" on="1"/>
        <pt x="513" y="-19" on="0"/>
        <pt x="324" y="64" on="0"/>
        <pt x="204" y="202" on="0"/>
        <pt x="165" y="300" on="1"/>
        <pt x="94" y="478" on="0"/>
        <pt x="94" y="729" on="1"/>
        <pt x="94" y="927" on="0"/>
        <pt x="144" y="1094" on="1"/>
        <pt x="194" y="1263" on="0"/>
        <pt x="314" y="1372" on="1"/>
        <pt x="438" y="1482" on="0"/>
        <pt x="638" y="1482" on="1"/>
        <pt x="726" y="1482" on="0"/>
        <pt x="889" y="1430" on="0"/>
        <pt x="984" y="1369" on="1"/>
        <pt x="884" y="1122" on="1"/>
        <pt x="876" y="1130" on="0"/>
        <pt x="814" y="1167" on="0"/>
        <pt x="788" y="1178" on="1"/>
        <pt x="719" y="1209" on="0"/>
        <pt x="600" y="1209" on="0"/>
        <pt x="524" y="1140" on="0"/>
        <pt x="482" y="1040" on="0"/>
        <pt x="470" y="970" on="1"/>
        <pt x="449" y="857" on="0"/>
        <pt x="449" y="727" on="1"/>
        <pt x="449" y="255" on="0"/>
        <pt x="664" y="255" on="1"/>
        <pt x="758" y="255" on="0"/>
        <pt x="943" y="361" on="1"/>
        <pt x="943" y="66" on="1"/>
        <pt x="812" y="-19" on="0"/>
      </contour>
    </TTGlyph>
    <TTGlyph name="Ccedilla" xMin="36" yMin="-431" xMax="926" yMax="1482">
      <contour>
        <pt x="704" y="1190" on="0"/>
        <pt x="629" y="1209" on="0"/>
        <pt x="542" y="1209" on="0"/>
        <pt x="466" y="1140" on="0"/>
        <pt x="424" y="1040" on="0"/>
        <pt x="412" y="970" on="1"/>
        <pt x="391" y="857" on="0"/>
        <pt x="391" y="727" on="1"/>
        <pt x="391" y="255" on="0"/>
        <pt x="606" y="255" on="1"/>
        <pt x="700" y="255" on="0"/>
        <pt x="885" y="361" on="1"/>
        <pt x="885" y="66" on="1"/>
        <pt x="760" y="-16" on="0"/>
        <pt x="591" y="-19" on="1"/>
        <pt x="589" y="-24" on="1"/>
        <pt x="615" y="-27" on="0"/>
        <pt x="679" y="-68" on="0"/>
        <pt x="720" y="-109" on="0"/>
        <pt x="749" y="-178" on="0"/>
        <pt x="749" y="-219" on="1"/>
        <pt x="749" y="-431" on="0"/>
        <pt x="495" y="-431" on="1"/>
        <pt x="460" y="-431" on="0"/>
        <pt x="378" y="-413" on="0"/>
        <pt x="354" y="-404" on="1"/>
        <pt x="331" y="-395" on="1"/>
        <pt x="331" y="-226" on="1"/>
        <pt x="405" y="-255" on="0"/>
        <pt x="520" y="-255" on="0"/>
        <pt x="520" y="-207" on="1"/>
        <pt x="520" y="-180" on="0"/>
        <pt x="455" y="-134" on="0"/>
        <pt x="422" y="-124" on="1"/>
        <pt x="390" y="-114" on="1"/>
        <pt x="433" y="-30" on="0"/>
        <pt x="445" y="-5" on="1"/>
        <pt x="333" y="20" on="0"/>
        <pt x="169" y="159" on="0"/>
        <pt x="124" y="262" on="1"/>
        <pt x="36" y="459" on="0"/>
        <pt x="36" y="729" on="1"/>
        <pt x="36" y="927" on="0"/>
        <pt x="86" y="1094" on="1"/>
        <pt x="136" y="1263" on="0"/>
        <pt x="256" y="1372" on="1"/>
        <pt x="380" y="1482" on="0"/>
        <pt x="580" y="1482" on="1"/>
        <pt x="668" y="1482" on="0"/>
        <pt x="831" y="1430" on="0"/>
        <pt x="926" y="1369" on="1"/>
        <pt x="826" y="1122" on="1"/>
        <pt x="819" y="1129" on="0"/>
        <pt x="756" y="1167" on="0"/>
      </contour>
    </TTGlyph>
    <TTGlyph name="D" xMin="148" yMin="0" xMax="1136" yMax="1462">
      <contour>
        <pt x="148" y="1462" on="1"/>
        <pt x="570" y="1462" on="1"/>
        <pt x="689" y="1462" on="0"/>
        <pt x="881" y="1387" on="0"/>
        <pt x="1010" y="1257" on="0"/>
        <pt x="1054" y="1166" on="1"/>
        <pt x="1136" y="992" on="0"/>
        <pt x="1136" y="745" on="1"/>
        <pt x="1136" y="331" on="0"/>
        <pt x="938" y="141" on="1"/>
        <pt x="870" y="75" on="0"/>
        <pt x="667" y="0" on="0"/>
        <pt x="538" y="0" on="1"/>
        <pt x="148" y="0" on="1"/>
      </contour>
      <contour>
        <pt x="498" y="1191" on="1"/>
        <pt x="498" y="274" on="1"/>
        <pt x="540" y="274" on="1"/>
        <pt x="662" y="274" on="0"/>
        <pt x="780" y="504" on="0"/>
        <pt x="780" y="737" on="1"/>
        <pt x="780" y="1191" on="0"/>
        <pt x="561" y="1191" on="1"/>
      </contour>
    </TTGlyph>
    <TTGlyph name="E" xMin="148" yMin="0" xMax="873" yMax="1462">
      <contour>
        <pt x="873" y="1191" on="1"/>
        <pt x="498" y="1191" on="1"/>
        <pt x="498" y="896" on="1"/>
        <pt x="846" y="896" on="1"/>
        <pt x="846" y="624" on="1"/>
        <pt x="498" y="624" on="1"/>
        <pt x="498" y="274" on="1"/>
        <pt x="873" y="274" on="1"/>
        <pt x="873" y="0" on="1"/>
        <pt x="148" y="0" on="1"/>
        <pt x="148" y="1462" on="1"/>
        <pt x="873" y="1462" on="1"/>
      </contour>
    </TTGlyph>
    <TTGlyph name="Eacute" xMin="79" yMin="0" xMax="847" yMax="1904">
      <contour>
        <pt x="847" y="1904" on="1"/>
        <pt x="847" y="1886" on="1"/>
        <pt x="771" y="1826" on="0"/>
        <pt x="528" y="1653" on="0"/>
        <pt x="467" y="1616" on="1"/>
        <pt x="239" y="1616" on="1"/>
        <pt x="239" y="1641" on="1"/>
        <pt x="380" y="1793" on="0"/>
        <pt x="447" y="1870" on="0"/>
        <pt x="471" y="1904" on="1"/>
      </contour>
      <contour>
        <pt x="804" y="1191" on="1"/>
        <pt x="429" y="1191" on="1"/>
        <pt x="429" y="896" on="1"/>
        <pt x="777" y="896" on="1"/>
        <pt x="777" y="624" on="1"/>
        <pt x="429" y="624" on="1"/>
        <pt x="429" y="274" on="1"/>
        <pt x="804" y="274" on="1"/>
        <pt x="804" y="0" on="1"/>
        <pt x="79" y="0" on="1"/>
        <pt x="79" y="1462" on="1"/>
        <pt x="804" y="1462" on="1"/>
      </contour>
    </TTGlyph>
    <TTGlyph name="Ecircumflex" xMin="40" yMin="0" xMax="839" yMax="1905">
      <contour>
        <pt x="839" y="1617" on="1"/>
        <pt x="615" y="1617" on="1"/>
        <pt x="542" y="1659" on="0"/>
        <pt x="438" y="1749" on="1"/>
        <pt x="328" y="1654" on="0"/>
        <pt x="267" y="1617" on="1"/>
        <pt x="40" y="1617" on="1"/>
        <pt x="40" y="1642" on="1"/>
        <pt x="97" y="1695" on="0"/>
        <pt x="233" y="1852" on="0"/>
        <pt x="267" y="1905" on="1"/>
        <pt x="613" y="1905" on="1"/>
        <pt x="694" y="1787" on="0"/>
        <pt x="839" y="1642" on="1"/>
      </contour>
      <contour>
        <pt x="804" y="1191" on="1"/>
        <pt x="429" y="1191" on="1"/>
        <pt x="429" y="896" on="1"/>
        <pt x="777" y="896" on="1"/>
        <pt x="777" y="624" on="1"/>
        <pt x="429" y="624" on="1"/>
        <pt x="429" y="274" on="1"/>
        <pt x="804" y="274" on="1"/>
        <pt x="804" y="0" on="1"/>
        <pt x="79" y="0" on="1"/>
        <pt x="79" y="1462" on="1"/>
        <pt x="804" y="1462" on="1"/>
      </contour>
    </TTGlyph>
    <TTGlyph name="Edieresis" xMin="79" yMin="0" xMax="821" yMax="1892">
      <contour>
        <pt x="94" y="1818" on="0"/>
        <pt x="174" y="1892" on="0"/>
        <pt x="316" y="1892" on="0"/>
        <pt x="398" y="1815" on="0"/>
        <pt x="398" y="1688" on="0"/>
        <pt x="316" y="1613" on="0"/>
        <pt x="174" y="1613" on="0"/>
        <pt x="94" y="1686" on="0"/>
      </contour>
      <contour>
        <pt x="517" y="1818" on="0"/>
        <pt x="597" y="1892" on="0"/>
        <pt x="739" y="1892" on="0"/>
        <pt x="821" y="1815" on="0"/>
        <pt x="821" y="1688" on="0"/>
        <pt x="739" y="1613" on="0"/>
        <pt x="597" y="1613" on="0"/>
        <pt x="517" y="1686" on="0"/>
      </contour>
      <contour>
        <pt x="804" y="1191" on="1"/>
        <pt x="429" y="1191" on="1"/>
        <pt x="429" y="896" on="1"/>
        <pt x="777" y="896" on="1"/>
        <pt x="777" y="624" on="1"/>
        <pt x="429" y="624" on="1"/>
        <pt x="429" y="274" on="1"/>
        <pt x="804" y="274" on="1"/>
        <pt x="804" y="0" on="1"/>
        <pt x="79" y="0" on="1"/>
        <pt x="79" y="1462" on="1"/>
        <pt x="804" y="1462" on="1"/>
      </contour>
    </TTGlyph>
    <TTGlyph name="Egrave" xMin="36" yMin="0" xMax="804" yMax="1905">
      <contour>
        <pt x="36" y="1905" on="1"/>
        <pt x="414" y="1905" on="1"/>
        <pt x="463" y="1840" on="0"/>
        <pt x="593" y="1700" on="1"/>
        <pt x="644" y="1642" on="1"/>
        <pt x="644" y="1617" on="1"/>
        <pt x="416" y="1617" on="1"/>
        <pt x="366" y="1647" on="0"/>
        <pt x="135" y="1810" on="0"/>
        <pt x="36" y="1887" on="1"/>
      </contour>
      <contour>
        <pt x="804" y="1191" on="1"/>
        <pt x="429" y="1191" on="1"/>
        <pt x="429" y="896" on="1"/>
        <pt x="777" y="896" on="1"/>
        <pt x="777" y="624" on="1"/>
        <pt x="429" y="624" on="1"/>
        <pt x="429" y="274" on="1"/>
        <pt x="804" y="274" on="1"/>
        <pt x="804" y="0" on="1"/>
        <pt x="79" y="0" on="1"/>
        <pt x="79" y="1462" on="1"/>
        <pt x="804" y="1462" on="1"/>
      </contour>
    </TTGlyph>
    <TTGlyph name="Eth" xMin="-10" yMin="0" xMax="1136" yMax="1462">
      <contour>
        <pt x="148" y="1462" on="1"/>
        <pt x="570" y="1462" on="1"/>
        <pt x="689" y="1462" on="0"/>
        <pt x="881" y="1387" on="0"/>
        <pt x="1010" y="1257" on="0"/>
        <pt x="1054" y="1166" on="1"/>
        <pt x="1136" y="992" on="0"/>
        <pt x="1136" y="745" on="1"/>
        <pt x="1136" y="331" on="0"/>
        <pt x="938" y="141" on="1"/>
        <pt x="870" y="75" on="0"/>
        <pt x="667" y="0" on="0"/>
        <pt x="538" y="0" on="1"/>
        <pt x="148" y="0" on="1"/>
        <pt x="148" y="605" on="1"/>
        <pt x="-10" y="605" on="1"/>
        <pt x="-10" y="841" on="1"/>
        <pt x="148" y="841" on="1"/>
      </contour>
      <contour>
        <pt x="498" y="1191" on="1"/>
        <pt x="498" y="841" on="1"/>
        <pt x="597" y="841" on="1"/>
        <pt x="597" y="605" on="1"/>
        <pt x="498" y="605" on="1"/>
        <pt x="498" y="274" on="1"/>
        <pt x="540" y="274" on="1"/>
        <pt x="662" y="274" on="0"/>
        <pt x="780" y="504" on="0"/>
        <pt x="780" y="737" on="1"/>
        <pt x="780" y="1191" on="0"/>
        <pt x="561" y="1191" on="1"/>
      </contour>
    </TTGlyph>
    <TTGlyph name="Euro" xMin="-6" yMin="-19" xMax="944" yMax="1484">
      <contour>
        <pt x="-6" y="961" on="1"/>
        <pt x="122" y="961" on="1"/>
        <pt x="163" y="1216" on="0"/>
        <pt x="422" y="1484" on="0"/>
        <pt x="625" y="1484" on="1"/>
        <pt x="718" y="1484" on="0"/>
        <pt x="864" y="1445" on="0"/>
        <pt x="944" y="1400" on="1"/>
        <pt x="837" y="1146" on="1"/>
        <pt x="699" y="1211" on="0"/>
        <pt x="637" y="1211" on="1"/>
        <pt x="515" y="1211" on="0"/>
        <pt x="470" y="961" on="1"/>
        <pt x="753" y="961" on="1"/>
        <pt x="753" y="755" on="1"/>
        <pt x="453" y="755" on="1"/>
        <pt x="453" y="679" on="1"/>
        <pt x="710" y="679" on="1"/>
        <pt x="710" y="473" on="1"/>
        <pt x="473" y="473" on="1"/>
        <pt x="521" y="255" on="0"/>
        <pt x="651" y="255" on="1"/>
        <pt x="741" y="255" on="0"/>
        <pt x="920" y="362" on="1"/>
        <pt x="920" y="66" on="1"/>
        <pt x="786" y="-19" on="0"/>
        <pt x="623" y="-19" on="1"/>
        <pt x="419" y="-19" on="0"/>
        <pt x="165" y="233" on="0"/>
        <pt x="124" y="473" on="1"/>
        <pt x="-6" y="473" on="1"/>
        <pt x="-6" y="679" on="1"/>
        <pt x="108" y="679" on="1"/>
        <pt x="108" y="755" on="1"/>
        <pt x="-6" y="755" on="1"/>
      </contour>
    </TTGlyph>
    <TTGlyph name="F" xMin="148" yMin="0" xMax="869" yMax="1462">
      <contour>
        <pt x="869" y="1191" on="1"/>
        <pt x="496" y="1191" on="1"/>
        <pt x="496" y="840" on="1"/>
        <pt x="844" y="840" on="1"/>
        <pt x="844" y="569" on="1"/>
        <pt x="496" y="569" on="1"/>
        <pt x="496" y="0" on="1"/>
        <pt x="148" y="0" on="1"/>
        <pt x="148" y="1462" on="1"/>
        <pt x="869" y="1462" on="1"/>
      </contour>
    </TTGlyph>
    <TTGlyph name="G" xMin="94" yMin="-19" xMax="1086" yMax="1482">
      <contour>
        <pt x="1086" y="830" on="1"/>
        <pt x="1086" y="72" on="1"/>
        <pt x="873" y="-19" on="0"/>
        <pt x="651" y="-19" on="1"/>
        <pt x="528" y="-19" on="0"/>
        <pt x="334" y="62" on="0"/>
        <pt x="209" y="199" on="0"/>
        <pt x="168" y="296" on="1"/>
        <pt x="94" y="476" on="0"/>
        <pt x="94" y="733" on="1"/>
        <pt x="94" y="994" on="0"/>
        <pt x="188" y="1176" on="1"/>
        <pt x="288" y="1373" on="0"/>
        <pt x="484" y="1444" on="1"/>
        <pt x="589" y="1482" on="0"/>
        <pt x="717" y="1482" on="1"/>
        <pt x="901" y="1482" on="0"/>
        <pt x="1086" y="1379" on="1"/>
        <pt x="983" y="1113" on="1"/>
        <pt x="820" y="1207" on="0"/>
        <pt x="733" y="1207" on="1"/>
        <pt x="669" y="1207" on="0"/>
        <pt x="568" y="1147" on="0"/>
        <pt x="506" y="1051" on="0"/>
        <pt x="486" y="986" on="1"/>
        <pt x="449" y="872" on="0"/>
        <pt x="449" y="727" on="1"/>
        <pt x="449" y="498" on="0"/>
        <pt x="555" y="255" on="0"/>
        <pt x="655" y="255" on="1"/>
        <pt x="697" y="255" on="0"/>
        <pt x="742" y="264" on="1"/>
        <pt x="742" y="554" on="1"/>
        <pt x="567" y="554" on="1"/>
        <pt x="567" y="830" on="1"/>
      </contour>
    </TTGlyph>
    <TTGlyph name="H" xMin="148" yMin="0" xMax="1110" yMax="1462">
      <contour>
        <pt x="1110" y="0" on="1"/>
        <pt x="761" y="0" on="1"/>
        <pt x="761" y="622" on="1"/>
        <pt x="497" y="622" on="1"/>
        <pt x="497" y="0" on="1"/>
        <pt x="148" y="0" on="1"/>
        <pt x="148" y="1462" on="1"/>
        <pt x="497" y="1462" on="1"/>
        <pt x="497" y="898" on="1"/>
        <pt x="761" y="898" on="1"/>
        <pt x="761" y="1462" on="1"/>
        <pt x="1110" y="1462" on="1"/>
      </contour>
    </TTGlyph>
    <TTGlyph name="I" xMin="148" yMin="0" xMax="482" yMax="1462">
      <contour>
        <pt x="482" y="0" on="1"/>
        <pt x="148" y="0" on="1"/>
        <pt x="148" y="1462" on="1"/>
        <pt x="482" y="1462" on="1"/>
      </contour>
    </TTGlyph>
    <TTGlyph name="Iacute" xMin="70" yMin="0" xMax="678" yMax="1904">
      <contour>
        <pt x="678" y="1904" on="1"/>
        <pt x="678" y="1886" on="1"/>
        <pt x="602" y="1826" on="0"/>
        <pt x="359" y="1653" on="0"/>
        <pt x="298" y="1616" on="1"/>
        <pt x="70" y="1616" on="1"/>
        <pt x="70" y="1641" on="1"/>
        <pt x="211" y="1793" on="0"/>
        <pt x="278" y="1870" on="0"/>
        <pt x="302" y="1904" on="1"/>
      </contour>
      <contour>
        <pt x="459" y="0" on="1"/>
        <pt x="125" y="0" on="1"/>
        <pt x="125" y="1462" on="1"/>
        <pt x="459" y="1462" on="1"/>
      </contour>
    </TTGlyph>
    <TTGlyph name="Icircumflex" xMin="-111" yMin="0" xMax="688" yMax="1905">
      <contour>
        <pt x="688" y="1617" on="1"/>
        <pt x="464" y="1617" on="1"/>
        <pt x="390" y="1659" on="0"/>
        <pt x="287" y="1749" on="1"/>
        <pt x="178" y="1654" on="0"/>
        <pt x="116" y="1617" on="1"/>
        <pt x="-111" y="1617" on="1"/>
        <pt x="-111" y="1642" on="1"/>
        <pt x="-54" y="1695" on="0"/>
        <pt x="82" y="1852" on="0"/>
        <pt x="116" y="1905" on="1"/>
        <pt x="462" y="1905" on="1"/>
        <pt x="543" y="1787" on="0"/>
        <pt x="688" y="1642" on="1"/>
      </contour>
      <contour>
        <pt x="459" y="0" on="1"/>
        <pt x="125" y="0" on="1"/>
        <pt x="125" y="1462" on="1"/>
        <pt x="459" y="1462" on="1"/>
      </contour>
    </TTGlyph>
    <TTGlyph name="Idieresis" xMin="-60" yMin="0" xMax="667" yMax="1892">
      <contour>
        <pt x="-60" y="1818" on="0"/>
        <pt x="20" y="1892" on="0"/>
        <pt x="162" y="1892" on="0"/>
        <pt x="244" y="1815" on="0"/>
        <pt x="244" y="1688" on="0"/>
        <pt x="162" y="1613" on="0"/>
        <pt x="20" y="1613" on="0"/>
        <pt x="-60" y="1686" on="0"/>
      </contour>
      <contour>
        <pt x="363" y="1818" on="0"/>
        <pt x="443" y="1892" on="0"/>
        <pt x="585" y="1892" on="0"/>
        <pt x="667" y="1815" on="0"/>
        <pt x="667" y="1688" on="0"/>
        <pt x="585" y="1613" on="0"/>
        <pt x="443" y="1613" on="0"/>
        <pt x="363" y="1686" on="0"/>
      </contour>
      <contour>
        <pt x="459" y="0" on="1"/>
        <pt x="125" y="0" on="1"/>
        <pt x="125" y="1462" on="1"/>
        <pt x="459" y="1462" on="1"/>
      </contour>
    </TTGlyph>
    <TTGlyph name="Igrave" xMin="-103" yMin="0" xMax="505" yMax="1905">
      <contour>
        <pt x="-103" y="1905" on="1"/>
        <pt x="275" y="1905" on="1"/>
        <pt x="324" y="1840" on="0"/>
        <pt x="454" y="1700" on="1"/>
        <pt x="505" y="1642" on="1"/>
        <pt x="505" y="1617" on="1"/>
        <pt x="277" y="1617" on="1"/>
        <pt x="227" y="1647" on="0"/>
        <pt x="-4" y="1810" on="0"/>
        <pt x="-103" y="1887" on="1"/>
      </contour>
      <contour>
        <pt x="459" y="0" on="1"/>
        <pt x="125" y="0" on="1"/>
        <pt x="125" y="1462" on="1"/>
        <pt x="459" y="1462" on="1"/>
      </contour>
    </TTGlyph>
    <TTGlyph name="J" xMin="-172" yMin="-410" xMax="452" yMax="1462">
      <contour>
        <pt x="452" y="1462" on="1"/>
        <pt x="452" y="65" on="1"/>
        <pt x="452" y="60" on="0"/>
        <pt x="452" y="54" on="1"/>
        <pt x="452" y="-154" on="0"/>
        <pt x="221" y="-410" on="0"/>
        <pt x="39" y="-410" on="1"/>
        <pt x="36" y="-410" on="0"/>
        <pt x="33" y="-410" on="1"/>
        <pt x="-82" y="-410" on="0"/>
        <pt x="-172" y="-373" on="1"/>
        <pt x="-172" y="-97" on="1"/>
        <pt x="-53" y="-132" on="0"/>
        <pt x="-10" y="-132" on="1"/>
        <pt x="102" y="-132" on="0"/>
        <pt x="102" y="51" on="1"/>
        <pt x="102" y="1462" on="1"/>
      </contour>
    </TTGlyph>
    <TTGlyph name="K" xMin="148" yMin="0" xMax="1127" yMax="1462">
      <contour>
        <pt x="498" y="0" on="1"/>
        <pt x="148" y="0" on="1"/>
        <pt x="148" y="1462" on="1"/>
        <pt x="498" y="1462" on="1"/>
        <pt x="498" y="932" on="1"/>
        <pt x="508" y="958" on="1"/>
        <pt x="757" y="1462" on="1"/>
        <pt x="1126" y="1462" on="1"/>
        <pt x="786" y="826" on="1"/>
        <pt x="1127" y="0" on="1"/>
        <pt x="759" y="0" on="1"/>
        <pt x="542" y="564" on="1"/>
        <pt x="498" y="519" on="1"/>
      </contour>
    </TTGlyph>
    <TTGlyph name="L" xMin="148" yMin="0" xMax="864" yMax="1462">
      <contour>
        <pt x="498" y="274" on="1"/>
        <pt x="864" y="274" on="1"/>
        <pt x="864" y="0" on="1"/>
        <pt x="148" y="0" on="1"/>
        <pt x="148" y="1462" on="1"/>
        <pt x="498" y="1462" on="1"/>
      </contour>
    </TTGlyph>
    <TTGlyph name="M" xMin="148" yMin="0" xMax="1542" yMax="1462">
      <contour>
        <pt x="1542" y="0" on="1"/>
        <pt x="1206" y="0" on="1"/>
        <pt x="1206" y="818" on="1"/>
        <pt x="1024" y="0" on="1"/>
        <pt x="660" y="0" on="1"/>
        <pt x="478" y="813" on="1"/>
        <pt x="478" y="0" on="1"/>
        <pt x="148" y="0" on="1"/>
        <pt x="148" y="1462" on="1"/>
        <pt x="635" y="1462" on="1"/>
        <pt x="842" y="505" on="1"/>
        <pt x="1037" y="1400" on="0"/>
        <pt x="1050" y="1462" on="1"/>
        <pt x="1542" y="1462" on="1"/>
      </contour>
    </TTGlyph>
    <TTGlyph name="N" xMin="148" yMin="0" xMax="1227" yMax="1462">
      <contour>
        <pt x="1227" y="0" on="1"/>
        <pt x="829" y="0" on="1"/>
        <pt x="478" y="822" on="1"/>
        <pt x="478" y="0" on="1"/>
        <pt x="148" y="0" on="1"/>
        <pt x="148" y="1462" on="1"/>
        <pt x="548" y="1462" on="1"/>
        <pt x="899" y="641" on="1"/>
        <pt x="899" y="1462" on="1"/>
        <pt x="1227" y="1462" on="1"/>
      </contour>
    </TTGlyph>
    <TTGlyph name="Ntilde" xMin="82" yMin="0" xMax="1161" yMax="1878">
      <contour>
        <pt x="776" y="1577" on="1"/>
        <pt x="720" y="1577" on="0"/>
        <pt x="515" y="1662" on="0"/>
        <pt x="473" y="1662" on="1"/>
        <pt x="427" y="1662" on="0"/>
        <pt x="410" y="1576" on="1"/>
        <pt x="252" y="1576" on="1"/>
        <pt x="261" y="1730" on="0"/>
        <pt x="369" y="1877" on="0"/>
        <pt x="473" y="1877" on="1"/>
        <pt x="518" y="1877" on="0"/>
        <pt x="724" y="1792" on="0"/>
        <pt x="815" y="1792" on="0"/>
        <pt x="832" y="1878" on="1"/>
        <pt x="992" y="1878" on="1"/>
        <pt x="983" y="1731" on="0"/>
        <pt x="872" y="1577" on="0"/>
      </contour>
      <contour>
        <pt x="1161" y="0" on="1"/>
        <pt x="763" y="0" on="1"/>
        <pt x="412" y="822" on="1"/>
        <pt x="412" y="0" on="1"/>
        <pt x="82" y="0" on="1"/>
        <pt x="82" y="1462" on="1"/>
        <pt x="482" y="1462" on="1"/>
        <pt x="833" y="641" on="1"/>
        <pt x="833" y="1462" on="1"/>
        <pt x="1161" y="1462" on="1"/>
      </contour>
    </TTGlyph>
    <TTGlyph name="O" xMin="94" yMin="-19" xMax="1199" yMax="1484">
      <contour>
        <pt x="526" y="1484" on="0"/>
        <pt x="772" y="1484" on="0"/>
        <pt x="964" y="1403" on="0"/>
        <pt x="1087" y="1265" on="0"/>
        <pt x="1166" y="1070" on="0"/>
        <pt x="1199" y="857" on="0"/>
        <pt x="1199" y="609" on="0"/>
        <pt x="1166" y="396" on="0"/>
        <pt x="1086" y="200" on="0"/>
        <pt x="962" y="63" on="0"/>
        <pt x="770" y="-19" on="0"/>
        <pt x="524" y="-19" on="0"/>
        <pt x="331" y="63" on="0"/>
        <pt x="207" y="200" on="0"/>
        <pt x="167" y="298" on="1"/>
        <pt x="94" y="478" on="0"/>
        <pt x="94" y="735" on="1"/>
        <pt x="94" y="1143" on="0"/>
        <pt x="270" y="1335" on="1"/>
        <pt x="333" y="1403" on="0"/>
      </contour>
      <contour>
        <pt x="649" y="1209" on="1"/>
        <pt x="550" y="1209" on="0"/>
        <pt x="449" y="967" on="0"/>
        <pt x="449" y="500" on="0"/>
        <pt x="550" y="257" on="0"/>
        <pt x="647" y="257" on="1"/>
        <pt x="843" y="257" on="0"/>
        <pt x="843" y="1209" on="0"/>
      </contour>
    </TTGlyph>
    <TTGlyph name="OE" xMin="39" yMin="-19" xMax="1364" yMax="1484">
      <contour>
        <pt x="1364" y="0" on="1"/>
        <pt x="745" y="0" on="1"/>
        <pt x="676" y="-19" on="0"/>
        <pt x="593" y="-19" on="1"/>
        <pt x="317" y="-19" on="0"/>
        <pt x="179" y="178" on="1"/>
        <pt x="39" y="380" on="0"/>
        <pt x="39" y="1088" on="0"/>
        <pt x="317" y="1484" on="0"/>
        <pt x="595" y="1484" on="1"/>
        <pt x="686" y="1484" on="0"/>
        <pt x="757" y="1462" on="1"/>
        <pt x="1364" y="1462" on="1"/>
        <pt x="1364" y="1191" on="1"/>
        <pt x="992" y="1191" on="1"/>
        <pt x="992" y="896" on="1"/>
        <pt x="1335" y="896" on="1"/>
        <pt x="1335" y="624" on="1"/>
        <pt x="992" y="624" on="1"/>
        <pt x="992" y="274" on="1"/>
        <pt x="1364" y="274" on="1"/>
      </contour>
      <contour>
        <pt x="595" y="1209" on="1"/>
        <pt x="496" y="1209" on="0"/>
        <pt x="395" y="967" on="0"/>
        <pt x="395" y="500" on="0"/>
        <pt x="496" y="257" on="0"/>
        <pt x="593" y="257" on="1"/>
        <pt x="622" y="257" on="0"/>
        <pt x="642" y="262" on="1"/>
        <pt x="642" y="1204" on="1"/>
        <pt x="621" y="1209" on="0"/>
      </contour>
    </TTGlyph>
    <TTGlyph name="Oacute" xMin="38" yMin="-19" xMax="1143" yMax="1904">
      <contour>
        <pt x="988" y="1904" on="1"/>
        <pt x="988" y="1886" on="1"/>
        <pt x="912" y="1826" on="0"/>
        <pt x="669" y="1653" on="0"/>
        <pt x="608" y="1616" on="1"/>
        <pt x="380" y="1616" on="1"/>
        <pt x="380" y="1641" on="1"/>
        <pt x="521" y="1793" on="0"/>
        <pt x="588" y="1870" on="0"/>
        <pt x="612" y="1904" on="1"/>
      </contour>
      <contour>
        <pt x="470" y="1484" on="0"/>
        <pt x="716" y="1484" on="0"/>
        <pt x="908" y="1403" on="0"/>
        <pt x="1031" y="1265" on="0"/>
        <pt x="1110" y="1070" on="0"/>
        <pt x="1143" y="857" on="0"/>
        <pt x="1143" y="609" on="0"/>
        <pt x="1110" y="396" on="0"/>
        <pt x="1030" y="200" on="0"/>
        <pt x="906" y="63" on="0"/>
        <pt x="714" y="-19" on="0"/>
        <pt x="468" y="-19" on="0"/>
        <pt x="275" y="63" on="0"/>
        <pt x="151" y="200" on="0"/>
        <pt x="111" y="298" on="1"/>
        <pt x="38" y="478" on="0"/>
        <pt x="38" y="735" on="1"/>
        <pt x="38" y="1143" on="0"/>
        <pt x="214" y="1335" on="1"/>
        <pt x="277" y="1403" on="0"/>
      </contour>
      <contour>
        <pt x="593" y="1209" on="1"/>
        <pt x="494" y="1209" on="0"/>
        <pt x="393" y="967" on="0"/>
        <pt x="393" y="500" on="0"/>
        <pt x="494" y="257" on="0"/>
        <pt x="591" y="257" on="1"/>
        <pt x="787" y="257" on="0"/>
        <pt x="787" y="1209" on="0"/>
      </contour>
    </TTGlyph>
    <TTGlyph name="Ocircumflex" xMin="38" yMin="-19" xMax="1143" yMax="1905">
      <contour>
        <pt x="988" y="1617" on="1"/>
        <pt x="764" y="1617" on="1"/>
        <pt x="690" y="1659" on="0"/>
        <pt x="587" y="1749" on="1"/>
        <pt x="478" y="1654" on="0"/>
        <pt x="416" y="1617" on="1"/>
        <pt x="189" y="1617" on="1"/>
        <pt x="189" y="1642" on="1"/>
        <pt x="246" y="1695" on="0"/>
        <pt x="382" y="1852" on="0"/>
        <pt x="416" y="1905" on="1"/>
        <pt x="762" y="1905" on="1"/>
        <pt x="843" y="1787" on="0"/>
        <pt x="988" y="1642" on="1"/>
      </contour>
      <contour>
        <pt x="470" y="1484" on="0"/>
        <pt x="716" y="1484" on="0"/>
        <pt x="908" y="1403" on="0"/>
        <pt x="1031" y="1265" on="0"/>
        <pt x="1110" y="1070" on="0"/>
        <pt x="1143" y="857" on="0"/>
        <pt x="1143" y="609" on="0"/>
        <pt x="1110" y="396" on="0"/>
        <pt x="1030" y="200" on="0"/>
        <pt x="906" y="63" on="0"/>
        <pt x="714" y="-19" on="0"/>
        <pt x="468" y="-19" on="0"/>
        <pt x="275" y="63" on="0"/>
        <pt x="151" y="200" on="0"/>
        <pt x="111" y="298" on="1"/>
        <pt x="38" y="478" on="0"/>
        <pt x="38" y="735" on="1"/>
        <pt x="38" y="1143" on="0"/>
        <pt x="214" y="1335" on="1"/>
        <pt x="277" y="1403" on="0"/>
      </contour>
      <contour>
        <pt x="593" y="1209" on="1"/>
        <pt x="494" y="1209" on="0"/>
        <pt x="393" y="967" on="0"/>
        <pt x="393" y="500" on="0"/>
        <pt x="494" y="257" on="0"/>
        <pt x="591" y="257" on="1"/>
        <pt x="787" y="257" on="0"/>
        <pt x="787" y="1209" on="0"/>
      </contour>
    </TTGlyph>
    <TTGlyph name="Odieresis" xMin="38" yMin="-19" xMax="1143" yMax="1892">
      <contour>
        <pt x="240" y="1818" on="0"/>
        <pt x="320" y="1892" on="0"/>
        <pt x="462" y="1892" on="0"/>
        <pt x="544" y="1815" on="0"/>
        <pt x="544" y="1688" on="0"/>
        <pt x="462" y="1613" on="0"/>
        <pt x="320" y="1613" on="0"/>
        <pt x="240" y="1686" on="0"/>
      </contour>
      <contour>
        <pt x="663" y="1818" on="0"/>
        <pt x="743" y="1892" on="0"/>
        <pt x="885" y="1892" on="0"/>
        <pt x="967" y="1815" on="0"/>
        <pt x="967" y="1688" on="0"/>
        <pt x="885" y="1613" on="0"/>
        <pt x="743" y="1613" on="0"/>
        <pt x="663" y="1686" on="0"/>
      </contour>
      <contour>
        <pt x="470" y="1484" on="0"/>
        <pt x="716" y="1484" on="0"/>
        <pt x="908" y="1403" on="0"/>
        <pt x="1031" y="1265" on="0"/>
        <pt x="1110" y="1070" on="0"/>
        <pt x="1143" y="857" on="0"/>
        <pt x="1143" y="609" on="0"/>
        <pt x="1110" y="396" on="0"/>
        <pt x="1030" y="200" on="0"/>
        <pt x="906" y="63" on="0"/>
        <pt x="714" y="-19" on="0"/>
        <pt x="468" y="-19" on="0"/>
        <pt x="275" y="63" on="0"/>
        <pt x="151" y="200" on="0"/>
        <pt x="111" y="298" on="1"/>
        <pt x="38" y="478" on="0"/>
        <pt x="38" y="735" on="1"/>
        <pt x="38" y="1143" on="0"/>
        <pt x="214" y="1335" on="1"/>
        <pt x="277" y="1403" on="0"/>
      </contour>
      <contour>
        <pt x="593" y="1209" on="1"/>
        <pt x="494" y="1209" on="0"/>
        <pt x="393" y="967" on="0"/>
        <pt x="393" y="500" on="0"/>
        <pt x="494" y="257" on="0"/>
        <pt x="591" y="257" on="1"/>
        <pt x="787" y="257" on="0"/>
        <pt x="787" y="1209" on="0"/>
      </contour>
    </TTGlyph>
    <TTGlyph name="Ograve" xMin="38" yMin="-19" xMax="1143" yMax="1905">
      <contour>
        <pt x="191" y="1905" on="1"/>
        <pt x="569" y="1905" on="1"/>
        <pt x="618" y="1840" on="0"/>
        <pt x="748" y="1700" on="1"/>
        <pt x="799" y="1642" on="1"/>
        <pt x="799" y="1617" on="1"/>
        <pt x="571" y="1617" on="1"/>
        <pt x="521" y="1647" on="0"/>
        <pt x="290" y="1810" on="0"/>
        <pt x="191" y="1887" on="1"/>
      </contour>
      <contour>
        <pt x="470" y="1484" on="0"/>
        <pt x="716" y="1484" on="0"/>
        <pt x="908" y="1403" on="0"/>
        <pt x="1031" y="1265" on="0"/>
        <pt x="1110" y="1070" on="0"/>
        <pt x="1143" y="857" on="0"/>
        <pt x="1143" y="609" on="0"/>
        <pt x="1110" y="396" on="0"/>
        <pt x="1030" y="200" on="0"/>
        <pt x="906" y="63" on="0"/>
        <pt x="714" y="-19" on="0"/>
        <pt x="468" y="-19" on="0"/>
        <pt x="275" y="63" on="0"/>
        <pt x="151" y="200" on="0"/>
        <pt x="111" y="298" on="1"/>
        <pt x="38" y="478" on="0"/>
        <pt x="38" y="735" on="1"/>
        <pt x="38" y="1143" on="0"/>
        <pt x="214" y="1335" on="1"/>
        <pt x="277" y="1403" on="0"/>
      </contour>
      <contour>
        <pt x="593" y="1209" on="1"/>
        <pt x="494" y="1209" on="0"/>
        <pt x="393" y="967" on="0"/>
        <pt x="393" y="500" on="0"/>
        <pt x="494" y="257" on="0"/>
        <pt x="591" y="257" on="1"/>
        <pt x="787" y="257" on="0"/>
        <pt x="787" y="1209" on="0"/>
      </contour>
    </TTGlyph>
    <TTGlyph name="Oslash" xMin="40" yMin="-107" xMax="1145" yMax="1568">
      <contour>
        <pt x="1145" y="733" on="1"/>
        <pt x="1145" y="477" on="0"/>
        <pt x="1072" y="298" on="1"/>
        <pt x="1032" y="200" on="0"/>
        <pt x="908" y="63" on="0"/>
        <pt x="716" y="-19" on="0"/>
        <pt x="465" y="-19" on="0"/>
        <pt x="363" y="25" on="1"/>
        <pt x="297" y="-107" on="1"/>
        <pt x="111" y="-13" on="1"/>
        <pt x="195" y="155" on="1"/>
        <pt x="40" y="347" on="0"/>
        <pt x="40" y="735" on="1"/>
        <pt x="40" y="1143" on="0"/>
        <pt x="216" y="1335" on="1"/>
        <pt x="279" y="1403" on="0"/>
        <pt x="472" y="1484" on="0"/>
        <pt x="733" y="1484" on="0"/>
        <pt x="839" y="1432" on="1"/>
        <pt x="908" y="1568" on="1"/>
        <pt x="1094" y="1475" on="1"/>
        <pt x="1003" y="1294" on="1"/>
        <pt x="1145" y="1100" on="0"/>
      </contour>
      <contour>
        <pt x="595" y="1209" on="1"/>
        <pt x="496" y="1209" on="0"/>
        <pt x="395" y="967" on="0"/>
        <pt x="395" y="733" on="1"/>
        <pt x="395" y="633" on="0"/>
        <pt x="403" y="566" on="1"/>
        <pt x="701" y="1158" on="1"/>
        <pt x="659" y="1209" on="0"/>
      </contour>
      <contour>
        <pt x="593" y="257" on="1"/>
        <pt x="789" y="257" on="0"/>
        <pt x="789" y="733" on="1"/>
        <pt x="789" y="781" on="0"/>
        <pt x="785" y="861" on="1"/>
        <pt x="499" y="294" on="1"/>
        <pt x="539" y="257" on="0"/>
      </contour>
    </TTGlyph>
    <TTGlyph name="Otilde" xMin="38" yMin="-19" xMax="1143" yMax="1878">
      <contour>
        <pt x="745" y="1577" on="1"/>
        <pt x="689" y="1577" on="0"/>
        <pt x="484" y="1662" on="0"/>
        <pt x="442" y="1662" on="1"/>
        <pt x="396" y="1662" on="0"/>
        <pt x="379" y="1576" on="1"/>
        <pt x="221" y="1576" on="1"/>
        <pt x="230" y="1730" on="0"/>
        <pt x="338" y="1877" on="0"/>
        <pt x="442" y="1877" on="1"/>
        <pt x="486" y="1877" on="0"/>
        <pt x="694" y="1792" on="0"/>
        <pt x="784" y="1792" on="0"/>
        <pt x="801" y="1878" on="1"/>
        <pt x="961" y="1878" on="1"/>
        <pt x="952" y="1731" on="0"/>
        <pt x="841" y="1577" on="0"/>
      </contour>
      <contour>
        <pt x="470" y="1484" on="0"/>
        <pt x="716" y="1484" on="0"/>
        <pt x="908" y="1403" on="0"/>
        <pt x="1031" y="1265" on="0"/>
        <pt x="1110" y="1070" on="0"/>
        <pt x="1143" y="857" on="0"/>
        <pt x="1143" y="609" on="0"/>
        <pt x="1110" y="396" on="0"/>
        <pt x="1030" y="200" on="0"/>
        <pt x="906" y="63" on="0"/>
        <pt x="714" y="-19" on="0"/>
        <pt x="468" y="-19" on="0"/>
        <pt x="275" y="63" on="0"/>
        <pt x="151" y="200" on="0"/>
        <pt x="111" y="298" on="1"/>
        <pt x="38" y="478" on="0"/>
        <pt x="38" y="735" on="1"/>
        <pt x="38" y="1143" on="0"/>
        <pt x="214" y="1335" on="1"/>
        <pt x="277" y="1403" on="0"/>
      </contour>
      <contour>
        <pt x="593" y="1209" on="1"/>
        <pt x="494" y="1209" on="0"/>
        <pt x="393" y="967" on="0"/>
        <pt x="393" y="500" on="0"/>
        <pt x="494" y="257" on="0"/>
        <pt x="591" y="257" on="1"/>
        <pt x="787" y="257" on="0"/>
        <pt x="787" y="1209" on="0"/>
      </contour>
    </TTGlyph>
    <TTGlyph name="P" xMin="148" yMin="0" xMax="1007" yMax="1462">
      <contour>
        <pt x="148" y="1462" on="1"/>
        <pt x="551" y="1462" on="1"/>
        <pt x="1007" y="1462" on="0"/>
        <pt x="1007" y="1004" on="1"/>
        <pt x="1007" y="767" on="0"/>
        <pt x="757" y="515" on="0"/>
        <pt x="521" y="515" on="1"/>
        <pt x="498" y="515" on="1"/>
        <pt x="498" y="0" on="1"/>
        <pt x="148" y="0" on="1"/>
      </contour>
      <contour>
        <pt x="498" y="1191" on="1"/>
        <pt x="498" y="786" on="1"/>
        <pt x="505" y="786" on="1"/>
        <pt x="581" y="786" on="0"/>
        <pt x="655" y="885" on="0"/>
        <pt x="655" y="993" on="1"/>
        <pt x="655" y="1191" on="0"/>
        <pt x="519" y="1191" on="1"/>
      </contour>
    </TTGlyph>
    <TTGlyph name="Q" xMin="94" yMin="-338" xMax="1221" yMax="1484">
      <contour>
        <pt x="632" y="-19" on="1"/>
        <pt x="368" y="-14" on="0"/>
        <pt x="94" y="378" on="0"/>
        <pt x="94" y="1090" on="0"/>
        <pt x="234" y="1287" on="1"/>
        <pt x="372" y="1484" on="0"/>
        <pt x="924" y="1484" on="0"/>
        <pt x="1200" y="1087" on="0"/>
        <pt x="1200" y="733" on="1"/>
        <pt x="1200" y="255" on="0"/>
        <pt x="947" y="69" on="1"/>
        <pt x="964" y="43" on="0"/>
        <pt x="1172" y="-263" on="0"/>
        <pt x="1221" y="-338" on="1"/>
        <pt x="828" y="-338" on="1"/>
      </contour>
      <contour>
        <pt x="649" y="1209" on="1"/>
        <pt x="550" y="1209" on="0"/>
        <pt x="449" y="967" on="0"/>
        <pt x="449" y="500" on="0"/>
        <pt x="550" y="257" on="0"/>
        <pt x="647" y="257" on="1"/>
        <pt x="843" y="257" on="0"/>
        <pt x="843" y="1209" on="0"/>
      </contour>
    </TTGlyph>
    <TTGlyph name="R" xMin="148" yMin="0" xMax="1108" yMax="1462">
      <contour>
        <pt x="148" y="1462" on="1"/>
        <pt x="536" y="1462" on="1"/>
        <pt x="777" y="1462" on="0"/>
        <pt x="1007" y="1244" on="0"/>
        <pt x="1007" y="1019" on="1"/>
        <pt x="1007" y="758" on="0"/>
        <pt x="828" y="640" on="1"/>
        <pt x="1108" y="0" on="1"/>
        <pt x="739" y="0" on="1"/>
        <pt x="515" y="552" on="1"/>
        <pt x="497" y="552" on="1"/>
        <pt x="497" y="0" on="1"/>
        <pt x="148" y="0" on="1"/>
      </contour>
      <contour>
        <pt x="497" y="1191" on="1"/>
        <pt x="497" y="822" on="1"/>
        <pt x="523" y="822" on="1"/>
        <pt x="592" y="822" on="0"/>
        <pt x="655" y="916" on="0"/>
        <pt x="655" y="1107" on="0"/>
        <pt x="590" y="1191" on="0"/>
        <pt x="521" y="1191" on="1"/>
      </contour>
    </TTGlyph>
    <TTGlyph name="S" xMin="80" yMin="-19" xMax="871" yMax="1482">
      <contour>
        <pt x="415" y="253" on="1"/>
        <pt x="468" y="253" on="0"/>
        <pt x="524" y="324" on="0"/>
        <pt x="524" y="427" on="0"/>
        <pt x="494" y="500" on="0"/>
        <pt x="436" y="562" on="0"/>
        <pt x="385" y="603" on="0"/>
        <pt x="347" y="630" on="1"/>
        <pt x="216" y="722" on="0"/>
        <pt x="91" y="926" on="0"/>
        <pt x="91" y="1065" on="1"/>
        <pt x="91" y="1257" on="0"/>
        <pt x="322" y="1482" on="0"/>
        <pt x="688" y="1482" on="0"/>
        <pt x="866" y="1375" on="1"/>
        <pt x="759" y="1118" on="1"/>
        <pt x="753" y="1121" on="0"/>
        <pt x="703" y="1148" on="0"/>
        <pt x="689" y="1155" on="0"/>
        <pt x="645" y="1176" on="0"/>
        <pt x="636" y="1180" on="1"/>
        <pt x="609" y="1190" on="1"/>
        <pt x="565" y="1207" on="0"/>
        <pt x="484" y="1207" on="0"/>
        <pt x="437" y="1134" on="0"/>
        <pt x="437" y="1031" on="0"/>
        <pt x="463" y="963" on="0"/>
        <pt x="490" y="934" on="1"/>
        <pt x="536" y="886" on="0"/>
        <pt x="603" y="842" on="1"/>
        <pt x="736" y="752" on="0"/>
        <pt x="871" y="553" on="0"/>
        <pt x="871" y="413" on="1"/>
        <pt x="871" y="204" on="0"/>
        <pt x="647" y="-19" on="0"/>
        <pt x="234" y="-19" on="0"/>
        <pt x="80" y="68" on="1"/>
        <pt x="80" y="396" on="1"/>
        <pt x="298" y="253" on="0"/>
      </contour>
    </TTGlyph>
    <TTGlyph name="Scaron" xMin="20" yMin="-19" xMax="823" yMax="1907">
      <contour>
        <pt x="823" y="1882" on="1"/>
        <pt x="675" y="1734" on="0"/>
        <pt x="597" y="1619" on="1"/>
        <pt x="251" y="1619" on="1"/>
        <pt x="218" y="1670" on="0"/>
        <pt x="89" y="1820" on="0"/>
        <pt x="24" y="1882" on="1"/>
        <pt x="24" y="1907" on="1"/>
        <pt x="251" y="1907" on="1"/>
        <pt x="312" y="1870" on="0"/>
        <pt x="422" y="1775" on="1"/>
        <pt x="526" y="1865" on="0"/>
        <pt x="599" y="1907" on="1"/>
        <pt x="823" y="1907" on="1"/>
      </contour>
      <contour>
        <pt x="355" y="253" on="1"/>
        <pt x="408" y="253" on="0"/>
        <pt x="464" y="324" on="0"/>
        <pt x="464" y="427" on="0"/>
        <pt x="434" y="500" on="0"/>
        <pt x="376" y="562" on="0"/>
        <pt x="325" y="603" on="0"/>
        <pt x="287" y="630" on="1"/>
        <pt x="156" y="722" on="0"/>
        <pt x="31" y="926" on="0"/>
        <pt x="31" y="1065" on="1"/>
        <pt x="31" y="1257" on="0"/>
        <pt x="262" y="1482" on="0"/>
        <pt x="628" y="1482" on="0"/>
        <pt x="806" y="1375" on="1"/>
        <pt x="699" y="1118" on="1"/>
        <pt x="693" y="1121" on="0"/>
        <pt x="643" y="1148" on="0"/>
        <pt x="629" y="1155" on="0"/>
        <pt x="585" y="1176" on="0"/>
        <pt x="576" y="1180" on="1"/>
        <pt x="549" y="1190" on="1"/>
        <pt x="505" y="1207" on="0"/>
        <pt x="424" y="1207" on="0"/>
        <pt x="377" y="1134" on="0"/>
        <pt x="377" y="1031" on="0"/>
        <pt x="403" y="963" on="0"/>
        <pt x="430" y="934" on="1"/>
        <pt x="476" y="886" on="0"/>
        <pt x="543" y="842" on="1"/>
        <pt x="676" y="752" on="0"/>
        <pt x="811" y="553" on="0"/>
        <pt x="811" y="413" on="1"/>
        <pt x="811" y="204" on="0"/>
        <pt x="587" y="-19" on="0"/>
        <pt x="174" y="-19" on="0"/>
        <pt x="20" y="68" on="1"/>
        <pt x="20" y="396" on="1"/>
        <pt x="238" y="253" on="0"/>
      </contour>
    </TTGlyph>
    <TTGlyph name="T" xMin="41" yMin="0" xMax="933" yMax="1462">
      <contour>
        <pt x="933" y="1187" on="1"/>
        <pt x="661" y="1187" on="1"/>
        <pt x="661" y="0" on="1"/>
        <pt x="313" y="0" on="1"/>
        <pt x="313" y="1187" on="1"/>
        <pt x="41" y="1187" on="1"/>
        <pt x="41" y="1462" on="1"/>
        <pt x="933" y="1462" on="1"/>
      </contour>
    </TTGlyph>
    <TTGlyph name="Thorn" xMin="80" yMin="0" xMax="939" yMax="1462">
      <contour>
        <pt x="430" y="1236" on="1"/>
        <pt x="481" y="1236" on="1"/>
        <pt x="939" y="1236" on="0"/>
        <pt x="939" y="777" on="1"/>
        <pt x="939" y="539" on="0"/>
        <pt x="689" y="286" on="0"/>
        <pt x="453" y="286" on="1"/>
        <pt x="430" y="286" on="1"/>
        <pt x="430" y="0" on="1"/>
        <pt x="80" y="0" on="1"/>
        <pt x="80" y="1462" on="1"/>
        <pt x="430" y="1462" on="1"/>
      </contour>
      <contour>
        <pt x="430" y="966" on="1"/>
        <pt x="430" y="557" on="1"/>
        <pt x="437" y="557" on="1"/>
        <pt x="513" y="557" on="0"/>
        <pt x="587" y="658" on="0"/>
        <pt x="587" y="767" on="1"/>
        <pt x="587" y="966" on="0"/>
        <pt x="453" y="966" on="1"/>
      </contour>
    </TTGlyph>
    <TTGlyph name="U" xMin="140" yMin="-19" xMax="1104" yMax="1462">
      <contour>
        <pt x="1104" y="1462" on="1"/>
        <pt x="1104" y="522" on="1"/>
        <pt x="1104" y="259" on="0"/>
        <pt x="853" y="-19" on="0"/>
        <pt x="382" y="-19" on="0"/>
        <pt x="140" y="257" on="0"/>
        <pt x="140" y="526" on="1"/>
        <pt x="140" y="1462" on="1"/>
        <pt x="488" y="1462" on="1"/>
        <pt x="488" y="507" on="1"/>
        <pt x="488" y="257" on="0"/>
        <pt x="625" y="257" on="1"/>
        <pt x="688" y="257" on="0"/>
        <pt x="757" y="384" on="0"/>
        <pt x="757" y="501" on="1"/>
        <pt x="757" y="1462" on="1"/>
      </contour>
    </TTGlyph>
    <TTGlyph name="Uacute" xMin="75" yMin="-19" xMax="1039" yMax="1904">
      <contour>
        <pt x="955" y="1904" on="1"/>
        <pt x="955" y="1886" on="1"/>
        <pt x="879" y="1826" on="0"/>
        <pt x="636" y="1653" on="0"/>
        <pt x="575" y="1616" on="1"/>
        <pt x="347" y="1616" on="1"/>
        <pt x="347" y="1641" on="1"/>
        <pt x="488" y="1793" on="0"/>
        <pt x="555" y="1870" on="0"/>
        <pt x="579" y="1904" on="1"/>
      </contour>
      <contour>
        <pt x="1039" y="1462" on="1"/>
        <pt x="1039" y="522" on="1"/>
        <pt x="1039" y="259" on="0"/>
        <pt x="788" y="-19" on="0"/>
        <pt x="317" y="-19" on="0"/>
        <pt x="75" y="257" on="0"/>
        <pt x="75" y="526" on="1"/>
        <pt x="75" y="1462" on="1"/>
        <pt x="423" y="1462" on="1"/>
        <pt x="423" y="507" on="1"/>
        <pt x="423" y="257" on="0"/>
        <pt x="560" y="257" on="1"/>
        <pt x="623" y="257" on="0"/>
        <pt x="692" y="384" on="0"/>
        <pt x="692" y="501" on="1"/>
        <pt x="692" y="1462" on="1"/>
      </contour>
    </TTGlyph>
    <TTGlyph name="Ucircumflex" xMin="75" yMin="-19" xMax="1039" yMax="1905">
      <contour>
        <pt x="955" y="1617" on="1"/>
        <pt x="731" y="1617" on="1"/>
        <pt x="658" y="1659" on="0"/>
        <pt x="554" y="1749" on="1"/>
        <pt x="444" y="1654" on="0"/>
        <pt x="383" y="1617" on="1"/>
        <pt x="156" y="1617" on="1"/>
        <pt x="156" y="1642" on="1"/>
        <pt x="213" y="1695" on="0"/>
        <pt x="349" y="1852" on="0"/>
        <pt x="383" y="1905" on="1"/>
        <pt x="729" y="1905" on="1"/>
        <pt x="810" y="1787" on="0"/>
        <pt x="955" y="1642" on="1"/>
      </contour>
      <contour>
        <pt x="1039" y="1462" on="1"/>
        <pt x="1039" y="522" on="1"/>
        <pt x="1039" y="259" on="0"/>
        <pt x="788" y="-19" on="0"/>
        <pt x="317" y="-19" on="0"/>
        <pt x="75" y="257" on="0"/>
        <pt x="75" y="526" on="1"/>
        <pt x="75" y="1462" on="1"/>
        <pt x="423" y="1462" on="1"/>
        <pt x="423" y="507" on="1"/>
        <pt x="423" y="257" on="0"/>
        <pt x="560" y="257" on="1"/>
        <pt x="623" y="257" on="0"/>
        <pt x="692" y="384" on="0"/>
        <pt x="692" y="501" on="1"/>
        <pt x="692" y="1462" on="1"/>
      </contour>
    </TTGlyph>
    <TTGlyph name="Udieresis" xMin="75" yMin="-19" xMax="1039" yMax="1892">
      <contour>
        <pt x="207" y="1818" on="0"/>
        <pt x="287" y="1892" on="0"/>
        <pt x="429" y="1892" on="0"/>
        <pt x="511" y="1815" on="0"/>
        <pt x="511" y="1688" on="0"/>
        <pt x="429" y="1613" on="0"/>
        <pt x="287" y="1613" on="0"/>
        <pt x="207" y="1686" on="0"/>
      </contour>
      <contour>
        <pt x="630" y="1818" on="0"/>
        <pt x="710" y="1892" on="0"/>
        <pt x="852" y="1892" on="0"/>
        <pt x="934" y="1815" on="0"/>
        <pt x="934" y="1688" on="0"/>
        <pt x="852" y="1613" on="0"/>
        <pt x="710" y="1613" on="0"/>
        <pt x="630" y="1686" on="0"/>
      </contour>
      <contour>
        <pt x="1039" y="1462" on="1"/>
        <pt x="1039" y="522" on="1"/>
        <pt x="1039" y="259" on="0"/>
        <pt x="788" y="-19" on="0"/>
        <pt x="317" y="-19" on="0"/>
        <pt x="75" y="257" on="0"/>
        <pt x="75" y="526" on="1"/>
        <pt x="75" y="1462" on="1"/>
        <pt x="423" y="1462" on="1"/>
        <pt x="423" y="507" on="1"/>
        <pt x="423" y="257" on="0"/>
        <pt x="560" y="257" on="1"/>
        <pt x="623" y="257" on="0"/>
        <pt x="692" y="384" on="0"/>
        <pt x="692" y="501" on="1"/>
        <pt x="692" y="1462" on="1"/>
      </contour>
    </TTGlyph>
    <TTGlyph name="Ugrave" xMin="75" yMin="-19" xMax="1039" yMax="1905">
      <contour>
        <pt x="157" y="1905" on="1"/>
        <pt x="535" y="1905" on="1"/>
        <pt x="584" y="1840" on="0"/>
        <pt x="714" y="1700" on="1"/>
        <pt x="765" y="1642" on="1"/>
        <pt x="765" y="1617" on="1"/>
        <pt x="537" y="1617" on="1"/>
        <pt x="487" y="1647" on="0"/>
        <pt x="256" y="1810" on="0"/>
        <pt x="157" y="1887" on="1"/>
      </contour>
      <contour>
        <pt x="1039" y="1462" on="1"/>
        <pt x="1039" y="522" on="1"/>
        <pt x="1039" y="259" on="0"/>
        <pt x="788" y="-19" on="0"/>
        <pt x="317" y="-19" on="0"/>
        <pt x="75" y="257" on="0"/>
        <pt x="75" y="526" on="1"/>
        <pt x="75" y="1462" on="1"/>
        <pt x="423" y="1462" on="1"/>
        <pt x="423" y="507" on="1"/>
        <pt x="423" y="257" on="0"/>
        <pt x="560" y="257" on="1"/>
        <pt x="623" y="257" on="0"/>
        <pt x="692" y="384" on="0"/>
        <pt x="692" y="501" on="1"/>
        <pt x="692" y="1462" on="1"/>
      </contour>
    </TTGlyph>
    <TTGlyph name="V" xMin="-10" yMin="0" xMax="1087" yMax="1462">
      <contour>
        <pt x="743" y="0" on="1"/>
        <pt x="332" y="0" on="1"/>
        <pt x="-10" y="1462" on="1"/>
        <pt x="341" y="1462" on="1"/>
        <pt x="531" y="579" on="1"/>
        <pt x="536" y="557" on="0"/>
        <pt x="539" y="538" on="1"/>
        <pt x="736" y="1462" on="1"/>
        <pt x="1087" y="1462" on="1"/>
      </contour>
    </TTGlyph>
    <TTGlyph name="W" xMin="21" yMin="0" xMax="1654" yMax="1462">
      <contour>
        <pt x="1390" y="0" on="1"/>
        <pt x="983" y="0" on="1"/>
        <pt x="841" y="760" on="1"/>
        <pt x="835" y="786" on="1"/>
        <pt x="831" y="757" on="1"/>
        <pt x="693" y="0" on="1"/>
        <pt x="286" y="0" on="1"/>
        <pt x="21" y="1462" on="1"/>
        <pt x="365" y="1462" on="1"/>
        <pt x="501" y="607" on="1"/>
        <pt x="661" y="1462" on="1"/>
        <pt x="1013" y="1462" on="1"/>
        <pt x="1167" y="638" on="1"/>
        <pt x="1174" y="603" on="1"/>
        <pt x="1307" y="1462" on="1"/>
        <pt x="1654" y="1462" on="1"/>
      </contour>
    </TTGlyph>
    <TTGlyph name="X" xMin="-6" yMin="0" xMax="1039" yMax="1462">
      <contour>
        <pt x="520" y="1090" on="1"/>
        <pt x="650" y="1462" on="1"/>
        <pt x="1014" y="1462" on="1"/>
        <pt x="705" y="748" on="1"/>
        <pt x="1039" y="0" on="1"/>
        <pt x="678" y="0" on="1"/>
        <pt x="510" y="417" on="1"/>
        <pt x="356" y="0" on="1"/>
        <pt x="-6" y="0" on="1"/>
        <pt x="328" y="759" on="1"/>
        <pt x="18" y="1462" on="1"/>
        <pt x="370" y="1462" on="1"/>
      </contour>
    </TTGlyph>
    <TTGlyph name="Y" xMin="-10" yMin="0" xMax="1025" yMax="1462">
      <contour>
        <pt x="680" y="0" on="1"/>
        <pt x="334" y="0" on="1"/>
        <pt x="334" y="580" on="1"/>
        <pt x="-10" y="1462" on="1"/>
        <pt x="356" y="1462" on="1"/>
        <pt x="509" y="1009" on="1"/>
        <pt x="583" y="1226" on="0"/>
        <pt x="661" y="1462" on="1"/>
        <pt x="1025" y="1462" on="1"/>
        <pt x="680" y="590" on="1"/>
      </contour>
    </TTGlyph>
    <TTGlyph name="Yacute" xMin="-54" yMin="0" xMax="981" yMax="1904">
      <contour>
        <pt x="857" y="1904" on="1"/>
        <pt x="857" y="1886" on="1"/>
        <pt x="781" y="1826" on="0"/>
        <pt x="538" y="1653" on="0"/>
        <pt x="477" y="1616" on="1"/>
        <pt x="249" y="1616" on="1"/>
        <pt x="249" y="1641" on="1"/>
        <pt x="390" y="1793" on="0"/>
        <pt x="457" y="1870" on="0"/>
        <pt x="481" y="1904" on="1"/>
      </contour>
      <contour>
        <pt x="636" y="0" on="1"/>
        <pt x="290" y="0" on="1"/>
        <pt x="290" y="580" on="1"/>
        <pt x="-54" y="1462" on="1"/>
        <pt x="312" y="1462" on="1"/>
        <pt x="465" y="1009" on="1"/>
        <pt x="617" y="1462" on="1"/>
        <pt x="981" y="1462" on="1"/>
        <pt x="636" y="590" on="1"/>
      </contour>
    </TTGlyph>
    <TTGlyph name="Ydieresis" xMin="-54" yMin="0" xMax="981" yMax="1892">
      <contour>
        <pt x="114" y="1818" on="0"/>
        <pt x="194" y="1892" on="0"/>
        <pt x="336" y="1892" on="0"/>
        <pt x="418" y="1815" on="0"/>
        <pt x="418" y="1688" on="0"/>
        <pt x="336" y="1613" on="0"/>
        <pt x="194" y="1613" on="0"/>
        <pt x="114" y="1686" on="0"/>
      </contour>
      <contour>
        <pt x="537" y="1818" on="0"/>
        <pt x="617" y="1892" on="0"/>
        <pt x="759" y="1892" on="0"/>
        <pt x="841" y="1815" on="0"/>
        <pt x="841" y="1688" on="0"/>
        <pt x="759" y="1613" on="0"/>
        <pt x="617" y="1613" on="0"/>
        <pt x="537" y="1686" on="0"/>
      </contour>
      <contour>
        <pt x="636" y="0" on="1"/>
        <pt x="290" y="0" on="1"/>
        <pt x="290" y="580" on="1"/>
        <pt x="-54" y="1462" on="1"/>
        <pt x="312" y="1462" on="1"/>
        <pt x="465" y="1009" on="1"/>
        <pt x="538" y="1226" on="0"/>
        <pt x="617" y="1462" on="1"/>
        <pt x="981" y="1462" on="1"/>
        <pt x="636" y="590" on="1"/>
      </contour>
    </TTGlyph>
    <TTGlyph name="Z" xMin="51" yMin="0" xMax="905" yMax="1462">
      <contour>
        <pt x="905" y="274" on="1"/>
        <pt x="905" y="0" on="1"/>
        <pt x="51" y="0" on="1"/>
        <pt x="51" y="206" on="1"/>
        <pt x="495" y="1189" on="1"/>
        <pt x="65" y="1189" on="1"/>
        <pt x="65" y="1462" on="1"/>
        <pt x="890" y="1462" on="1"/>
        <pt x="890" y="1256" on="1"/>
        <pt x="447" y="274" on="1"/>
      </contour>
    </TTGlyph>
    <TTGlyph name="Zcaron" xMin="-5" yMin="0" xMax="849" yMax="1907">
      <contour>
        <pt x="823" y="1882" on="1"/>
        <pt x="675" y="1734" on="0"/>
        <pt x="597" y="1619" on="1"/>
        <pt x="251" y="1619" on="1"/>
        <pt x="218" y="1670" on="0"/>
        <pt x="89" y="1820" on="0"/>
        <pt x="24" y="1882" on="1"/>
        <pt x="24" y="1907" on="1"/>
        <pt x="251" y="1907" on="1"/>
        <pt x="312" y="1870" on="0"/>
        <pt x="422" y="1775" on="1"/>
        <pt x="526" y="1865" on="0"/>
        <pt x="599" y="1907" on="1"/>
        <pt x="823" y="1907" on="1"/>
      </contour>
      <contour>
        <pt x="849" y="274" on="1"/>
        <pt x="849" y="0" on="1"/>
        <pt x="-5" y="0" on="1"/>
        <pt x="-5" y="206" on="1"/>
        <pt x="439" y="1189" on="1"/>
        <pt x="9" y="1189" on="1"/>
        <pt x="9" y="1462" on="1"/>
        <pt x="834" y="1462" on="1"/>
        <pt x="834" y="1256" on="1"/>
        <pt x="391" y="274" on="1"/>
      </contour>
    </TTGlyph>
    <TTGlyph name="a" xMin="64" yMin="-19" xMax="918" yMax="1136">
      <contour>
        <pt x="135" y="1018" on="1"/>
        <pt x="322" y="1136" on="0"/>
        <pt x="717" y="1136" on="0"/>
        <pt x="918" y="931" on="0"/>
        <pt x="918" y="741" on="1"/>
        <pt x="918" y="0" on="1"/>
        <pt x="652" y="0" on="1"/>
        <pt x="620" y="90" on="1"/>
        <pt x="518" y="-19" on="0"/>
        <pt x="361" y="-19" on="1"/>
        <pt x="284" y="-19" on="0"/>
        <pt x="167" y="40" on="0"/>
        <pt x="132" y="91" on="1"/>
        <pt x="64" y="192" on="0"/>
        <pt x="64" y="337" on="1"/>
        <pt x="64" y="514" on="0"/>
        <pt x="268" y="691" on="0"/>
        <pt x="475" y="700" on="1"/>
        <pt x="577" y="704" on="1"/>
        <pt x="577" y="762" on="1"/>
        <pt x="577" y="891" on="0"/>
        <pt x="489" y="891" on="1"/>
        <pt x="414" y="891" on="0"/>
        <pt x="248" y="793" on="1"/>
      </contour>
      <contour>
        <pt x="577" y="433" on="1"/>
        <pt x="577" y="499" on="1"/>
        <pt x="565" y="498" on="0"/>
        <pt x="543" y="498" on="1"/>
        <pt x="413" y="487" on="0"/>
        <pt x="413" y="335" on="1"/>
        <pt x="413" y="223" on="0"/>
        <pt x="516" y="223" on="0"/>
        <pt x="577" y="338" on="0"/>
      </contour>
    </TTGlyph>
    <TTGlyph name="aacute" xMin="9" yMin="-19" xMax="873" yMax="1566">
      <contour>
        <pt x="873" y="1566" on="1"/>
        <pt x="873" y="1548" on="1"/>
        <pt x="797" y="1488" on="0"/>
        <pt x="554" y="1315" on="0"/>
        <pt x="493" y="1278" on="1"/>
        <pt x="265" y="1278" on="1"/>
        <pt x="265" y="1303" on="1"/>
        <pt x="406" y="1455" on="0"/>
        <pt x="473" y="1532" on="0"/>
        <pt x="497" y="1566" on="1"/>
      </contour>
      <contour>
        <pt x="80" y="1018" on="1"/>
        <pt x="267" y="1136" on="0"/>
        <pt x="662" y="1136" on="0"/>
        <pt x="863" y="931" on="0"/>
        <pt x="863" y="741" on="1"/>
        <pt x="863" y="0" on="1"/>
        <pt x="597" y="0" on="1"/>
        <pt x="565" y="90" on="1"/>
        <pt x="463" y="-19" on="0"/>
        <pt x="306" y="-19" on="1"/>
        <pt x="229" y="-19" on="0"/>
        <pt x="112" y="40" on="0"/>
        <pt x="78" y="91" on="1"/>
        <pt x="9" y="192" on="0"/>
        <pt x="9" y="337" on="1"/>
        <pt x="9" y="514" on="0"/>
        <pt x="213" y="691" on="0"/>
        <pt x="420" y="700" on="1"/>
        <pt x="522" y="704" on="1"/>
        <pt x="522" y="762" on="1"/>
        <pt x="522" y="891" on="0"/>
        <pt x="434" y="891" on="1"/>
        <pt x="359" y="891" on="0"/>
        <pt x="193" y="793" on="1"/>
      </contour>
      <contour>
        <pt x="522" y="433" on="1"/>
        <pt x="522" y="499" on="1"/>
        <pt x="510" y="498" on="0"/>
        <pt x="488" y="498" on="1"/>
        <pt x="358" y="487" on="0"/>
        <pt x="358" y="335" on="1"/>
        <pt x="358" y="223" on="0"/>
        <pt x="461" y="223" on="0"/>
        <pt x="522" y="338" on="0"/>
      </contour>
    </TTGlyph>
    <TTGlyph name="acircumflex" xMin="9" yMin="-19" xMax="876" yMax="1566">
      <contour>
        <pt x="876" y="1278" on="1"/>
        <pt x="652" y="1278" on="1"/>
        <pt x="578" y="1320" on="0"/>
        <pt x="475" y="1410" on="1"/>
        <pt x="366" y="1316" on="0"/>
        <pt x="304" y="1278" on="1"/>
        <pt x="77" y="1278" on="1"/>
        <pt x="77" y="1303" on="1"/>
        <pt x="134" y="1356" on="0"/>
        <pt x="270" y="1513" on="0"/>
        <pt x="304" y="1566" on="1"/>
        <pt x="650" y="1566" on="1"/>
        <pt x="731" y="1448" on="0"/>
        <pt x="876" y="1303" on="1"/>
      </contour>
      <contour>
        <pt x="80" y="1018" on="1"/>
        <pt x="267" y="1136" on="0"/>
        <pt x="662" y="1136" on="0"/>
        <pt x="863" y="931" on="0"/>
        <pt x="863" y="741" on="1"/>
        <pt x="863" y="0" on="1"/>
        <pt x="597" y="0" on="1"/>
        <pt x="565" y="90" on="1"/>
        <pt x="463" y="-19" on="0"/>
        <pt x="306" y="-19" on="1"/>
        <pt x="229" y="-19" on="0"/>
        <pt x="112" y="40" on="0"/>
        <pt x="78" y="91" on="1"/>
        <pt x="9" y="192" on="0"/>
        <pt x="9" y="337" on="1"/>
        <pt x="9" y="514" on="0"/>
        <pt x="213" y="691" on="0"/>
        <pt x="420" y="700" on="1"/>
        <pt x="522" y="704" on="1"/>
        <pt x="522" y="762" on="1"/>
        <pt x="522" y="891" on="0"/>
        <pt x="434" y="891" on="1"/>
        <pt x="359" y="891" on="0"/>
        <pt x="193" y="793" on="1"/>
      </contour>
      <contour>
        <pt x="522" y="433" on="1"/>
        <pt x="522" y="499" on="1"/>
        <pt x="510" y="498" on="0"/>
        <pt x="488" y="498" on="1"/>
        <pt x="358" y="487" on="0"/>
        <pt x="358" y="335" on="1"/>
        <pt x="358" y="223" on="0"/>
        <pt x="461" y="223" on="0"/>
        <pt x="522" y="338" on="0"/>
      </contour>
    </TTGlyph>
    <TTGlyph name="acute" xMin="214" yMin="1278" xMax="822" yMax="1566">
      <contour>
        <pt x="822" y="1566" on="1"/>
        <pt x="822" y="1548" on="1"/>
        <pt x="746" y="1488" on="0"/>
        <pt x="503" y="1315" on="0"/>
        <pt x="442" y="1278" on="1"/>
        <pt x="214" y="1278" on="1"/>
        <pt x="214" y="1303" on="1"/>
        <pt x="355" y="1455" on="0"/>
        <pt x="422" y="1532" on="0"/>
        <pt x="446" y="1566" on="1"/>
      </contour>
    </TTGlyph>
    <TTGlyph name="adieresis" xMin="9" yMin="-19" xMax="863" yMax="1554">
      <contour>
        <pt x="128" y="1480" on="0"/>
        <pt x="208" y="1554" on="0"/>
        <pt x="350" y="1554" on="0"/>
        <pt x="432" y="1477" on="0"/>
        <pt x="432" y="1350" on="0"/>
        <pt x="350" y="1275" on="0"/>
        <pt x="208" y="1275" on="0"/>
        <pt x="128" y="1348" on="0"/>
      </contour>
      <contour>
        <pt x="551" y="1480" on="0"/>
        <pt x="631" y="1554" on="0"/>
        <pt x="773" y="1554" on="0"/>
        <pt x="855" y="1477" on="0"/>
        <pt x="855" y="1350" on="0"/>
        <pt x="773" y="1275" on="0"/>
        <pt x="631" y="1275" on="0"/>
        <pt x="551" y="1348" on="0"/>
      </contour>
      <contour>
        <pt x="80" y="1018" on="1"/>
        <pt x="267" y="1136" on="0"/>
        <pt x="662" y="1136" on="0"/>
        <pt x="863" y="931" on="0"/>
        <pt x="863" y="741" on="1"/>
        <pt x="863" y="0" on="1"/>
        <pt x="597" y="0" on="1"/>
        <pt x="565" y="90" on="1"/>
        <pt x="463" y="-19" on="0"/>
        <pt x="306" y="-19" on="1"/>
        <pt x="229" y="-19" on="0"/>
        <pt x="112" y="40" on="0"/>
        <pt x="78" y="91" on="1"/>
        <pt x="9" y="192" on="0"/>
        <pt x="9" y="337" on="1"/>
        <pt x="9" y="514" on="0"/>
        <pt x="213" y="691" on="0"/>
        <pt x="420" y="700" on="1"/>
        <pt x="522" y="704" on="1"/>
        <pt x="522" y="762" on="1"/>
        <pt x="522" y="891" on="0"/>
        <pt x="434" y="891" on="1"/>
        <pt x="359" y="891" on="0"/>
        <pt x="193" y="793" on="1"/>
      </contour>
      <contour>
        <pt x="522" y="433" on="1"/>
        <pt x="522" y="499" on="1"/>
        <pt x="510" y="498" on="0"/>
        <pt x="488" y="498" on="1"/>
        <pt x="358" y="487" on="0"/>
        <pt x="358" y="335" on="1"/>
        <pt x="358" y="223" on="0"/>
        <pt x="461" y="223" on="0"/>
        <pt x="522" y="338" on="0"/>
      </contour>
    </TTGlyph>
    <TTGlyph name="ae" xMin="14" yMin="-19" xMax="1376" yMax="1136">
      <contour>
        <pt x="477" y="1136" on="1"/>
        <pt x="633" y="1136" on="0"/>
        <pt x="726" y="1066" on="1"/>
        <pt x="819" y="1134" on="0"/>
        <pt x="957" y="1134" on="1"/>
        <pt x="1064" y="1134" on="0"/>
        <pt x="1226" y="1055" on="0"/>
        <pt x="1275" y="984" on="1"/>
        <pt x="1372" y="845" on="0"/>
        <pt x="1376" y="628" on="1"/>
        <pt x="1376" y="470" on="1"/>
        <pt x="863" y="470" on="1"/>
        <pt x="873" y="230" on="0"/>
        <pt x="1032" y="230" on="1"/>
        <pt x="1181" y="230" on="0"/>
        <pt x="1330" y="323" on="1"/>
        <pt x="1330" y="70" on="1"/>
        <pt x="1181" y="-19" on="0"/>
        <pt x="993" y="-19" on="1"/>
        <pt x="779" y="-19" on="0"/>
        <pt x="663" y="114" on="1"/>
        <pt x="556" y="-19" on="0"/>
        <pt x="361" y="-19" on="1"/>
        <pt x="191" y="-19" on="0"/>
        <pt x="14" y="162" on="0"/>
        <pt x="14" y="514" on="0"/>
        <pt x="218" y="691" on="0"/>
        <pt x="425" y="700" on="1"/>
        <pt x="527" y="704" on="1"/>
        <pt x="527" y="760" on="1"/>
        <pt x="527" y="891" on="0"/>
        <pt x="439" y="891" on="1"/>
        <pt x="364" y="891" on="0"/>
        <pt x="198" y="793" on="1"/>
        <pt x="85" y="1018" on="1"/>
        <pt x="272" y="1136" on="0"/>
      </contour>
      <contour>
        <pt x="1042" y="699" on="1"/>
        <pt x="1032" y="895" on="0"/>
        <pt x="957" y="895" on="1"/>
        <pt x="881" y="895" on="0"/>
        <pt x="869" y="699" on="1"/>
      </contour>
      <contour>
        <pt x="527" y="433" on="1"/>
        <pt x="527" y="499" on="1"/>
        <pt x="515" y="498" on="0"/>
        <pt x="493" y="498" on="1"/>
        <pt x="430" y="498" on="0"/>
        <pt x="363" y="413" on="0"/>
        <pt x="363" y="335" on="1"/>
        <pt x="363" y="223" on="0"/>
        <pt x="466" y="223" on="0"/>
        <pt x="527" y="338" on="0"/>
      </contour>
    </TTGlyph>
    <TTGlyph name="agrave" xMin="9" yMin="-19" xMax="863" yMax="1567">
      <contour>
        <pt x="93" y="1567" on="1"/>
        <pt x="471" y="1567" on="1"/>
        <pt x="520" y="1502" on="0"/>
        <pt x="650" y="1362" on="1"/>
        <pt x="701" y="1304" on="1"/>
        <pt x="701" y="1279" on="1"/>
        <pt x="473" y="1279" on="1"/>
        <pt x="423" y="1309" on="0"/>
        <pt x="192" y="1472" on="0"/>
        <pt x="93" y="1549" on="1"/>
      </contour>
      <contour>
        <pt x="80" y="1018" on="1"/>
        <pt x="267" y="1136" on="0"/>
        <pt x="662" y="1136" on="0"/>
        <pt x="863" y="931" on="0"/>
        <pt x="863" y="741" on="1"/>
        <pt x="863" y="0" on="1"/>
        <pt x="597" y="0" on="1"/>
        <pt x="565" y="90" on="1"/>
        <pt x="463" y="-19" on="0"/>
        <pt x="306" y="-19" on="1"/>
        <pt x="229" y="-19" on="0"/>
        <pt x="112" y="40" on="0"/>
        <pt x="78" y="91" on="1"/>
        <pt x="9" y="192" on="0"/>
        <pt x="9" y="337" on="1"/>
        <pt x="9" y="514" on="0"/>
        <pt x="213" y="691" on="0"/>
        <pt x="420" y="700" on="1"/>
        <pt x="522" y="704" on="1"/>
        <pt x="522" y="762" on="1"/>
        <pt x="522" y="891" on="0"/>
        <pt x="434" y="891" on="1"/>
        <pt x="359" y="891" on="0"/>
        <pt x="193" y="793" on="1"/>
      </contour>
      <contour>
        <pt x="522" y="433" on="1"/>
        <pt x="522" y="499" on="1"/>
        <pt x="510" y="498" on="0"/>
        <pt x="488" y="498" on="1"/>
        <pt x="358" y="487" on="0"/>
        <pt x="358" y="335" on="1"/>
        <pt x="358" y="223" on="0"/>
        <pt x="461" y="223" on="0"/>
        <pt x="522" y="338" on="0"/>
      </contour>
    </TTGlyph>
    <TTGlyph name="alefdageshhb" xMin="50" yMin="0" xMax="1019" yMax="1290">
      <contour>
        <pt x="1019" y="1290" on="1"/>
        <pt x="1019" y="813" on="1"/>
        <pt x="1019" y="658" on="0"/>
        <pt x="964" y="576" on="1"/>
        <pt x="941" y="542" on="0"/>
        <pt x="858" y="474" on="0"/>
        <pt x="800" y="450" on="1"/>
        <pt x="1009" y="0" on="1"/>
        <pt x="633" y="0" on="1"/>
        <pt x="420" y="546" on="1"/>
        <pt x="419" y="534" on="0"/>
        <pt x="419" y="490" on="1"/>
        <pt x="419" y="0" on="1"/>
        <pt x="76" y="0" on="1"/>
        <pt x="76" y="467" on="1"/>
        <pt x="76" y="534" on="0"/>
        <pt x="109" y="654" on="0"/>
        <pt x="206" y="779" on="0"/>
        <pt x="284" y="820" on="1"/>
        <pt x="246" y="899" on="0"/>
        <pt x="84" y="1222" on="0"/>
        <pt x="50" y="1290" on="1"/>
        <pt x="426" y="1290" on="1"/>
        <pt x="618" y="831" on="1"/>
        <pt x="669" y="703" on="1"/>
        <pt x="676" y="732" on="0"/>
        <pt x="676" y="800" on="1"/>
        <pt x="676" y="1290" on="1"/>
      </contour>
      <contour>
        <pt x="470" y="163" on="0"/>
        <pt x="536" y="163" on="0"/>
        <pt x="574" y="127" on="0"/>
        <pt x="574" y="68" on="0"/>
        <pt x="536" y="33" on="0"/>
        <pt x="470" y="33" on="0"/>
        <pt x="433" y="68" on="0"/>
        <pt x="433" y="128" on="0"/>
      </contour>
    </TTGlyph>
    <TTGlyph name="alefpatahhb" xMin="50" yMin="-344" xMax="1019" yMax="1290">
      <contour>
        <pt x="1019" y="1290" on="1"/>
        <pt x="1019" y="813" on="1"/>
        <pt x="1019" y="658" on="0"/>
        <pt x="964" y="576" on="1"/>
        <pt x="941" y="542" on="0"/>
        <pt x="858" y="474" on="0"/>
        <pt x="800" y="450" on="1"/>
        <pt x="1009" y="0" on="1"/>
        <pt x="633" y="0" on="1"/>
        <pt x="420" y="546" on="1"/>
        <pt x="419" y="534" on="0"/>
        <pt x="419" y="490" on="1"/>
        <pt x="419" y="0" on="1"/>
        <pt x="76" y="0" on="1"/>
        <pt x="76" y="467" on="1"/>
        <pt x="76" y="534" on="0"/>
        <pt x="109" y="654" on="0"/>
        <pt x="206" y="779" on="0"/>
        <pt x="284" y="820" on="1"/>
        <pt x="246" y="899" on="0"/>
        <pt x="84" y="1222" on="0"/>
        <pt x="50" y="1290" on="1"/>
        <pt x="426" y="1290" on="1"/>
        <pt x="618" y="831" on="1"/>
        <pt x="669" y="703" on="1"/>
        <pt x="676" y="732" on="0"/>
        <pt x="676" y="800" on="1"/>
        <pt x="676" y="1290" on="1"/>
      </contour>
      <contour>
        <pt x="732" y="-344" on="1"/>
        <pt x="339" y="-344" on="1"/>
        <pt x="339" y="-228" on="1"/>
        <pt x="732" y="-228" on="1"/>
      </contour>
    </TTGlyph>
    <TTGlyph name="alefqamatshb" xMin="50" yMin="-567" xMax="1019" yMax="1290">
      <contour>
        <pt x="1019" y="1290" on="1"/>
        <pt x="1019" y="813" on="1"/>
        <pt x="1019" y="658" on="0"/>
        <pt x="964" y="576" on="1"/>
        <pt x="941" y="542" on="0"/>
        <pt x="858" y="474" on="0"/>
        <pt x="800" y="450" on="1"/>
        <pt x="1009" y="0" on="1"/>
        <pt x="633" y="0" on="1"/>
        <pt x="420" y="546" on="1"/>
        <pt x="419" y="534" on="0"/>
        <pt x="419" y="490" on="1"/>
        <pt x="419" y="0" on="1"/>
        <pt x="76" y="0" on="1"/>
        <pt x="76" y="467" on="1"/>
        <pt x="76" y="534" on="0"/>
        <pt x="109" y="654" on="0"/>
        <pt x="206" y="779" on="0"/>
        <pt x="284" y="820" on="1"/>
        <pt x="246" y="899" on="0"/>
        <pt x="84" y="1222" on="0"/>
        <pt x="50" y="1290" on="1"/>
        <pt x="426" y="1290" on="1"/>
        <pt x="618" y="831" on="1"/>
        <pt x="669" y="703" on="1"/>
        <pt x="676" y="732" on="0"/>
        <pt x="676" y="800" on="1"/>
        <pt x="676" y="1290" on="1"/>
      </contour>
      <contour>
        <pt x="726" y="-365" on="1"/>
        <pt x="590" y="-365" on="1"/>
        <pt x="590" y="-567" on="1"/>
        <pt x="479" y="-567" on="1"/>
        <pt x="479" y="-365" on="1"/>
        <pt x="344" y="-365" on="1"/>
        <pt x="344" y="-248" on="1"/>
        <pt x="726" y="-248" on="1"/>
      </contour>
    </TTGlyph>
    <TTGlyph name="ampersand" xMin="62" yMin="-19" xMax="1243" yMax="1482">
      <contour>
        <pt x="814" y="74" on="1"/>
        <pt x="685" y="-19" on="0"/>
        <pt x="294" y="-19" on="0"/>
        <pt x="62" y="205" on="0"/>
        <pt x="62" y="401" on="1"/>
        <pt x="62" y="638" on="0"/>
        <pt x="296" y="808" on="1"/>
        <pt x="288" y="822" on="0"/>
        <pt x="242" y="898" on="0"/>
        <pt x="231" y="918" on="0"/>
        <pt x="201" y="975" on="0"/>
        <pt x="193" y="1003" on="0"/>
        <pt x="186" y="1028" on="1"/>
        <pt x="175" y="1069" on="0"/>
        <pt x="175" y="1129" on="1"/>
        <pt x="175" y="1290" on="0"/>
        <pt x="392" y="1482" on="0"/>
        <pt x="722" y="1482" on="0"/>
        <pt x="925" y="1300" on="0"/>
        <pt x="925" y="1145" on="1"/>
        <pt x="925" y="1043" on="0"/>
        <pt x="816" y="857" on="0"/>
        <pt x="696" y="763" on="1"/>
        <pt x="726" y="721" on="0"/>
        <pt x="807" y="604" on="0"/>
        <pt x="838" y="561" on="1"/>
        <pt x="858" y="616" on="0"/>
        <pt x="893" y="788" on="1"/>
        <pt x="1202" y="788" on="1"/>
        <pt x="1164" y="503" on="0"/>
        <pt x="1039" y="283" on="1"/>
        <pt x="1070" y="239" on="0"/>
        <pt x="1215" y="40" on="0"/>
        <pt x="1243" y="0" on="1"/>
        <pt x="865" y="0" on="1"/>
      </contour>
      <contour>
        <pt x="600" y="1121" on="1"/>
        <pt x="600" y="1220" on="0"/>
        <pt x="553" y="1220" on="1"/>
        <pt x="531" y="1220" on="0"/>
        <pt x="501" y="1167" on="0"/>
        <pt x="501" y="1118" on="1"/>
        <pt x="501" y="1046" on="0"/>
        <pt x="547" y="977" on="1"/>
        <pt x="600" y="1040" on="0"/>
      </contour>
      <contour>
        <pt x="456" y="586" on="1"/>
        <pt x="408" y="519" on="0"/>
        <pt x="408" y="345" on="0"/>
        <pt x="471" y="253" on="0"/>
        <pt x="588" y="253" on="0"/>
        <pt x="651" y="305" on="1"/>
        <pt x="610" y="363" on="0"/>
        <pt x="477" y="556" on="0"/>
      </contour>
    </TTGlyph>
    <TTGlyph name="aring" xMin="9" yMin="-19" xMax="863" yMax="1706">
      <contour>
        <pt x="589" y="1706" on="0"/>
        <pt x="725" y="1582" on="0"/>
        <pt x="725" y="1383" on="0"/>
        <pt x="590" y="1260" on="0"/>
        <pt x="379" y="1260" on="0"/>
        <pt x="253" y="1382" on="0"/>
        <pt x="253" y="1584" on="0"/>
        <pt x="378" y="1706" on="0"/>
      </contour>
      <contour>
        <pt x="516" y="1556" on="0"/>
        <pt x="454" y="1556" on="0"/>
        <pt x="412" y="1515" on="0"/>
        <pt x="412" y="1449" on="0"/>
        <pt x="450" y="1408" on="0"/>
        <pt x="516" y="1408" on="0"/>
        <pt x="559" y="1450" on="0"/>
        <pt x="559" y="1515" on="0"/>
      </contour>
      <contour>
        <pt x="80" y="1018" on="1"/>
        <pt x="267" y="1136" on="0"/>
        <pt x="662" y="1136" on="0"/>
        <pt x="863" y="931" on="0"/>
        <pt x="863" y="741" on="1"/>
        <pt x="863" y="0" on="1"/>
        <pt x="597" y="0" on="1"/>
        <pt x="565" y="90" on="1"/>
        <pt x="463" y="-19" on="0"/>
        <pt x="306" y="-19" on="1"/>
        <pt x="229" y="-19" on="0"/>
        <pt x="112" y="40" on="0"/>
        <pt x="78" y="91" on="1"/>
        <pt x="9" y="192" on="0"/>
        <pt x="9" y="337" on="1"/>
        <pt x="9" y="514" on="0"/>
        <pt x="213" y="691" on="0"/>
        <pt x="420" y="700" on="1"/>
        <pt x="522" y="704" on="1"/>
        <pt x="522" y="762" on="1"/>
        <pt x="522" y="891" on="0"/>
        <pt x="434" y="891" on="1"/>
        <pt x="359" y="891" on="0"/>
        <pt x="193" y="793" on="1"/>
      </contour>
      <contour>
        <pt x="522" y="433" on="1"/>
        <pt x="522" y="499" on="1"/>
        <pt x="510" y="498" on="0"/>
        <pt x="488" y="498" on="1"/>
        <pt x="358" y="487" on="0"/>
        <pt x="358" y="335" on="1"/>
        <pt x="358" y="223" on="0"/>
        <pt x="461" y="223" on="0"/>
        <pt x="522" y="338" on="0"/>
      </contour>
    </TTGlyph>
    <TTGlyph name="asciicircum" xMin="-41" yMin="511" xMax="1100" yMax="1470">
      <contour>
        <pt x="1100" y="511" on="1"/>
        <pt x="795" y="511" on="1"/>
        <pt x="510" y="1081" on="1"/>
        <pt x="260" y="511" on="1"/>
        <pt x="-41" y="511" on="1"/>
        <pt x="403" y="1470" on="1"/>
        <pt x="599" y="1470" on="1"/>
      </contour>
    </TTGlyph>
    <TTGlyph name="asciitilde" xMin="90" yMin="571" xMax="875" yMax="873">
      <contour>
        <pt x="670" y="572" on="1"/>
        <pt x="574" y="572" on="0"/>
        <pt x="352" y="664" on="0"/>
        <pt x="184" y="664" on="0"/>
        <pt x="90" y="571" on="1"/>
        <pt x="90" y="788" on="1"/>
        <pt x="171" y="872" on="0"/>
        <pt x="295" y="872" on="1"/>
        <pt x="346" y="872" on="0"/>
        <pt x="443" y="850" on="0"/>
        <pt x="613" y="780" on="0"/>
        <pt x="696" y="780" on="1"/>
        <pt x="735" y="780" on="0"/>
        <pt x="831" y="829" on="0"/>
        <pt x="875" y="873" on="1"/>
        <pt x="875" y="656" on="1"/>
        <pt x="794" y="572" on="0"/>
      </contour>
    </TTGlyph>
    <TTGlyph name="asterisk" xMin="52" yMin="702" xMax="931" yMax="1556">
      <contour>
        <pt x="590" y="1250" on="1"/>
        <pt x="899" y="1338" on="1"/>
        <pt x="931" y="1082" on="1"/>
        <pt x="658" y="1064" on="1"/>
        <pt x="838" y="822" on="1"/>
        <pt x="612" y="702" on="1"/>
        <pt x="488" y="948" on="1"/>
        <pt x="381" y="704" on="1"/>
        <pt x="145" y="822" on="1"/>
        <pt x="324" y="1064" on="1"/>
        <pt x="52" y="1085" on="1"/>
        <pt x="91" y="1338" on="1"/>
        <pt x="393" y="1250" on="1"/>
        <pt x="359" y="1556" on="1"/>
        <pt x="623" y="1556" on="1"/>
      </contour>
    </TTGlyph>
    <TTGlyph name="at" xMin="72" yMin="-163" xMax="1455" yMax="1477">
      <contour>
        <pt x="744" y="-163" on="1"/>
        <pt x="442" y="-163" on="0"/>
        <pt x="72" y="248" on="0"/>
        <pt x="72" y="598" on="1"/>
        <pt x="72" y="880" on="0"/>
        <pt x="201" y="1102" on="1"/>
        <pt x="338" y="1339" on="0"/>
        <pt x="559" y="1429" on="1"/>
        <pt x="677" y="1477" on="0"/>
        <pt x="940" y="1477" on="0"/>
        <pt x="1151" y="1406" on="0"/>
        <pt x="1302" y="1277" on="0"/>
        <pt x="1354" y="1186" on="1"/>
        <pt x="1455" y="1009" on="0"/>
        <pt x="1455" y="748" on="1"/>
        <pt x="1455" y="588" on="0"/>
        <pt x="1412" y="462" on="1"/>
        <pt x="1387" y="391" on="0"/>
        <pt x="1312" y="289" on="0"/>
        <pt x="1188" y="224" on="0"/>
        <pt x="1118" y="224" on="1"/>
        <pt x="978" y="224" on="0"/>
        <pt x="914" y="312" on="1"/>
        <pt x="837" y="224" on="0"/>
        <pt x="715" y="224" on="1"/>
        <pt x="572" y="224" on="0"/>
        <pt x="418" y="417" on="0"/>
        <pt x="418" y="608" on="1"/>
        <pt x="418" y="772" on="0"/>
        <pt x="478" y="894" on="1"/>
        <pt x="545" y="1028" on="0"/>
        <pt x="667" y="1078" on="1"/>
        <pt x="733" y="1105" on="0"/>
        <pt x="813" y="1105" on="1"/>
        <pt x="926" y="1105" on="0"/>
        <pt x="1083" y="1055" on="1"/>
        <pt x="1062" y="555" on="1"/>
        <pt x="1062" y="434" on="0"/>
        <pt x="1098" y="434" on="1"/>
        <pt x="1122" y="434" on="0"/>
        <pt x="1154" y="505" on="0"/>
        <pt x="1161" y="562" on="1"/>
        <pt x="1173" y="660" on="0"/>
        <pt x="1173" y="749" on="1"/>
        <pt x="1173" y="1001" on="0"/>
        <pt x="983" y="1260" on="0"/>
        <pt x="806" y="1260" on="1"/>
        <pt x="711" y="1260" on="0"/>
        <pt x="554" y="1175" on="0"/>
        <pt x="454" y="1040" on="0"/>
        <pt x="385" y="865" on="0"/>
        <pt x="356" y="692" on="0"/>
        <pt x="356" y="524" on="0"/>
        <pt x="382" y="370" on="0"/>
        <pt x="443" y="225" on="0"/>
        <pt x="534" y="118" on="0"/>
        <pt x="674" y="54" on="0"/>
        <pt x="760" y="54" on="1"/>
        <pt x="916" y="54" on="0"/>
        <pt x="1157" y="169" on="1"/>
        <pt x="1157" y="-63" on="1"/>
        <pt x="970" y="-163" on="0"/>
        <pt x="759" y="-163" on="1"/>
        <pt x="752" y="-163" on="0"/>
      </contour>
      <contour>
        <pt x="802" y="895" on="1"/>
        <pt x="774" y="895" on="0"/>
        <pt x="730" y="829" on="0"/>
        <pt x="718" y="780" on="1"/>
        <pt x="696" y="684" on="0"/>
        <pt x="696" y="527" on="0"/>
        <pt x="725" y="434" on="0"/>
        <pt x="747" y="434" on="1"/>
        <pt x="791" y="434" on="0"/>
        <pt x="807" y="684" on="1"/>
        <pt x="808" y="703" on="0"/>
        <pt x="817" y="852" on="0"/>
        <pt x="819" y="894" on="1"/>
        <pt x="815" y="895" on="0"/>
      </contour>
    </TTGlyph>
    <TTGlyph name="atilde" xMin="9" yMin="-19" xMax="863" yMax="1540">
      <contour>
        <pt x="634" y="1239" on="1"/>
        <pt x="578" y="1239" on="0"/>
        <pt x="373" y="1324" on="0"/>
        <pt x="331" y="1324" on="1"/>
        <pt x="285" y="1324" on="0"/>
        <pt x="268" y="1238" on="1"/>
        <pt x="110" y="1238" on="1"/>
        <pt x="119" y="1392" on="0"/>
        <pt x="227" y="1539" on="0"/>
        <pt x="331" y="1539" on="1"/>
        <pt x="376" y="1539" on="0"/>
        <pt x="582" y="1454" on="0"/>
        <pt x="673" y="1454" on="0"/>
        <pt x="690" y="1540" on="1"/>
        <pt x="850" y="1540" on="1"/>
        <pt x="841" y="1393" on="0"/>
        <pt x="730" y="1239" on="0"/>
      </contour>
      <contour>
        <pt x="80" y="1018" on="1"/>
        <pt x="267" y="1136" on="0"/>
        <pt x="662" y="1136" on="0"/>
        <pt x="863" y="931" on="0"/>
        <pt x="863" y="741" on="1"/>
        <pt x="863" y="0" on="1"/>
        <pt x="597" y="0" on="1"/>
        <pt x="565" y="90" on="1"/>
        <pt x="463" y="-19" on="0"/>
        <pt x="306" y="-19" on="1"/>
        <pt x="229" y="-19" on="0"/>
        <pt x="112" y="40" on="0"/>
        <pt x="78" y="91" on="1"/>
        <pt x="9" y="192" on="0"/>
        <pt x="9" y="337" on="1"/>
        <pt x="9" y="514" on="0"/>
        <pt x="213" y="691" on="0"/>
        <pt x="420" y="700" on="1"/>
        <pt x="522" y="704" on="1"/>
        <pt x="522" y="762" on="1"/>
        <pt x="522" y="891" on="0"/>
        <pt x="434" y="891" on="1"/>
        <pt x="359" y="891" on="0"/>
        <pt x="193" y="793" on="1"/>
      </contour>
      <contour>
        <pt x="522" y="433" on="1"/>
        <pt x="522" y="499" on="1"/>
        <pt x="510" y="498" on="0"/>
        <pt x="488" y="498" on="1"/>
        <pt x="358" y="487" on="0"/>
        <pt x="358" y="335" on="1"/>
        <pt x="358" y="223" on="0"/>
        <pt x="461" y="223" on="0"/>
        <pt x="522" y="338" on="0"/>
      </contour>
    </TTGlyph>
    <TTGlyph name="b" xMin="125" yMin="-19" xMax="1008" yMax="1539">
      <contour>
        <pt x="466" y="1539" on="1"/>
        <pt x="466" y="1168" on="1"/>
        <pt x="466" y="1137" on="0"/>
        <pt x="465" y="1121" on="1"/>
        <pt x="461" y="1066" on="1"/>
        <pt x="535" y="1134" on="0"/>
        <pt x="652" y="1134" on="1"/>
        <pt x="830" y="1134" on="0"/>
        <pt x="918" y="978" on="1"/>
        <pt x="1008" y="824" on="0"/>
        <pt x="1008" y="297" on="0"/>
        <pt x="917" y="137" on="1"/>
        <pt x="872" y="63" on="0"/>
        <pt x="732" y="-19" on="0"/>
        <pt x="648" y="-19" on="1"/>
        <pt x="503" y="-19" on="0"/>
        <pt x="419" y="79" on="1"/>
        <pt x="391" y="0" on="1"/>
        <pt x="125" y="0" on="1"/>
        <pt x="125" y="1539" on="1"/>
      </contour>
      <contour>
        <pt x="466" y="561" on="1"/>
        <pt x="466" y="376" on="0"/>
        <pt x="522" y="243" on="0"/>
        <pt x="565" y="243" on="1"/>
        <pt x="661" y="243" on="0"/>
        <pt x="661" y="875" on="0"/>
        <pt x="563" y="875" on="1"/>
        <pt x="524" y="875" on="0"/>
        <pt x="496" y="818" on="1"/>
        <pt x="468" y="758" on="0"/>
        <pt x="466" y="587" on="1"/>
      </contour>
    </TTGlyph>
    <TTGlyph name="backslash" xMin="-41" yMin="0" xMax="840" yMax="1462">
      <contour>
        <pt x="840" y="0" on="1"/>
        <pt x="504" y="0" on="1"/>
        <pt x="-41" y="1462" on="1"/>
        <pt x="295" y="1462" on="1"/>
      </contour>
    </TTGlyph>
    <TTGlyph name="bar" xMin="377" yMin="-457" xMax="663" yMax="1549">
      <contour>
        <pt x="663" y="-457" on="1"/>
        <pt x="377" y="-457" on="1"/>
        <pt x="377" y="1549" on="1"/>
        <pt x="663" y="1549" on="1"/>
      </contour>
    </TTGlyph>
    <TTGlyph name="betdageshhb" xMin="60" yMin="0" xMax="932" yMax="1310">
      <contour>
        <pt x="60" y="1282" on="1"/>
        <pt x="211" y="1310" on="0"/>
        <pt x="450" y="1310" on="0"/>
        <pt x="593" y="1285" on="0"/>
        <pt x="691" y="1229" on="0"/>
        <pt x="754" y="1157" on="0"/>
        <pt x="772" y="1102" on="1"/>
        <pt x="802" y="1008" on="0"/>
        <pt x="802" y="853" on="1"/>
        <pt x="802" y="251" on="1"/>
        <pt x="932" y="251" on="1"/>
        <pt x="932" y="0" on="1"/>
        <pt x="60" y="0" on="1"/>
        <pt x="60" y="251" on="1"/>
        <pt x="457" y="251" on="1"/>
        <pt x="457" y="854" on="1"/>
        <pt x="457" y="970" on="0"/>
        <pt x="388" y="1057" on="0"/>
        <pt x="299" y="1057" on="1"/>
        <pt x="239" y="1057" on="0"/>
        <pt x="119" y="1044" on="0"/>
        <pt x="90" y="1037" on="1"/>
        <pt x="60" y="1030" on="1"/>
      </contour>
      <contour>
        <pt x="227" y="722" on="0"/>
        <pt x="293" y="722" on="0"/>
        <pt x="331" y="686" on="0"/>
        <pt x="331" y="627" on="0"/>
        <pt x="293" y="592" on="0"/>
        <pt x="227" y="592" on="0"/>
        <pt x="190" y="627" on="0"/>
        <pt x="190" y="687" on="0"/>
      </contour>
    </TTGlyph>
    <TTGlyph name="braceleft" xMin="51" yMin="-316" xMax="796" yMax="1463">
      <contour>
        <pt x="627" y="1095" on="1"/>
        <pt x="627" y="801" on="1"/>
        <pt x="624" y="628" on="0"/>
        <pt x="438" y="574" on="1"/>
        <pt x="627" y="521" on="0"/>
        <pt x="627" y="359" on="1"/>
        <pt x="627" y="53" on="1"/>
        <pt x="627" y="-16" on="0"/>
        <pt x="648" y="-36" on="1"/>
        <pt x="679" y="-63" on="0"/>
        <pt x="796" y="-68" on="1"/>
        <pt x="796" y="-316" on="1"/>
        <pt x="517" y="-312" on="0"/>
        <pt x="305" y="-187" on="0"/>
        <pt x="301" y="-19" on="1"/>
        <pt x="301" y="289" on="1"/>
        <pt x="301" y="371" on="0"/>
        <pt x="175" y="444" on="0"/>
        <pt x="51" y="444" on="1"/>
        <pt x="51" y="703" on="1"/>
        <pt x="301" y="703" on="0"/>
        <pt x="301" y="848" on="1"/>
        <pt x="301" y="1167" on="1"/>
        <pt x="303" y="1334" on="0"/>
        <pt x="517" y="1458" on="0"/>
        <pt x="796" y="1463" on="1"/>
        <pt x="796" y="1215" on="1"/>
        <pt x="679" y="1212" on="0"/>
        <pt x="649" y="1183" on="1"/>
        <pt x="627" y="1165" on="0"/>
      </contour>
    </TTGlyph>
    <TTGlyph name="braceright" xMin="56" yMin="-315" xMax="801" yMax="1462">
      <contour>
        <pt x="56" y="1462" on="1"/>
        <pt x="347" y="1462" on="0"/>
        <pt x="442" y="1396" on="1"/>
        <pt x="441" y="1396" on="1"/>
        <pt x="553" y="1320" on="0"/>
        <pt x="553" y="1167" on="1"/>
        <pt x="553" y="848" on="1"/>
        <pt x="553" y="772" on="0"/>
        <pt x="677" y="703" on="0"/>
        <pt x="801" y="703" on="1"/>
        <pt x="801" y="444" on="1"/>
        <pt x="676" y="444" on="0"/>
        <pt x="553" y="372" on="0"/>
        <pt x="553" y="289" on="1"/>
        <pt x="553" y="-18" on="1"/>
        <pt x="553" y="-174" on="0"/>
        <pt x="440" y="-249" on="1"/>
        <pt x="441" y="-249" on="1"/>
        <pt x="344" y="-315" on="0"/>
        <pt x="56" y="-315" on="1"/>
        <pt x="56" y="-68" on="1"/>
        <pt x="173" y="-63" on="0"/>
        <pt x="204" y="-36" on="1"/>
        <pt x="227" y="-16" on="0"/>
        <pt x="227" y="53" on="1"/>
        <pt x="227" y="356" on="1"/>
        <pt x="227" y="519" on="0"/>
        <pt x="417" y="574" on="1"/>
        <pt x="230" y="628" on="0"/>
        <pt x="227" y="800" on="1"/>
        <pt x="227" y="1095" on="1"/>
        <pt x="227" y="1165" on="0"/>
        <pt x="204" y="1184" on="1"/>
        <pt x="175" y="1212" on="0"/>
        <pt x="56" y="1215" on="1"/>
      </contour>
    </TTGlyph>
    <TTGlyph name="bracketleft" xMin="82" yMin="-315" xMax="622" yMax="1462">
      <contour>
        <pt x="622" y="1227" on="1"/>
        <pt x="406" y="1227" on="1"/>
        <pt x="406" y="-79" on="1"/>
        <pt x="622" y="-79" on="1"/>
        <pt x="622" y="-315" on="1"/>
        <pt x="82" y="-315" on="1"/>
        <pt x="82" y="1462" on="1"/>
        <pt x="622" y="1462" on="1"/>
      </contour>
    </TTGlyph>
    <TTGlyph name="bracketright" xMin="-3" yMin="-315" xMax="538" yMax="1462">
      <contour>
        <pt x="538" y="-315" on="1"/>
        <pt x="-3" y="-315" on="1"/>
        <pt x="-3" y="-79" on="1"/>
        <pt x="214" y="-79" on="1"/>
        <pt x="214" y="1227" on="1"/>
        <pt x="-3" y="1227" on="1"/>
        <pt x="-3" y="1462" on="1"/>
        <pt x="538" y="1462" on="1"/>
      </contour>
    </TTGlyph>
    <TTGlyph name="breve" xMin="242" yMin="1241" xMax="862" yMax="1567">
      <contour>
        <pt x="851" y="1410" on="0"/>
        <pt x="688" y="1241" on="0"/>
        <pt x="404" y="1241" on="0"/>
        <pt x="248" y="1410" on="0"/>
        <pt x="242" y="1567" on="1"/>
        <pt x="402" y="1567" on="1"/>
        <pt x="410" y="1496" on="0"/>
        <pt x="438" y="1469" on="1"/>
        <pt x="468" y="1442" on="0"/>
        <pt x="629" y="1442" on="0"/>
        <pt x="690" y="1497" on="0"/>
        <pt x="701" y="1567" on="1"/>
        <pt x="862" y="1567" on="1"/>
      </contour>
    </TTGlyph>
    <TTGlyph name="brokenbar" xMin="359" yMin="-457" xMax="645" yMax="1549">
      <contour>
        <pt x="645" y="721" on="1"/>
        <pt x="359" y="721" on="1"/>
        <pt x="359" y="1549" on="1"/>
        <pt x="645" y="1549" on="1"/>
      </contour>
      <contour>
        <pt x="645" y="-457" on="1"/>
        <pt x="359" y="-457" on="1"/>
        <pt x="359" y="371" on="1"/>
        <pt x="645" y="371" on="1"/>
      </contour>
    </TTGlyph>
    <TTGlyph name="bullet" xMin="48" yMin="427" xMax="670" yMax="1067">
      <contour>
        <pt x="48" y="901" on="0"/>
        <pt x="210" y="1067" on="0"/>
        <pt x="508" y="1067" on="0"/>
        <pt x="670" y="900" on="0"/>
        <pt x="670" y="597" on="0"/>
        <pt x="506" y="427" on="0"/>
        <pt x="210" y="427" on="0"/>
        <pt x="48" y="595" on="0"/>
      </contour>
    </TTGlyph>
    <TTGlyph name="c" xMin="76" yMin="-19" xMax="792" yMax="1134">
      <contour>
        <pt x="510" y="-19" on="1"/>
        <pt x="298" y="-19" on="0"/>
        <pt x="76" y="271" on="0"/>
        <pt x="76" y="846" on="0"/>
        <pt x="287" y="1134" on="0"/>
        <pt x="507" y="1134" on="1"/>
        <pt x="576" y="1134" on="0"/>
        <pt x="730" y="1091" on="0"/>
        <pt x="792" y="1051" on="1"/>
        <pt x="701" y="800" on="1"/>
        <pt x="580" y="873" on="0"/>
        <pt x="534" y="873" on="1"/>
        <pt x="476" y="873" on="0"/>
        <pt x="423" y="715" on="0"/>
        <pt x="423" y="395" on="0"/>
        <pt x="475" y="243" on="0"/>
        <pt x="533" y="243" on="1"/>
        <pt x="610" y="243" on="0"/>
        <pt x="776" y="349" on="1"/>
        <pt x="776" y="59" on="1"/>
        <pt x="650" y="-19" on="0"/>
      </contour>
    </TTGlyph>
    <TTGlyph name="caron" xMin="154" yMin="1281" xMax="953" yMax="1569">
      <contour>
        <pt x="953" y="1544" on="1"/>
        <pt x="805" y="1396" on="0"/>
        <pt x="727" y="1281" on="1"/>
        <pt x="381" y="1281" on="1"/>
        <pt x="348" y="1332" on="0"/>
        <pt x="219" y="1482" on="0"/>
        <pt x="154" y="1544" on="1"/>
        <pt x="154" y="1569" on="1"/>
        <pt x="381" y="1569" on="1"/>
        <pt x="442" y="1532" on="0"/>
        <pt x="552" y="1437" on="1"/>
        <pt x="656" y="1527" on="0"/>
        <pt x="729" y="1569" on="1"/>
        <pt x="953" y="1569" on="1"/>
      </contour>
    </TTGlyph>
    <TTGlyph name="ccedilla" xMin="26" yMin="-431" xMax="742" yMax="1134">
      <contour>
        <pt x="484" y="873" on="1"/>
        <pt x="426" y="873" on="0"/>
        <pt x="373" y="715" on="0"/>
        <pt x="373" y="395" on="0"/>
        <pt x="425" y="243" on="0"/>
        <pt x="483" y="243" on="1"/>
        <pt x="560" y="243" on="0"/>
        <pt x="726" y="349" on="1"/>
        <pt x="726" y="59" on="1"/>
        <pt x="611" y="-12" on="0"/>
        <pt x="487" y="-18" on="1"/>
        <pt x="485" y="-24" on="1"/>
        <pt x="511" y="-27" on="0"/>
        <pt x="575" y="-68" on="0"/>
        <pt x="616" y="-109" on="0"/>
        <pt x="645" y="-178" on="0"/>
        <pt x="645" y="-219" on="1"/>
        <pt x="645" y="-431" on="0"/>
        <pt x="391" y="-431" on="1"/>
        <pt x="356" y="-431" on="0"/>
        <pt x="274" y="-413" on="0"/>
        <pt x="250" y="-404" on="1"/>
        <pt x="227" y="-395" on="1"/>
        <pt x="227" y="-226" on="1"/>
        <pt x="301" y="-255" on="0"/>
        <pt x="416" y="-255" on="0"/>
        <pt x="416" y="-207" on="1"/>
        <pt x="416" y="-180" on="0"/>
        <pt x="351" y="-134" on="0"/>
        <pt x="318" y="-124" on="1"/>
        <pt x="286" y="-114" on="1"/>
        <pt x="328" y="-30" on="0"/>
        <pt x="341" y="-6" on="1"/>
        <pt x="187" y="32" on="0"/>
        <pt x="26" y="314" on="0"/>
        <pt x="26" y="551" on="1"/>
        <pt x="26" y="846" on="0"/>
        <pt x="237" y="1134" on="0"/>
        <pt x="457" y="1134" on="1"/>
        <pt x="526" y="1134" on="0"/>
        <pt x="680" y="1091" on="0"/>
        <pt x="742" y="1051" on="1"/>
        <pt x="651" y="800" on="1"/>
        <pt x="530" y="873" on="0"/>
      </contour>
    </TTGlyph>
    <TTGlyph name="cedilla" xMin="-19" yMin="-431" xMax="399" yMax="1">
      <contour>
        <pt x="399" y="-219" on="1"/>
        <pt x="399" y="-431" on="0"/>
        <pt x="145" y="-431" on="1"/>
        <pt x="110" y="-431" on="0"/>
        <pt x="28" y="-413" on="0"/>
        <pt x="4" y="-404" on="1"/>
        <pt x="-19" y="-395" on="1"/>
        <pt x="-19" y="-226" on="1"/>
        <pt x="55" y="-255" on="0"/>
        <pt x="170" y="-255" on="0"/>
        <pt x="170" y="-207" on="1"/>
        <pt x="170" y="-180" on="0"/>
        <pt x="105" y="-134" on="0"/>
        <pt x="72" y="-124" on="1"/>
        <pt x="40" y="-114" on="1"/>
        <pt x="98" y="1" on="0"/>
        <pt x="99" y="1" on="1"/>
        <pt x="247" y="1" on="1"/>
        <pt x="239" y="-24" on="1"/>
        <pt x="265" y="-27" on="0"/>
        <pt x="329" y="-68" on="0"/>
        <pt x="370" y="-109" on="0"/>
        <pt x="399" y="-178" on="0"/>
      </contour>
    </TTGlyph>
    <TTGlyph name="cent" xMin="97" yMin="-19" xMax="823" yMax="1479">
      <contour>
        <pt x="634" y="1479" on="1"/>
        <pt x="634" y="1316" on="1"/>
        <pt x="727" y="1297" on="0"/>
        <pt x="823" y="1243" on="1"/>
        <pt x="728" y="989" on="1"/>
        <pt x="603" y="1062" on="0"/>
        <pt x="560" y="1062" on="1"/>
        <pt x="501" y="1062" on="0"/>
        <pt x="447" y="905" on="0"/>
        <pt x="447" y="581" on="0"/>
        <pt x="500" y="426" on="0"/>
        <pt x="558" y="426" on="1"/>
        <pt x="637" y="426" on="0"/>
        <pt x="803" y="536" on="1"/>
        <pt x="803" y="243" on="1"/>
        <pt x="717" y="188" on="0"/>
        <pt x="634" y="172" on="1"/>
        <pt x="634" y="-19" on="1"/>
        <pt x="387" y="-19" on="1"/>
        <pt x="387" y="185" on="1"/>
        <pt x="97" y="291" on="0"/>
        <pt x="97" y="737" on="1"/>
        <pt x="97" y="967" on="0"/>
        <pt x="245" y="1255" on="0"/>
        <pt x="387" y="1306" on="1"/>
        <pt x="387" y="1479" on="1"/>
      </contour>
    </TTGlyph>
    <TTGlyph name="circumflex" xMin="148" yMin="1279" xMax="947" yMax="1567">
      <contour>
        <pt x="947" y="1279" on="1"/>
        <pt x="723" y="1279" on="1"/>
        <pt x="650" y="1321" on="0"/>
        <pt x="546" y="1411" on="1"/>
        <pt x="436" y="1316" on="0"/>
        <pt x="375" y="1279" on="1"/>
        <pt x="148" y="1279" on="1"/>
        <pt x="148" y="1304" on="1"/>
        <pt x="205" y="1357" on="0"/>
        <pt x="341" y="1514" on="0"/>
        <pt x="375" y="1567" on="1"/>
        <pt x="721" y="1567" on="1"/>
        <pt x="802" y="1449" on="0"/>
        <pt x="947" y="1304" on="1"/>
      </contour>
    </TTGlyph>
    <TTGlyph name="colon" xMin="76" yMin="-26" xMax="445" yMax="1146">
      <contour>
        <pt x="76" y="1055" on="0"/>
        <pt x="163" y="1146" on="0"/>
        <pt x="358" y="1146" on="0"/>
        <pt x="445" y="1055" on="0"/>
        <pt x="445" y="965" on="1"/>
        <pt x="445" y="785" on="0"/>
        <pt x="260" y="785" on="1"/>
        <pt x="163" y="785" on="0"/>
        <pt x="76" y="877" on="0"/>
      </contour>
      <contour>
        <pt x="76" y="244" on="0"/>
        <pt x="163" y="335" on="0"/>
        <pt x="358" y="335" on="0"/>
        <pt x="445" y="244" on="0"/>
        <pt x="445" y="154" on="1"/>
        <pt x="445" y="-26" on="0"/>
        <pt x="260" y="-26" on="1"/>
        <pt x="163" y="-26" on="0"/>
        <pt x="76" y="66" on="0"/>
      </contour>
    </TTGlyph>
    <TTGlyph name="comma" xMin="47" yMin="-256" xMax="507" yMax="274">
      <contour>
        <pt x="480" y="274" on="1"/>
        <pt x="507" y="230" on="1"/>
        <pt x="456" y="34" on="0"/>
        <pt x="326" y="-256" on="1"/>
        <pt x="47" y="-256" on="1"/>
        <pt x="119" y="36" on="0"/>
        <pt x="155" y="274" on="1"/>
      </contour>
    </TTGlyph>
    <TTGlyph name="copyright" xMin="172" yMin="70" xMax="1495" yMax="1393">
      <contour>
        <pt x="657" y="1393" on="0"/>
        <pt x="1007" y="1393" on="0"/>
        <pt x="1312" y="1221" on="0"/>
        <pt x="1495" y="913" on="0"/>
        <pt x="1495" y="552" on="0"/>
        <pt x="1317" y="247" on="0"/>
        <pt x="1014" y="70" on="0"/>
        <pt x="652" y="70" on="0"/>
        <pt x="344" y="252" on="0"/>
        <pt x="172" y="558" on="0"/>
        <pt x="172" y="907" on="0"/>
        <pt x="349" y="1216" on="0"/>
      </contour>
      <contour>
        <pt x="1095" y="1178" on="1"/>
        <pt x="976" y="1248" on="0"/>
        <pt x="695" y="1248" on="0"/>
        <pt x="456" y="1110" on="0"/>
        <pt x="385" y="990" on="1"/>
        <pt x="316" y="870" on="0"/>
        <pt x="316" y="592" on="0"/>
        <pt x="457" y="349" on="0"/>
        <pt x="697" y="214" on="0"/>
        <pt x="974" y="214" on="0"/>
        <pt x="1212" y="352" on="0"/>
        <pt x="1281" y="472" on="1"/>
        <pt x="1351" y="591" on="0"/>
        <pt x="1351" y="868" on="0"/>
        <pt x="1216" y="1109" on="0"/>
      </contour>
      <contour>
        <pt x="865" y="318" on="1"/>
        <pt x="678" y="318" on="0"/>
        <pt x="575" y="427" on="1"/>
        <pt x="473" y="536" on="0"/>
        <pt x="473" y="926" on="0"/>
        <pt x="572" y="1034" on="1"/>
        <pt x="672" y="1142" on="0"/>
        <pt x="855" y="1142" on="1"/>
        <pt x="1002" y="1142" on="0"/>
        <pt x="1138" y="1073" on="1"/>
        <pt x="1057" y="893" on="1"/>
        <pt x="965" y="942" on="0"/>
        <pt x="872" y="942" on="1"/>
        <pt x="799" y="942" on="0"/>
        <pt x="720" y="834" on="0"/>
        <pt x="720" y="619" on="0"/>
        <pt x="796" y="518" on="0"/>
        <pt x="877" y="518" on="1"/>
        <pt x="998" y="518" on="0"/>
        <pt x="1104" y="578" on="1"/>
        <pt x="1104" y="375" on="1"/>
        <pt x="993" y="318" on="0"/>
      </contour>
    </TTGlyph>
    <TTGlyph name="currency" xMin="40" yMin="229" xMax="1036" yMax="1220">
      <contour>
        <pt x="351" y="1087" on="1"/>
        <pt x="435" y="1126" on="0"/>
        <pt x="641" y="1126" on="0"/>
        <pt x="721" y="1086" on="1"/>
        <pt x="854" y="1219" on="1"/>
        <pt x="1036" y="1046" on="1"/>
        <pt x="909" y="918" on="1"/>
        <pt x="961" y="824" on="0"/>
        <pt x="961" y="617" on="0"/>
        <pt x="909" y="528" on="1"/>
        <pt x="1032" y="405" on="1"/>
        <pt x="856" y="229" on="1"/>
        <pt x="721" y="361" on="1"/>
        <pt x="637" y="322" on="0"/>
        <pt x="440" y="322" on="0"/>
        <pt x="349" y="358" on="1"/>
        <pt x="218" y="230" on="1"/>
        <pt x="42" y="407" on="1"/>
        <pt x="166" y="530" on="1"/>
        <pt x="113" y="621" on="0"/>
        <pt x="113" y="817" on="0"/>
        <pt x="166" y="916" on="1"/>
        <pt x="103" y="979" on="0"/>
        <pt x="40" y="1042" on="1"/>
        <pt x="218" y="1220" on="1"/>
      </contour>
      <contour>
        <pt x="647" y="846" on="1"/>
        <pt x="596" y="897" on="0"/>
        <pt x="480" y="897" on="0"/>
        <pt x="430" y="847" on="1"/>
        <pt x="386" y="801" on="0"/>
        <pt x="386" y="646" on="0"/>
        <pt x="481" y="551" on="0"/>
        <pt x="596" y="551" on="0"/>
        <pt x="691" y="646" on="0"/>
        <pt x="691" y="800" on="0"/>
      </contour>
    </TTGlyph>
    <TTGlyph name="d" xMin="76" yMin="-19" xMax="960" yMax="1539">
      <contour>
        <pt x="960" y="0" on="1"/>
        <pt x="692" y="0" on="1"/>
        <pt x="666" y="81" on="1"/>
        <pt x="581" y="-19" on="0"/>
        <pt x="438" y="-19" on="1"/>
        <pt x="353" y="-19" on="0"/>
        <pt x="220" y="59" on="0"/>
        <pt x="143" y="177" on="0"/>
        <pt x="118" y="257" on="1"/>
        <pt x="76" y="391" on="0"/>
        <pt x="76" y="555" on="1"/>
        <pt x="76" y="686" on="0"/>
        <pt x="104" y="812" on="1"/>
        <pt x="133" y="945" on="0"/>
        <pt x="211" y="1038" on="1"/>
        <pt x="249" y="1083" on="0"/>
        <pt x="363" y="1134" on="0"/>
        <pt x="433" y="1134" on="1"/>
        <pt x="551" y="1134" on="0"/>
        <pt x="623" y="1066" on="1"/>
        <pt x="620" y="1126" on="0"/>
        <pt x="620" y="1160" on="1"/>
        <pt x="620" y="1539" on="1"/>
        <pt x="960" y="1539" on="1"/>
      </contour>
      <contour>
        <pt x="518" y="871" on="1"/>
        <pt x="424" y="871" on="0"/>
        <pt x="424" y="551" on="1"/>
        <pt x="424" y="393" on="0"/>
        <pt x="471" y="240" on="0"/>
        <pt x="521" y="240" on="1"/>
        <pt x="556" y="240" on="0"/>
        <pt x="599" y="280" on="0"/>
        <pt x="615" y="378" on="0"/>
        <pt x="618" y="446" on="0"/>
        <pt x="618" y="494" on="1"/>
        <pt x="618" y="494" on="0"/>
        <pt x="618" y="553" on="1"/>
        <pt x="618" y="712" on="0"/>
        <pt x="599" y="787" on="0"/>
        <pt x="588" y="816" on="1"/>
        <pt x="568" y="871" on="0"/>
      </contour>
    </TTGlyph>
    <TTGlyph name="dagger" xMin="103" yMin="0" xMax="901" yMax="1556">
      <contour>
        <pt x="570" y="1139" on="1"/>
        <pt x="901" y="1169" on="1"/>
        <pt x="901" y="940" on="1"/>
        <pt x="570" y="971" on="1"/>
        <pt x="625" y="0" on="1"/>
        <pt x="359" y="0" on="1"/>
        <pt x="414" y="971" on="1"/>
        <pt x="103" y="940" on="1"/>
        <pt x="103" y="1169" on="1"/>
        <pt x="414" y="1139" on="1"/>
        <pt x="359" y="1556" on="1"/>
        <pt x="625" y="1556" on="1"/>
      </contour>
    </TTGlyph>
    <TTGlyph name="daggerdbl" xMin="92" yMin="0" xMax="912" yMax="1556">
      <contour>
        <pt x="580" y="1180" on="1"/>
        <pt x="912" y="1210" on="1"/>
        <pt x="912" y="981" on="1"/>
        <pt x="580" y="1012" on="1"/>
        <pt x="627" y="786" on="1"/>
        <pt x="580" y="545" on="1"/>
        <pt x="912" y="575" on="1"/>
        <pt x="912" y="346" on="1"/>
        <pt x="580" y="377" on="1"/>
        <pt x="635" y="0" on="1"/>
        <pt x="369" y="0" on="1"/>
        <pt x="424" y="377" on="1"/>
        <pt x="92" y="346" on="1"/>
        <pt x="92" y="575" on="1"/>
        <pt x="424" y="545" on="1"/>
        <pt x="377" y="786" on="1"/>
        <pt x="424" y="1012" on="1"/>
        <pt x="92" y="981" on="1"/>
        <pt x="92" y="1210" on="1"/>
        <pt x="424" y="1180" on="1"/>
        <pt x="369" y="1556" on="1"/>
        <pt x="635" y="1556" on="1"/>
      </contour>
    </TTGlyph>
    <TTGlyph name="daletdageshhb" xMin="27" yMin="0" xMax="888" yMax="1290">
      <contour>
        <pt x="888" y="1290" on="1"/>
        <pt x="888" y="1062" on="1"/>
        <pt x="740" y="1008" on="0"/>
        <pt x="740" y="811" on="1"/>
        <pt x="740" y="0" on="1"/>
        <pt x="397" y="0" on="1"/>
        <pt x="397" y="818" on="1"/>
        <pt x="397" y="960" on="0"/>
        <pt x="507" y="1039" on="1"/>
        <pt x="27" y="1039" on="1"/>
        <pt x="27" y="1290" on="1"/>
      </contour>
      <contour>
        <pt x="174" y="722" on="0"/>
        <pt x="240" y="722" on="0"/>
        <pt x="278" y="686" on="0"/>
        <pt x="278" y="627" on="0"/>
        <pt x="240" y="592" on="0"/>
        <pt x="174" y="592" on="0"/>
        <pt x="137" y="627" on="0"/>
        <pt x="137" y="687" on="0"/>
      </contour>
    </TTGlyph>
    <TTGlyph name="degree" xMin="53" yMin="783" xMax="752" yMax="1482">
      <contour>
        <pt x="257" y="1482" on="0"/>
        <pt x="547" y="1482" on="0"/>
        <pt x="752" y="1277" on="0"/>
        <pt x="752" y="987" on="0"/>
        <pt x="547" y="783" on="0"/>
        <pt x="257" y="783" on="0"/>
        <pt x="53" y="987" on="0"/>
        <pt x="53" y="1277" on="0"/>
      </contour>
      <contour>
        <pt x="459" y="1269" on="0"/>
        <pt x="345" y="1269" on="0"/>
        <pt x="265" y="1189" on="0"/>
        <pt x="265" y="1075" on="0"/>
        <pt x="345" y="995" on="0"/>
        <pt x="459" y="995" on="0"/>
        <pt x="539" y="1075" on="0"/>
        <pt x="539" y="1189" on="0"/>
      </contour>
    </TTGlyph>
    <TTGlyph name="dieresis" xMin="197" yMin="1275" xMax="924" yMax="1554">
      <contour>
        <pt x="197" y="1480" on="0"/>
        <pt x="277" y="1554" on="0"/>
        <pt x="419" y="1554" on="0"/>
        <pt x="501" y="1477" on="0"/>
        <pt x="501" y="1350" on="0"/>
        <pt x="419" y="1275" on="0"/>
        <pt x="277" y="1275" on="0"/>
        <pt x="197" y="1348" on="0"/>
      </contour>
      <contour>
        <pt x="620" y="1480" on="0"/>
        <pt x="700" y="1554" on="0"/>
        <pt x="842" y="1554" on="0"/>
        <pt x="924" y="1477" on="0"/>
        <pt x="924" y="1350" on="0"/>
        <pt x="842" y="1275" on="0"/>
        <pt x="700" y="1275" on="0"/>
        <pt x="620" y="1348" on="0"/>
      </contour>
    </TTGlyph>
    <TTGlyph name="divide" xMin="57" yMin="220" xMax="827" yMax="1224">
      <contour>
        <pt x="440" y="1224" on="1"/>
        <pt x="520" y="1224" on="0"/>
        <pt x="602" y="1141" on="0"/>
        <pt x="602" y="986" on="0"/>
        <pt x="516" y="899" on="0"/>
        <pt x="365" y="899" on="0"/>
        <pt x="276" y="979" on="0"/>
        <pt x="276" y="1061" on="1"/>
        <pt x="276" y="1224" on="0"/>
      </contour>
      <contour>
        <pt x="827" y="600" on="1"/>
        <pt x="57" y="600" on="1"/>
        <pt x="57" y="844" on="1"/>
        <pt x="827" y="844" on="1"/>
      </contour>
      <contour>
        <pt x="440" y="546" on="1"/>
        <pt x="520" y="546" on="0"/>
        <pt x="602" y="462" on="0"/>
        <pt x="602" y="307" on="0"/>
        <pt x="516" y="220" on="0"/>
        <pt x="365" y="220" on="0"/>
        <pt x="276" y="301" on="0"/>
        <pt x="276" y="383" on="1"/>
        <pt x="276" y="546" on="0"/>
      </contour>
    </TTGlyph>
    <TTGlyph name="dollar" xMin="70" yMin="-116" xMax="929" yMax="1554">
      <contour>
        <pt x="593" y="1554" on="1"/>
        <pt x="593" y="1396" on="1"/>
        <pt x="744" y="1378" on="0"/>
        <pt x="896" y="1301" on="1"/>
        <pt x="803" y="1053" on="1"/>
        <pt x="668" y="1121" on="0"/>
        <pt x="617" y="1132" on="1"/>
        <pt x="554" y="1145" on="0"/>
        <pt x="461" y="1145" on="0"/>
        <pt x="403" y="1123" on="0"/>
        <pt x="390" y="1105" on="1"/>
        <pt x="367" y="1073" on="0"/>
        <pt x="367" y="1006" on="0"/>
        <pt x="419" y="940" on="0"/>
        <pt x="466" y="917" on="1"/>
        <pt x="728" y="789" on="1"/>
        <pt x="801" y="754" on="0"/>
        <pt x="895" y="639" on="0"/>
        <pt x="929" y="526" on="0"/>
        <pt x="929" y="464" on="1"/>
        <pt x="929" y="307" on="0"/>
        <pt x="758" y="117" on="0"/>
        <pt x="593" y="93" on="1"/>
        <pt x="593" y="-116" on="1"/>
        <pt x="402" y="-116" on="1"/>
        <pt x="402" y="86" on="1"/>
        <pt x="222" y="98" on="0"/>
        <pt x="70" y="179" on="1"/>
        <pt x="70" y="473" on="1"/>
        <pt x="336" y="317" on="0"/>
        <pt x="497" y="317" on="1"/>
        <pt x="539" y="317" on="0"/>
        <pt x="596" y="346" on="0"/>
        <pt x="608" y="370" on="1"/>
        <pt x="631" y="413" on="0"/>
        <pt x="631" y="458" on="1"/>
        <pt x="631" y="519" on="0"/>
        <pt x="574" y="549" on="1"/>
        <pt x="390" y="645" on="1"/>
        <pt x="313" y="683" on="0"/>
        <pt x="211" y="748" on="0"/>
        <pt x="164" y="794" on="1"/>
        <pt x="70" y="886" on="0"/>
        <pt x="70" y="1182" on="0"/>
        <pt x="242" y="1366" on="0"/>
        <pt x="402" y="1392" on="1"/>
        <pt x="402" y="1554" on="1"/>
      </contour>
    </TTGlyph>
    <TTGlyph name="dotaccent" xMin="121" yMin="1262" xMax="428" yMax="1548">
      <contour>
        <pt x="121" y="1262" on="0"/>
        <pt x="121" y="1548" on="0"/>
        <pt x="428" y="1548" on="0"/>
        <pt x="428" y="1405" on="1"/>
        <pt x="428" y="1335" on="0"/>
        <pt x="349" y="1262" on="0"/>
        <pt x="275" y="1262" on="1"/>
      </contour>
    </TTGlyph>
    <TTGlyph name="dotlessi" xMin="138" yMin="0" xMax="479" yMax="1114">
      <contour>
        <pt x="479" y="0" on="1"/>
        <pt x="138" y="0" on="1"/>
        <pt x="138" y="1114" on="1"/>
        <pt x="479" y="1114" on="1"/>
      </contour>
    </TTGlyph>
    <TTGlyph name="e" xMin="76" yMin="-19" xMax="935" yMax="1134">
      <contour>
        <pt x="551" y="-19" on="1"/>
        <pt x="453" y="-19" on="0"/>
        <pt x="292" y="43" on="0"/>
        <pt x="183" y="150" on="0"/>
        <pt x="146" y="223" on="1"/>
        <pt x="76" y="361" on="0"/>
        <pt x="76" y="549" on="1"/>
        <pt x="76" y="743" on="0"/>
        <pt x="137" y="883" on="1"/>
        <pt x="170" y="959" on="0"/>
        <pt x="270" y="1069" on="0"/>
        <pt x="421" y="1134" on="0"/>
        <pt x="596" y="1134" on="0"/>
        <pt x="725" y="1093" on="0"/>
        <pt x="811" y="1029" on="0"/>
        <pt x="875" y="937" on="0"/>
        <pt x="909" y="848" on="0"/>
        <pt x="920" y="795" on="1"/>
        <pt x="935" y="717" on="0"/>
        <pt x="935" y="628" on="1"/>
        <pt x="935" y="470" on="1"/>
        <pt x="421" y="470" on="1"/>
        <pt x="433" y="230" on="0"/>
        <pt x="591" y="230" on="1"/>
        <pt x="700" y="230" on="0"/>
        <pt x="889" y="343" on="1"/>
        <pt x="889" y="70" on="1"/>
        <pt x="740" y="-19" on="0"/>
      </contour>
      <contour>
        <pt x="514" y="895" on="1"/>
        <pt x="436" y="895" on="0"/>
        <pt x="425" y="699" on="1"/>
        <pt x="598" y="699" on="1"/>
        <pt x="590" y="895" on="0"/>
      </contour>
    </TTGlyph>
    <TTGlyph name="eacute" xMin="28" yMin="-19" xMax="887" yMax="1566">
      <contour>
        <pt x="859" y="1566" on="1"/>
        <pt x="859" y="1548" on="1"/>
        <pt x="783" y="1488" on="0"/>
        <pt x="540" y="1315" on="0"/>
        <pt x="479" y="1278" on="1"/>
        <pt x="251" y="1278" on="1"/>
        <pt x="251" y="1303" on="1"/>
        <pt x="392" y="1455" on="0"/>
        <pt x="459" y="1532" on="0"/>
        <pt x="483" y="1566" on="1"/>
      </contour>
      <contour>
        <pt x="503" y="-19" on="1"/>
        <pt x="405" y="-19" on="0"/>
        <pt x="244" y="43" on="0"/>
        <pt x="135" y="150" on="0"/>
        <pt x="98" y="223" on="1"/>
        <pt x="28" y="361" on="0"/>
        <pt x="28" y="549" on="1"/>
        <pt x="28" y="743" on="0"/>
        <pt x="89" y="883" on="1"/>
        <pt x="122" y="959" on="0"/>
        <pt x="222" y="1069" on="0"/>
        <pt x="373" y="1134" on="0"/>
        <pt x="548" y="1134" on="0"/>
        <pt x="677" y="1093" on="0"/>
        <pt x="763" y="1029" on="0"/>
        <pt x="827" y="937" on="0"/>
        <pt x="861" y="848" on="0"/>
        <pt x="872" y="795" on="1"/>
        <pt x="887" y="717" on="0"/>
        <pt x="887" y="628" on="1"/>
        <pt x="887" y="470" on="1"/>
        <pt x="373" y="470" on="1"/>
        <pt x="385" y="230" on="0"/>
        <pt x="543" y="230" on="1"/>
        <pt x="652" y="230" on="0"/>
        <pt x="841" y="343" on="1"/>
        <pt x="841" y="70" on="1"/>
        <pt x="692" y="-19" on="0"/>
      </contour>
      <contour>
        <pt x="466" y="895" on="1"/>
        <pt x="388" y="895" on="0"/>
        <pt x="377" y="699" on="1"/>
        <pt x="550" y="699" on="1"/>
        <pt x="542" y="895" on="0"/>
      </contour>
    </TTGlyph>
    <TTGlyph name="ecircumflex" xMin="28" yMin="-19" xMax="887" yMax="1567">
      <contour>
        <pt x="868" y="1279" on="1"/>
        <pt x="644" y="1279" on="1"/>
        <pt x="570" y="1321" on="0"/>
        <pt x="467" y="1411" on="1"/>
        <pt x="358" y="1316" on="0"/>
        <pt x="296" y="1279" on="1"/>
        <pt x="69" y="1279" on="1"/>
        <pt x="69" y="1304" on="1"/>
        <pt x="126" y="1357" on="0"/>
        <pt x="262" y="1514" on="0"/>
        <pt x="296" y="1567" on="1"/>
        <pt x="642" y="1567" on="1"/>
        <pt x="723" y="1449" on="0"/>
        <pt x="868" y="1304" on="1"/>
      </contour>
      <contour>
        <pt x="503" y="-19" on="1"/>
        <pt x="405" y="-19" on="0"/>
        <pt x="244" y="43" on="0"/>
        <pt x="135" y="150" on="0"/>
        <pt x="98" y="223" on="1"/>
        <pt x="28" y="361" on="0"/>
        <pt x="28" y="549" on="1"/>
        <pt x="28" y="743" on="0"/>
        <pt x="89" y="883" on="1"/>
        <pt x="122" y="959" on="0"/>
        <pt x="222" y="1069" on="0"/>
        <pt x="373" y="1134" on="0"/>
        <pt x="548" y="1134" on="0"/>
        <pt x="677" y="1093" on="0"/>
        <pt x="763" y="1029" on="0"/>
        <pt x="827" y="937" on="0"/>
        <pt x="861" y="848" on="0"/>
        <pt x="872" y="795" on="1"/>
        <pt x="887" y="717" on="0"/>
        <pt x="887" y="628" on="1"/>
        <pt x="887" y="470" on="1"/>
        <pt x="373" y="470" on="1"/>
        <pt x="385" y="230" on="0"/>
        <pt x="543" y="230" on="1"/>
        <pt x="652" y="230" on="0"/>
        <pt x="841" y="343" on="1"/>
        <pt x="841" y="70" on="1"/>
        <pt x="692" y="-19" on="0"/>
      </contour>
      <contour>
        <pt x="466" y="895" on="1"/>
        <pt x="388" y="895" on="0"/>
        <pt x="377" y="699" on="1"/>
        <pt x="550" y="699" on="1"/>
        <pt x="542" y="895" on="0"/>
      </contour>
    </TTGlyph>
    <TTGlyph name="edieresis" xMin="28" yMin="-19" xMax="887" yMax="1554">
      <contour>
        <pt x="120" y="1480" on="0"/>
        <pt x="200" y="1554" on="0"/>
        <pt x="342" y="1554" on="0"/>
        <pt x="424" y="1477" on="0"/>
        <pt x="424" y="1350" on="0"/>
        <pt x="342" y="1275" on="0"/>
        <pt x="200" y="1275" on="0"/>
        <pt x="120" y="1348" on="0"/>
      </contour>
      <contour>
        <pt x="543" y="1480" on="0"/>
        <pt x="623" y="1554" on="0"/>
        <pt x="765" y="1554" on="0"/>
        <pt x="847" y="1477" on="0"/>
        <pt x="847" y="1350" on="0"/>
        <pt x="765" y="1275" on="0"/>
        <pt x="623" y="1275" on="0"/>
        <pt x="543" y="1348" on="0"/>
      </contour>
      <contour>
        <pt x="503" y="-19" on="1"/>
        <pt x="405" y="-19" on="0"/>
        <pt x="244" y="43" on="0"/>
        <pt x="135" y="150" on="0"/>
        <pt x="98" y="223" on="1"/>
        <pt x="28" y="361" on="0"/>
        <pt x="28" y="549" on="1"/>
        <pt x="28" y="743" on="0"/>
        <pt x="89" y="883" on="1"/>
        <pt x="122" y="959" on="0"/>
        <pt x="222" y="1069" on="0"/>
        <pt x="373" y="1134" on="0"/>
        <pt x="548" y="1134" on="0"/>
        <pt x="677" y="1093" on="0"/>
        <pt x="763" y="1029" on="0"/>
        <pt x="827" y="937" on="0"/>
        <pt x="861" y="848" on="0"/>
        <pt x="872" y="795" on="1"/>
        <pt x="887" y="717" on="0"/>
        <pt x="887" y="628" on="1"/>
        <pt x="887" y="470" on="1"/>
        <pt x="373" y="470" on="1"/>
        <pt x="385" y="230" on="0"/>
        <pt x="543" y="230" on="1"/>
        <pt x="652" y="230" on="0"/>
        <pt x="841" y="343" on="1"/>
        <pt x="841" y="70" on="1"/>
        <pt x="692" y="-19" on="0"/>
      </contour>
      <contour>
        <pt x="466" y="895" on="1"/>
        <pt x="388" y="895" on="0"/>
        <pt x="377" y="699" on="1"/>
        <pt x="550" y="699" on="1"/>
        <pt x="542" y="895" on="0"/>
      </contour>
    </TTGlyph>
    <TTGlyph name="egrave" xMin="28" yMin="-19" xMax="887" yMax="1567">
      <contour>
        <pt x="91" y="1567" on="1"/>
        <pt x="469" y="1567" on="1"/>
        <pt x="518" y="1502" on="0"/>
        <pt x="648" y="1362" on="1"/>
        <pt x="699" y="1304" on="1"/>
        <pt x="699" y="1279" on="1"/>
        <pt x="471" y="1279" on="1"/>
        <pt x="421" y="1309" on="0"/>
        <pt x="190" y="1472" on="0"/>
        <pt x="91" y="1549" on="1"/>
      </contour>
      <contour>
        <pt x="503" y="-19" on="1"/>
        <pt x="405" y="-19" on="0"/>
        <pt x="244" y="43" on="0"/>
        <pt x="135" y="150" on="0"/>
        <pt x="98" y="223" on="1"/>
        <pt x="28" y="361" on="0"/>
        <pt x="28" y="549" on="1"/>
        <pt x="28" y="743" on="0"/>
        <pt x="89" y="883" on="1"/>
        <pt x="122" y="959" on="0"/>
        <pt x="222" y="1069" on="0"/>
        <pt x="373" y="1134" on="0"/>
        <pt x="548" y="1134" on="0"/>
        <pt x="677" y="1093" on="0"/>
        <pt x="763" y="1029" on="0"/>
        <pt x="827" y="937" on="0"/>
        <pt x="861" y="848" on="0"/>
        <pt x="872" y="795" on="1"/>
        <pt x="887" y="717" on="0"/>
        <pt x="887" y="628" on="1"/>
        <pt x="887" y="470" on="1"/>
        <pt x="373" y="470" on="1"/>
        <pt x="385" y="230" on="0"/>
        <pt x="543" y="230" on="1"/>
        <pt x="652" y="230" on="0"/>
        <pt x="841" y="343" on="1"/>
        <pt x="841" y="70" on="1"/>
        <pt x="692" y="-19" on="0"/>
      </contour>
      <contour>
        <pt x="466" y="895" on="1"/>
        <pt x="388" y="895" on="0"/>
        <pt x="377" y="699" on="1"/>
        <pt x="550" y="699" on="1"/>
        <pt x="542" y="895" on="0"/>
      </contour>
    </TTGlyph>
    <TTGlyph name="eight" xMin="62" yMin="-19" xMax="929" yMax="1480">
      <contour>
        <pt x="496" y="1480" on="1"/>
        <pt x="672" y="1480" on="0"/>
        <pt x="903" y="1269" on="0"/>
        <pt x="903" y="1099" on="1"/>
        <pt x="903" y="1001" on="0"/>
        <pt x="812" y="849" on="0"/>
        <pt x="706" y="773" on="1"/>
        <pt x="823" y="685" on="0"/>
        <pt x="929" y="493" on="0"/>
        <pt x="929" y="382" on="1"/>
        <pt x="929" y="194" on="0"/>
        <pt x="683" y="-19" on="0"/>
        <pt x="300" y="-19" on="0"/>
        <pt x="62" y="194" on="0"/>
        <pt x="62" y="382" on="1"/>
        <pt x="62" y="611" on="0"/>
        <pt x="270" y="762" on="1"/>
        <pt x="178" y="840" on="0"/>
        <pt x="87" y="995" on="0"/>
        <pt x="87" y="1213" on="0"/>
        <pt x="204" y="1390" on="0"/>
        <pt x="389" y="1480" on="0"/>
      </contour>
      <contour>
        <pt x="494" y="1233" on="1"/>
        <pt x="425" y="1233" on="0"/>
        <pt x="425" y="1099" on="1"/>
        <pt x="425" y="995" on="0"/>
        <pt x="497" y="926" on="1"/>
        <pt x="535" y="962" on="0"/>
        <pt x="565" y="1043" on="0"/>
        <pt x="565" y="1099" on="1"/>
        <pt x="565" y="1233" on="0"/>
      </contour>
      <contour>
        <pt x="481" y="609" on="1"/>
        <pt x="398" y="531" on="0"/>
        <pt x="398" y="230" on="0"/>
        <pt x="492" y="230" on="1"/>
        <pt x="592" y="230" on="0"/>
        <pt x="592" y="382" on="1"/>
        <pt x="592" y="461" on="0"/>
        <pt x="538" y="556" on="0"/>
      </contour>
    </TTGlyph>
    <TTGlyph name="ellipsis" xMin="101" yMin="-27" xMax="1538" yMax="301">
      <contour>
        <pt x="185" y="301" on="0"/>
        <pt x="347" y="301" on="0"/>
        <pt x="432" y="216" on="0"/>
        <pt x="432" y="59" on="0"/>
        <pt x="345" y="-27" on="0"/>
        <pt x="186" y="-27" on="0"/>
        <pt x="101" y="59" on="0"/>
        <pt x="101" y="216" on="0"/>
      </contour>
      <contour>
        <pt x="738" y="301" on="0"/>
        <pt x="900" y="301" on="0"/>
        <pt x="985" y="216" on="0"/>
        <pt x="985" y="59" on="0"/>
        <pt x="898" y="-27" on="0"/>
        <pt x="739" y="-27" on="0"/>
        <pt x="654" y="59" on="0"/>
        <pt x="654" y="216" on="0"/>
      </contour>
      <contour>
        <pt x="1291" y="301" on="0"/>
        <pt x="1453" y="301" on="0"/>
        <pt x="1538" y="216" on="0"/>
        <pt x="1538" y="59" on="0"/>
        <pt x="1451" y="-27" on="0"/>
        <pt x="1292" y="-27" on="0"/>
        <pt x="1207" y="59" on="0"/>
        <pt x="1207" y="216" on="0"/>
      </contour>
    </TTGlyph>
    <TTGlyph name="emdash" xMin="27" yMin="429" xMax="1507" yMax="682">
      <contour>
        <pt x="1507" y="429" on="1"/>
        <pt x="27" y="429" on="1"/>
        <pt x="27" y="682" on="1"/>
        <pt x="1507" y="682" on="1"/>
      </contour>
    </TTGlyph>
    <TTGlyph name="endash" xMin="22" yMin="429" xMax="916" yMax="682">
      <contour>
        <pt x="916" y="429" on="1"/>
        <pt x="22" y="429" on="1"/>
        <pt x="22" y="682" on="1"/>
        <pt x="916" y="682" on="1"/>
      </contour>
    </TTGlyph>
    <TTGlyph name="equal" xMin="57" yMin="410" xMax="827" yMax="1033">
      <contour>
        <pt x="827" y="791" on="1"/>
        <pt x="57" y="791" on="1"/>
        <pt x="57" y="1033" on="1"/>
        <pt x="827" y="1033" on="1"/>
      </contour>
      <contour>
        <pt x="827" y="410" on="1"/>
        <pt x="57" y="410" on="1"/>
        <pt x="57" y="653" on="1"/>
        <pt x="827" y="653" on="1"/>
      </contour>
    </TTGlyph>
    <TTGlyph name="eth" xMin="28" yMin="-19" xMax="944" yMax="1572">
      <contour>
        <pt x="527" y="1429" on="1"/>
        <pt x="738" y="1572" on="1"/>
        <pt x="859" y="1386" on="1"/>
        <pt x="697" y="1282" on="1"/>
        <pt x="944" y="1012" on="0"/>
        <pt x="944" y="569" on="1"/>
        <pt x="944" y="302" on="0"/>
        <pt x="825" y="140" on="1"/>
        <pt x="826" y="140" on="1"/>
        <pt x="710" y="-19" on="0"/>
        <pt x="265" y="-19" on="0"/>
        <pt x="28" y="261" on="0"/>
        <pt x="28" y="718" on="0"/>
        <pt x="238" y="996" on="0"/>
        <pt x="441" y="996" on="1"/>
        <pt x="513" y="996" on="0"/>
        <pt x="572" y="965" on="1"/>
        <pt x="533" y="1054" on="0"/>
        <pt x="466" y="1132" on="1"/>
        <pt x="248" y="988" on="1"/>
        <pt x="125" y="1174" on="1"/>
        <pt x="307" y="1289" on="1"/>
        <pt x="247" y="1330" on="0"/>
        <pt x="163" y="1377" on="1"/>
        <pt x="280" y="1572" on="1"/>
        <pt x="453" y="1482" on="0"/>
      </contour>
      <contour>
        <pt x="490" y="750" on="1"/>
        <pt x="429" y="750" on="0"/>
        <pt x="375" y="621" on="0"/>
        <pt x="375" y="368" on="0"/>
        <pt x="433" y="241" on="0"/>
        <pt x="546" y="241" on="0"/>
        <pt x="598" y="384" on="0"/>
        <pt x="598" y="531" on="1"/>
        <pt x="598" y="633" on="0"/>
        <pt x="540" y="750" on="0"/>
      </contour>
    </TTGlyph>
    <TTGlyph name="exclam" xMin="72" yMin="-26" xMax="479" yMax="1462">
      <contour>
        <pt x="424" y="457" on="1"/>
        <pt x="128" y="457" on="1"/>
        <pt x="79" y="1462" on="1"/>
        <pt x="476" y="1462" on="1"/>
      </contour>
      <contour>
        <pt x="175" y="335" on="0"/>
        <pt x="375" y="335" on="0"/>
        <pt x="479" y="242" on="0"/>
        <pt x="479" y="69" on="0"/>
        <pt x="372" y="-26" on="0"/>
        <pt x="176" y="-26" on="0"/>
        <pt x="72" y="68" on="0"/>
        <pt x="72" y="241" on="0"/>
      </contour>
    </TTGlyph>
    <TTGlyph name="exclamdown" xMin="59" yMin="-358" xMax="466" yMax="1128">
      <contour>
        <pt x="59" y="1033" on="0"/>
        <pt x="166" y="1128" on="0"/>
        <pt x="360" y="1128" on="0"/>
        <pt x="466" y="1033" on="0"/>
        <pt x="466" y="860" on="0"/>
        <pt x="360" y="768" on="0"/>
        <pt x="164" y="768" on="0"/>
        <pt x="59" y="861" on="0"/>
      </contour>
      <contour>
        <pt x="461" y="-358" on="1"/>
        <pt x="60" y="-358" on="1"/>
        <pt x="111" y="646" on="1"/>
        <pt x="410" y="646" on="1"/>
      </contour>
    </TTGlyph>
    <TTGlyph name="f" xMin="35" yMin="0" xMax="753" yMax="1550">
      <contour>
        <pt x="159" y="1176" on="1"/>
        <pt x="159" y="1368" on="0"/>
        <pt x="329" y="1550" on="0"/>
        <pt x="514" y="1550" on="1"/>
        <pt x="634" y="1550" on="0"/>
        <pt x="753" y="1492" on="1"/>
        <pt x="668" y="1248" on="1"/>
        <pt x="579" y="1292" on="0"/>
        <pt x="542" y="1292" on="1"/>
        <pt x="500" y="1292" on="0"/>
        <pt x="500" y="1172" on="1"/>
        <pt x="500" y="1114" on="1"/>
        <pt x="677" y="1114" on="1"/>
        <pt x="677" y="869" on="1"/>
        <pt x="500" y="869" on="1"/>
        <pt x="500" y="0" on="1"/>
        <pt x="159" y="0" on="1"/>
        <pt x="159" y="869" on="1"/>
        <pt x="35" y="869" on="1"/>
        <pt x="35" y="1024" on="1"/>
        <pt x="159" y="1101" on="1"/>
      </contour>
    </TTGlyph>
    <TTGlyph name="fi" xMin="-18" yMin="0" xMax="1027" yMax="1550">
      <contour>
        <pt x="847" y="1532" on="1"/>
        <pt x="930" y="1532" on="0"/>
        <pt x="1027" y="1446" on="0"/>
        <pt x="1027" y="1299" on="0"/>
        <pt x="928" y="1214" on="0"/>
        <pt x="763" y="1214" on="0"/>
        <pt x="664" y="1298" on="0"/>
        <pt x="664" y="1373" on="1"/>
        <pt x="665" y="1391" on="1"/>
        <pt x="615" y="1248" on="1"/>
        <pt x="526" y="1292" on="0"/>
        <pt x="489" y="1292" on="1"/>
        <pt x="447" y="1292" on="0"/>
        <pt x="447" y="1172" on="1"/>
        <pt x="447" y="1114" on="1"/>
        <pt x="624" y="1114" on="1"/>
        <pt x="624" y="869" on="1"/>
        <pt x="447" y="869" on="1"/>
        <pt x="447" y="0" on="1"/>
        <pt x="106" y="0" on="1"/>
        <pt x="106" y="869" on="1"/>
        <pt x="-18" y="869" on="1"/>
        <pt x="-18" y="1024" on="1"/>
        <pt x="106" y="1101" on="1"/>
        <pt x="106" y="1176" on="1"/>
        <pt x="106" y="1368" on="0"/>
        <pt x="276" y="1550" on="0"/>
        <pt x="461" y="1550" on="1"/>
        <pt x="581" y="1550" on="0"/>
        <pt x="700" y="1492" on="1"/>
        <pt x="691" y="1465" on="1"/>
        <pt x="736" y="1532" on="0"/>
      </contour>
      <contour>
        <pt x="675" y="1114" on="1"/>
        <pt x="1016" y="1114" on="1"/>
        <pt x="1016" y="0" on="1"/>
        <pt x="675" y="0" on="1"/>
      </contour>
    </TTGlyph>
    <TTGlyph name="finalkafdageshhb" xMin="33" yMin="-478" xMax="763" yMax="1310">
      <contour>
        <pt x="33" y="1275" on="1"/>
        <pt x="184" y="1310" on="0"/>
        <pt x="428" y="1310" on="0"/>
        <pt x="588" y="1245" on="0"/>
        <pt x="684" y="1139" on="0"/>
        <pt x="742" y="984" on="0"/>
        <pt x="763" y="828" on="0"/>
        <pt x="763" y="733" on="1"/>
        <pt x="763" y="-478" on="1"/>
        <pt x="420" y="-478" on="1"/>
        <pt x="420" y="733" on="1"/>
        <pt x="420" y="956" on="0"/>
        <pt x="332" y="1017" on="1"/>
        <pt x="295" y="1042" on="0"/>
        <pt x="241" y="1042" on="1"/>
        <pt x="138" y="1042" on="0"/>
        <pt x="58" y="1024" on="1"/>
        <pt x="33" y="1019" on="1"/>
      </contour>
      <contour>
        <pt x="107" y="722" on="0"/>
        <pt x="173" y="722" on="0"/>
        <pt x="211" y="686" on="0"/>
        <pt x="211" y="627" on="0"/>
        <pt x="173" y="592" on="0"/>
        <pt x="107" y="592" on="0"/>
        <pt x="70" y="627" on="0"/>
        <pt x="70" y="687" on="0"/>
      </contour>
    </TTGlyph>
    <TTGlyph name="finalpedageshhb" xMin="21" yMin="-478" xMax="920" yMax="1310">
      <contour>
        <pt x="67" y="599" on="0"/>
        <pt x="21" y="736" on="0"/>
        <pt x="21" y="936" on="0"/>
        <pt x="93" y="1125" on="0"/>
        <pt x="216" y="1245" on="0"/>
        <pt x="373" y="1310" on="0"/>
        <pt x="459" y="1310" on="1"/>
        <pt x="537" y="1310" on="0"/>
        <pt x="662" y="1262" on="0"/>
        <pt x="744" y="1204" on="0"/>
        <pt x="826" y="1101" on="0"/>
        <pt x="855" y="1034" on="1"/>
        <pt x="920" y="882" on="0"/>
        <pt x="920" y="646" on="1"/>
        <pt x="920" y="-478" on="1"/>
        <pt x="577" y="-478" on="1"/>
        <pt x="577" y="646" on="1"/>
        <pt x="577" y="1057" on="0"/>
        <pt x="459" y="1057" on="1"/>
        <pt x="426" y="1057" on="0"/>
        <pt x="380" y="1005" on="0"/>
        <pt x="370" y="967" on="1"/>
        <pt x="352" y="899" on="0"/>
        <pt x="352" y="856" on="1"/>
        <pt x="352" y="767" on="0"/>
        <pt x="404" y="670" on="0"/>
        <pt x="445" y="663" on="1"/>
        <pt x="475" y="657" on="1"/>
        <pt x="431" y="414" on="1"/>
        <pt x="384" y="419" on="1"/>
        <pt x="276" y="430" on="0"/>
        <pt x="190" y="482" on="1"/>
        <pt x="140" y="512" on="0"/>
      </contour>
      <contour>
        <pt x="442" y="943" on="0"/>
        <pt x="508" y="943" on="0"/>
        <pt x="546" y="907" on="0"/>
        <pt x="546" y="848" on="0"/>
        <pt x="508" y="813" on="0"/>
        <pt x="442" y="813" on="0"/>
        <pt x="405" y="848" on="0"/>
        <pt x="405" y="908" on="0"/>
      </contour>
    </TTGlyph>
    <TTGlyph name="five" xMin="79" yMin="-19" xMax="912" yMax="1462">
      <contour>
        <pt x="836" y="1183" on="1"/>
        <pt x="455" y="1183" on="1"/>
        <pt x="439" y="928" on="1"/>
        <pt x="475" y="931" on="0"/>
        <pt x="519" y="931" on="1"/>
        <pt x="615" y="931" on="0"/>
        <pt x="767" y="861" on="0"/>
        <pt x="814" y="800" on="1"/>
        <pt x="912" y="675" on="0"/>
        <pt x="912" y="492" on="1"/>
        <pt x="912" y="255" on="0"/>
        <pt x="651" y="-19" on="0"/>
        <pt x="423" y="-19" on="1"/>
        <pt x="217" y="-19" on="0"/>
        <pt x="79" y="67" on="1"/>
        <pt x="79" y="351" on="1"/>
        <pt x="177" y="286" on="0"/>
        <pt x="296" y="260" on="1"/>
        <pt x="347" y="249" on="0"/>
        <pt x="394" y="249" on="1"/>
        <pt x="560" y="249" on="0"/>
        <pt x="560" y="471" on="1"/>
        <pt x="560" y="676" on="0"/>
        <pt x="400" y="676" on="1"/>
        <pt x="331" y="676" on="0"/>
        <pt x="219" y="638" on="1"/>
        <pt x="101" y="724" on="1"/>
        <pt x="146" y="1462" on="1"/>
        <pt x="836" y="1462" on="1"/>
      </contour>
    </TTGlyph>
    <TTGlyph name="fl" xMin="-18" yMin="0" xMax="1014" yMax="1550">
      <contour>
        <pt x="1014" y="1539" on="1"/>
        <pt x="1014" y="0" on="1"/>
        <pt x="673" y="0" on="1"/>
        <pt x="673" y="1414" on="1"/>
        <pt x="615" y="1248" on="1"/>
        <pt x="526" y="1292" on="0"/>
        <pt x="489" y="1292" on="1"/>
        <pt x="447" y="1292" on="0"/>
        <pt x="447" y="1172" on="1"/>
        <pt x="447" y="1114" on="1"/>
        <pt x="624" y="1114" on="1"/>
        <pt x="624" y="869" on="1"/>
        <pt x="447" y="869" on="1"/>
        <pt x="447" y="0" on="1"/>
        <pt x="106" y="0" on="1"/>
        <pt x="106" y="869" on="1"/>
        <pt x="-18" y="869" on="1"/>
        <pt x="-18" y="1024" on="1"/>
        <pt x="106" y="1101" on="1"/>
        <pt x="106" y="1176" on="1"/>
        <pt x="106" y="1368" on="0"/>
        <pt x="276" y="1550" on="0"/>
        <pt x="461" y="1550" on="1"/>
        <pt x="568" y="1550" on="0"/>
        <pt x="673" y="1504" on="1"/>
        <pt x="673" y="1539" on="1"/>
      </contour>
    </TTGlyph>
    <TTGlyph name="florin" xMin="4" yMin="-473" xMax="905" yMax="1469">
      <contour>
        <pt x="599" y="786" on="1"/>
        <pt x="597" y="-95" on="1"/>
        <pt x="597" y="-281" on="0"/>
        <pt x="401" y="-473" on="0"/>
        <pt x="212" y="-473" on="1"/>
        <pt x="116" y="-473" on="0"/>
        <pt x="4" y="-442" on="1"/>
        <pt x="4" y="-178" on="1"/>
        <pt x="115" y="-212" on="0"/>
        <pt x="203" y="-212" on="0"/>
        <pt x="244" y="-139" on="0"/>
        <pt x="244" y="-62" on="1"/>
        <pt x="244" y="786" on="1"/>
        <pt x="85" y="786" on="1"/>
        <pt x="85" y="945" on="1"/>
        <pt x="244" y="1020" on="1"/>
        <pt x="244" y="1095" on="1"/>
        <pt x="244" y="1288" on="0"/>
        <pt x="425" y="1469" on="0"/>
        <pt x="625" y="1469" on="1"/>
        <pt x="771" y="1469" on="0"/>
        <pt x="905" y="1411" on="1"/>
        <pt x="825" y="1169" on="1"/>
        <pt x="708" y="1212" on="0"/>
        <pt x="663" y="1212" on="1"/>
        <pt x="599" y="1212" on="0"/>
        <pt x="599" y="1085" on="1"/>
        <pt x="599" y="1033" on="1"/>
        <pt x="810" y="1033" on="1"/>
        <pt x="810" y="786" on="1"/>
      </contour>
    </TTGlyph>
    <TTGlyph name="four" xMin="25" yMin="0" xMax="966" yMax="1462">
      <contour>
        <pt x="822" y="559" on="1"/>
        <pt x="966" y="559" on="1"/>
        <pt x="966" y="298" on="1"/>
        <pt x="822" y="298" on="1"/>
        <pt x="822" y="0" on="1"/>
        <pt x="488" y="0" on="1"/>
        <pt x="488" y="298" on="1"/>
        <pt x="25" y="298" on="1"/>
        <pt x="25" y="535" on="1"/>
        <pt x="464" y="1462" on="1"/>
        <pt x="822" y="1462" on="1"/>
      </contour>
      <contour>
        <pt x="488" y="559" on="1"/>
        <pt x="488" y="837" on="1"/>
        <pt x="494" y="950" on="1"/>
        <pt x="306" y="559" on="1"/>
      </contour>
    </TTGlyph>
    <TTGlyph name="fraction" xMin="-424" yMin="0" xMax="601" yMax="1462">
      <contour>
        <pt x="-142" y="0" on="1"/>
        <pt x="-424" y="0" on="1"/>
        <pt x="318" y="1462" on="1"/>
        <pt x="601" y="1462" on="1"/>
      </contour>
    </TTGlyph>
    <TTGlyph name="g" xMin="10" yMin="-473" xMax="958" yMax="1134">
      <contour>
        <pt x="469" y="255" on="1"/>
        <pt x="624" y="255" on="1"/>
        <pt x="782" y="255" on="0"/>
        <pt x="950" y="95" on="0"/>
        <pt x="950" y="-62" on="1"/>
        <pt x="950" y="-259" on="0"/>
        <pt x="677" y="-473" on="0"/>
        <pt x="423" y="-473" on="1"/>
        <pt x="224" y="-473" on="0"/>
        <pt x="10" y="-308" on="0"/>
        <pt x="10" y="-154" on="1"/>
        <pt x="10" y="-70" on="0"/>
        <pt x="109" y="65" on="0"/>
        <pt x="199" y="105" on="1"/>
        <pt x="105" y="163" on="0"/>
        <pt x="105" y="345" on="0"/>
        <pt x="209" y="433" on="1"/>
        <pt x="139" y="485" on="0"/>
        <pt x="71" y="653" on="0"/>
        <pt x="71" y="745" on="1"/>
        <pt x="71" y="931" on="0"/>
        <pt x="279" y="1134" on="0"/>
        <pt x="471" y="1134" on="1"/>
        <pt x="560" y="1134" on="0"/>
        <pt x="621" y="1112" on="1"/>
        <pt x="958" y="1112" on="1"/>
        <pt x="958" y="928" on="1"/>
        <pt x="835" y="902" on="1"/>
        <pt x="867" y="830" on="0"/>
        <pt x="867" y="743" on="1"/>
        <pt x="867" y="561" on="0"/>
        <pt x="652" y="359" on="0"/>
        <pt x="475" y="359" on="1"/>
        <pt x="434" y="359" on="0"/>
        <pt x="420" y="361" on="1"/>
        <pt x="395" y="334" on="0"/>
        <pt x="395" y="301" on="1"/>
        <pt x="395" y="255" on="0"/>
      </contour>
      <contour>
        <pt x="471" y="920" on="1"/>
        <pt x="406" y="920" on="0"/>
        <pt x="406" y="574" on="0"/>
        <pt x="471" y="574" on="1"/>
        <pt x="532" y="574" on="0"/>
        <pt x="532" y="920" on="0"/>
      </contour>
      <contour>
        <pt x="524" y="-12" on="1"/>
        <pt x="399" y="-12" on="1"/>
        <pt x="366" y="-12" on="0"/>
        <pt x="327" y="-78" on="0"/>
        <pt x="327" y="-188" on="0"/>
        <pt x="385" y="-245" on="0"/>
        <pt x="439" y="-245" on="1"/>
        <pt x="533" y="-245" on="0"/>
        <pt x="629" y="-170" on="0"/>
        <pt x="629" y="-44" on="0"/>
        <pt x="582" y="-12" on="0"/>
      </contour>
    </TTGlyph>
    <TTGlyph name="gereshhb" xMin="37" yMin="766" xMax="450" yMax="1295">
      <contour>
        <pt x="438" y="1295" on="1"/>
        <pt x="450" y="1271" on="1"/>
        <pt x="396" y="1069" on="0"/>
        <pt x="323" y="857" on="0"/>
        <pt x="306" y="812" on="1"/>
        <pt x="290" y="766" on="1"/>
        <pt x="37" y="766" on="1"/>
        <pt x="88" y="1001" on="0"/>
        <pt x="116" y="1209" on="0"/>
        <pt x="121" y="1252" on="1"/>
        <pt x="126" y="1295" on="1"/>
      </contour>
    </TTGlyph>
    <TTGlyph name="germandbls" xMin="68" yMin="-19" xMax="1068" yMax="1550">
      <contour>
        <pt x="68" y="0" on="1"/>
        <pt x="68" y="1129" on="1"/>
        <pt x="68" y="1333" on="0"/>
        <pt x="306" y="1550" on="0"/>
        <pt x="733" y="1550" on="0"/>
        <pt x="847" y="1463" on="1"/>
        <pt x="970" y="1368" on="0"/>
        <pt x="970" y="1071" on="0"/>
        <pt x="856" y="951" on="1"/>
        <pt x="807" y="901" on="1"/>
        <pt x="765" y="856" on="0"/>
        <pt x="765" y="792" on="0"/>
        <pt x="780" y="773" on="1"/>
        <pt x="816" y="730" on="0"/>
        <pt x="897" y="666" on="1"/>
        <pt x="999" y="583" on="0"/>
        <pt x="1068" y="445" on="0"/>
        <pt x="1068" y="346" on="1"/>
        <pt x="1068" y="173" on="0"/>
        <pt x="853" y="-19" on="0"/>
        <pt x="657" y="-19" on="1"/>
        <pt x="516" y="-19" on="0"/>
        <pt x="408" y="38" on="1"/>
        <pt x="408" y="0" on="1"/>
      </contour>
      <contour>
        <pt x="468" y="636" on="1"/>
        <pt x="425" y="708" on="0"/>
        <pt x="425" y="852" on="0"/>
        <pt x="479" y="957" on="0"/>
        <pt x="582" y="1057" on="0"/>
        <pt x="625" y="1135" on="0"/>
        <pt x="625" y="1232" on="0"/>
        <pt x="572" y="1295" on="0"/>
        <pt x="522" y="1295" on="1"/>
        <pt x="408" y="1295" on="0"/>
        <pt x="408" y="1121" on="1"/>
        <pt x="408" y="320" on="1"/>
        <pt x="557" y="223" on="0"/>
        <pt x="635" y="223" on="1"/>
        <pt x="722" y="223" on="0"/>
        <pt x="722" y="326" on="1"/>
        <pt x="722" y="376" on="0"/>
        <pt x="703" y="406" on="1"/>
        <pt x="669" y="454" on="0"/>
        <pt x="602" y="507" on="1"/>
        <pt x="602" y="506" on="1"/>
        <pt x="501" y="582" on="0"/>
      </contour>
    </TTGlyph>
    <TTGlyph name="gershayimhb" xMin="37" yMin="766" xMax="866" yMax="1295">
      <contour>
        <pt x="438" y="1295" on="1"/>
        <pt x="450" y="1271" on="1"/>
        <pt x="396" y="1069" on="0"/>
        <pt x="323" y="857" on="0"/>
        <pt x="306" y="812" on="1"/>
        <pt x="290" y="766" on="1"/>
        <pt x="37" y="766" on="1"/>
        <pt x="88" y="1001" on="0"/>
        <pt x="116" y="1209" on="0"/>
        <pt x="121" y="1252" on="1"/>
        <pt x="126" y="1295" on="1"/>
      </contour>
      <contour>
        <pt x="854" y="1295" on="1"/>
        <pt x="866" y="1271" on="1"/>
        <pt x="812" y="1069" on="0"/>
        <pt x="739" y="857" on="0"/>
        <pt x="722" y="812" on="1"/>
        <pt x="706" y="766" on="1"/>
        <pt x="453" y="766" on="1"/>
        <pt x="504" y="1001" on="0"/>
        <pt x="532" y="1209" on="0"/>
        <pt x="537" y="1252" on="1"/>
        <pt x="542" y="1295" on="1"/>
      </contour>
    </TTGlyph>
    <TTGlyph name="gimeldageshhb" xMin="28" yMin="-19" xMax="743" yMax="1310">
      <contour>
        <pt x="308" y="1051" on="1"/>
        <pt x="220" y="1051" on="0"/>
        <pt x="155" y="1032" on="1"/>
        <pt x="155" y="1284" on="1"/>
        <pt x="273" y="1310" on="0"/>
        <pt x="443" y="1310" on="0"/>
        <pt x="567" y="1285" on="0"/>
        <pt x="650" y="1233" on="0"/>
        <pt x="704" y="1168" on="0"/>
        <pt x="718" y="1120" on="1"/>
        <pt x="743" y="1036" on="0"/>
        <pt x="743" y="916" on="1"/>
        <pt x="743" y="0" on="1"/>
        <pt x="476" y="0" on="1"/>
        <pt x="460" y="148" on="1"/>
        <pt x="449" y="148" on="1"/>
        <pt x="422" y="87" on="0"/>
        <pt x="271" y="-19" on="0"/>
        <pt x="170" y="-19" on="1"/>
        <pt x="117" y="-19" on="0"/>
        <pt x="52" y="-5" on="1"/>
        <pt x="28" y="0" on="1"/>
        <pt x="52" y="288" on="1"/>
        <pt x="129" y="265" on="0"/>
        <pt x="183" y="265" on="1"/>
        <pt x="295" y="265" on="0"/>
        <pt x="399" y="388" on="0"/>
        <pt x="399" y="532" on="1"/>
        <pt x="399" y="916" on="1"/>
        <pt x="399" y="1051" on="0"/>
      </contour>
      <contour>
        <pt x="180" y="722" on="0"/>
        <pt x="246" y="722" on="0"/>
        <pt x="284" y="686" on="0"/>
        <pt x="284" y="627" on="0"/>
        <pt x="246" y="592" on="0"/>
        <pt x="180" y="592" on="0"/>
        <pt x="143" y="627" on="0"/>
        <pt x="143" y="687" on="0"/>
      </contour>
    </TTGlyph>
    <TTGlyph name="grave" xMin="258" yMin="1279" xMax="866" yMax="1567">
      <contour>
        <pt x="258" y="1567" on="1"/>
        <pt x="636" y="1567" on="1"/>
        <pt x="685" y="1502" on="0"/>
        <pt x="815" y="1362" on="1"/>
        <pt x="866" y="1304" on="1"/>
        <pt x="866" y="1279" on="1"/>
        <pt x="638" y="1279" on="1"/>
        <pt x="588" y="1309" on="0"/>
        <pt x="357" y="1472" on="0"/>
        <pt x="258" y="1549" on="1"/>
      </contour>
    </TTGlyph>
    <TTGlyph name="greater" xMin="57" yMin="166" xMax="827" yMax="1279">
      <contour>
        <pt x="522" y="723" on="1"/>
        <pt x="402" y="793" on="0"/>
        <pt x="57" y="996" on="1"/>
        <pt x="57" y="1279" on="1"/>
        <pt x="827" y="805" on="1"/>
        <pt x="827" y="642" on="1"/>
        <pt x="57" y="166" on="1"/>
        <pt x="57" y="449" on="1"/>
      </contour>
    </TTGlyph>
    <TTGlyph name="guillemotleft" xMin="27" yMin="77" xMax="1081" yMax="1047">
      <contour>
        <pt x="391" y="562" on="1"/>
        <pt x="608" y="219" on="1"/>
        <pt x="353" y="77" on="1"/>
        <pt x="27" y="548" on="1"/>
        <pt x="27" y="574" on="1"/>
        <pt x="353" y="1047" on="1"/>
        <pt x="608" y="905" on="1"/>
      </contour>
      <contour>
        <pt x="864" y="562" on="1"/>
        <pt x="1081" y="219" on="1"/>
        <pt x="825" y="77" on="1"/>
        <pt x="500" y="548" on="1"/>
        <pt x="500" y="574" on="1"/>
        <pt x="825" y="1047" on="1"/>
        <pt x="1081" y="905" on="1"/>
      </contour>
    </TTGlyph>
    <TTGlyph name="guillemotright" xMin="24" yMin="77" xMax="1077" yMax="1047">
      <contour>
        <pt x="240" y="562" on="1"/>
        <pt x="24" y="905" on="1"/>
        <pt x="278" y="1047" on="1"/>
        <pt x="604" y="574" on="1"/>
        <pt x="604" y="548" on="1"/>
        <pt x="278" y="77" on="1"/>
        <pt x="24" y="219" on="1"/>
      </contour>
      <contour>
        <pt x="713" y="562" on="1"/>
        <pt x="496" y="905" on="1"/>
        <pt x="752" y="1047" on="1"/>
        <pt x="1077" y="574" on="1"/>
        <pt x="1077" y="548" on="1"/>
        <pt x="752" y="77" on="1"/>
        <pt x="496" y="219" on="1"/>
      </contour>
    </TTGlyph>
    <TTGlyph name="guilsinglleft" xMin="24" yMin="77" xMax="604" yMax="1047">
      <contour>
        <pt x="387" y="562" on="1"/>
        <pt x="604" y="219" on="1"/>
        <pt x="349" y="77" on="1"/>
        <pt x="24" y="548" on="1"/>
        <pt x="24" y="574" on="1"/>
        <pt x="349" y="1047" on="1"/>
        <pt x="604" y="905" on="1"/>
      </contour>
    </TTGlyph>
    <TTGlyph name="guilsinglright" xMin="20" yMin="77" xMax="601" yMax="1047">
      <contour>
        <pt x="236" y="562" on="1"/>
        <pt x="104" y="777" on="0"/>
        <pt x="20" y="905" on="1"/>
        <pt x="274" y="1047" on="1"/>
        <pt x="601" y="574" on="1"/>
        <pt x="601" y="548" on="1"/>
        <pt x="274" y="77" on="1"/>
        <pt x="20" y="219" on="1"/>
      </contour>
    </TTGlyph>
    <TTGlyph name="h" xMin="125" yMin="0" xMax="1002" yMax="1539">
      <contour>
        <pt x="466" y="1539" on="1"/>
        <pt x="466" y="1185" on="1"/>
        <pt x="466" y="1153" on="0"/>
        <pt x="461" y="1066" on="1"/>
        <pt x="540" y="1134" on="0"/>
        <pt x="662" y="1134" on="1"/>
        <pt x="830" y="1134" on="0"/>
        <pt x="1002" y="924" on="0"/>
        <pt x="1002" y="721" on="1"/>
        <pt x="1002" y="0" on="1"/>
        <pt x="659" y="0" on="1"/>
        <pt x="659" y="660" on="1"/>
        <pt x="659" y="875" on="0"/>
        <pt x="583" y="875" on="1"/>
        <pt x="520" y="875" on="0"/>
        <pt x="466" y="706" on="0"/>
        <pt x="466" y="536" on="1"/>
        <pt x="466" y="0" on="1"/>
        <pt x="125" y="0" on="1"/>
        <pt x="125" y="1539" on="1"/>
      </contour>
    </TTGlyph>
    <TTGlyph name="hedageshhb" xMin="91" yMin="0" xMax="975" yMax="1310">
      <contour>
        <pt x="409" y="1310" on="0"/>
        <pt x="623" y="1310" on="0"/>
        <pt x="766" y="1285" on="0"/>
        <pt x="864" y="1229" on="0"/>
        <pt x="927" y="1157" on="0"/>
        <pt x="944" y="1102" on="1"/>
        <pt x="975" y="1008" on="0"/>
        <pt x="975" y="853" on="1"/>
        <pt x="975" y="0" on="1"/>
        <pt x="630" y="0" on="1"/>
        <pt x="630" y="854" on="1"/>
        <pt x="630" y="969" on="0"/>
        <pt x="552" y="1057" on="0"/>
        <pt x="454" y="1057" on="1"/>
        <pt x="386" y="1057" on="0"/>
        <pt x="205" y="1036" on="0"/>
        <pt x="148" y="1025" on="1"/>
        <pt x="91" y="1014" on="1"/>
        <pt x="91" y="1264" on="1"/>
        <pt x="156" y="1281" on="0"/>
      </contour>
      <contour>
        <pt x="91" y="0" on="1"/>
        <pt x="91" y="838" on="1"/>
        <pt x="435" y="838" on="1"/>
        <pt x="435" y="0" on="1"/>
      </contour>
      <contour>
        <pt x="498" y="722" on="0"/>
        <pt x="564" y="722" on="0"/>
        <pt x="602" y="686" on="0"/>
        <pt x="602" y="627" on="0"/>
        <pt x="564" y="592" on="0"/>
        <pt x="498" y="592" on="0"/>
        <pt x="461" y="627" on="0"/>
        <pt x="461" y="687" on="0"/>
      </contour>
    </TTGlyph>
    <TTGlyph name="hungarumlaut" xMin="119" yMin="1281" xMax="1035" yMax="1569">
      <contour>
        <pt x="626" y="1569" on="1"/>
        <pt x="626" y="1551" on="1"/>
        <pt x="605" y="1517" on="0"/>
        <pt x="415" y="1362" on="0"/>
        <pt x="297" y="1281" on="1"/>
        <pt x="119" y="1281" on="1"/>
        <pt x="119" y="1306" on="1"/>
        <pt x="162" y="1365" on="1"/>
        <pt x="262" y="1501" on="0"/>
        <pt x="301" y="1569" on="1"/>
      </contour>
      <contour>
        <pt x="1035" y="1569" on="1"/>
        <pt x="1035" y="1551" on="1"/>
        <pt x="1011" y="1512" on="0"/>
        <pt x="813" y="1355" on="0"/>
        <pt x="704" y="1281" on="1"/>
        <pt x="526" y="1281" on="1"/>
        <pt x="526" y="1306" on="1"/>
        <pt x="569" y="1365" on="1"/>
        <pt x="669" y="1499" on="0"/>
        <pt x="708" y="1569" on="1"/>
      </contour>
    </TTGlyph>
    <TTGlyph name="hyphen" xMin="33" yMin="419" xMax="607" yMax="689">
      <contour>
        <pt x="607" y="419" on="1"/>
        <pt x="33" y="419" on="1"/>
        <pt x="33" y="689" on="1"/>
        <pt x="607" y="689" on="1"/>
      </contour>
    </TTGlyph>
    <TTGlyph name="i" xMin="117" yMin="0" xMax="480" yMax="1532">
      <contour>
        <pt x="117" y="1447" on="0"/>
        <pt x="214" y="1532" on="0"/>
        <pt x="383" y="1532" on="0"/>
        <pt x="480" y="1446" on="0"/>
        <pt x="480" y="1299" on="0"/>
        <pt x="381" y="1214" on="0"/>
        <pt x="216" y="1214" on="0"/>
        <pt x="117" y="1298" on="0"/>
      </contour>
      <contour>
        <pt x="469" y="0" on="1"/>
        <pt x="128" y="0" on="1"/>
        <pt x="128" y="1114" on="1"/>
        <pt x="469" y="1114" on="1"/>
      </contour>
    </TTGlyph>
    <TTGlyph name="iacute" xMin="16" yMin="0" xMax="624" yMax="1566">
      <contour>
        <pt x="624" y="1566" on="1"/>
        <pt x="624" y="1548" on="1"/>
        <pt x="548" y="1488" on="0"/>
        <pt x="305" y="1315" on="0"/>
        <pt x="244" y="1278" on="1"/>
        <pt x="16" y="1278" on="1"/>
        <pt x="16" y="1303" on="1"/>
        <pt x="157" y="1455" on="0"/>
        <pt x="224" y="1532" on="0"/>
        <pt x="248" y="1566" on="1"/>
      </contour>
      <contour>
        <pt x="469" y="0" on="1"/>
        <pt x="128" y="0" on="1"/>
        <pt x="128" y="1114" on="1"/>
        <pt x="469" y="1114" on="1"/>
      </contour>
    </TTGlyph>
    <TTGlyph name="icircumflex" xMin="-173" yMin="0" xMax="626" yMax="1567">
      <contour>
        <pt x="626" y="1279" on="1"/>
        <pt x="402" y="1279" on="1"/>
        <pt x="328" y="1321" on="0"/>
        <pt x="225" y="1411" on="1"/>
        <pt x="116" y="1316" on="0"/>
        <pt x="54" y="1279" on="1"/>
        <pt x="-173" y="1279" on="1"/>
        <pt x="-173" y="1304" on="1"/>
        <pt x="-119" y="1354" on="0"/>
        <pt x="-45" y="1438" on="1"/>
        <pt x="21" y="1516" on="0"/>
        <pt x="54" y="1567" on="1"/>
        <pt x="400" y="1567" on="1"/>
        <pt x="481" y="1449" on="0"/>
        <pt x="626" y="1304" on="1"/>
      </contour>
      <contour>
        <pt x="469" y="0" on="1"/>
        <pt x="128" y="0" on="1"/>
        <pt x="128" y="1114" on="1"/>
        <pt x="469" y="1114" on="1"/>
      </contour>
    </TTGlyph>
    <TTGlyph name="idieresis" xMin="-121" yMin="0" xMax="606" yMax="1554">
      <contour>
        <pt x="-121" y="1480" on="0"/>
        <pt x="-41" y="1554" on="0"/>
        <pt x="101" y="1554" on="0"/>
        <pt x="183" y="1477" on="0"/>
        <pt x="183" y="1350" on="0"/>
        <pt x="101" y="1275" on="0"/>
        <pt x="-41" y="1275" on="0"/>
        <pt x="-121" y="1348" on="0"/>
      </contour>
      <contour>
        <pt x="302" y="1480" on="0"/>
        <pt x="382" y="1554" on="0"/>
        <pt x="524" y="1554" on="0"/>
        <pt x="606" y="1477" on="0"/>
        <pt x="606" y="1350" on="0"/>
        <pt x="524" y="1275" on="0"/>
        <pt x="382" y="1275" on="0"/>
        <pt x="302" y="1348" on="0"/>
      </contour>
      <contour>
        <pt x="469" y="0" on="1"/>
        <pt x="128" y="0" on="1"/>
        <pt x="128" y="1114" on="1"/>
        <pt x="469" y="1114" on="1"/>
      </contour>
    </TTGlyph>
    <TTGlyph name="igrave" xMin="-163" yMin="0" xMax="469" yMax="1567">
      <contour>
        <pt x="-163" y="1567" on="1"/>
        <pt x="215" y="1567" on="1"/>
        <pt x="264" y="1502" on="0"/>
        <pt x="394" y="1362" on="1"/>
        <pt x="445" y="1304" on="1"/>
        <pt x="445" y="1279" on="1"/>
        <pt x="217" y="1279" on="1"/>
        <pt x="167" y="1309" on="0"/>
        <pt x="-64" y="1472" on="0"/>
        <pt x="-163" y="1549" on="1"/>
      </contour>
      <contour>
        <pt x="469" y="0" on="1"/>
        <pt x="128" y="0" on="1"/>
        <pt x="128" y="1114" on="1"/>
        <pt x="469" y="1114" on="1"/>
      </contour>
    </TTGlyph>
    <TTGlyph name="j" xMin="-114" yMin="-473" xMax="411" yMax="1532">
      <contour>
        <pt x="50" y="1447" on="0"/>
        <pt x="146" y="1532" on="0"/>
        <pt x="315" y="1532" on="0"/>
        <pt x="411" y="1445" on="0"/>
        <pt x="411" y="1299" on="0"/>
        <pt x="314" y="1214" on="0"/>
        <pt x="149" y="1214" on="0"/>
        <pt x="50" y="1298" on="0"/>
      </contour>
      <contour>
        <pt x="400" y="1114" on="1"/>
        <pt x="400" y="-103" on="1"/>
        <pt x="400" y="-280" on="0"/>
        <pt x="224" y="-473" on="0"/>
        <pt x="62" y="-473" on="1"/>
        <pt x="-34" y="-473" on="0"/>
        <pt x="-114" y="-436" on="1"/>
        <pt x="-114" y="-173" on="1"/>
        <pt x="-14" y="-212" on="0"/>
        <pt x="11" y="-212" on="1"/>
        <pt x="59" y="-212" on="0"/>
        <pt x="59" y="-69" on="1"/>
        <pt x="59" y="1114" on="1"/>
      </contour>
    </TTGlyph>
    <TTGlyph name="k" xMin="125" yMin="0" xMax="1037" yMax="1539">
      <contour>
        <pt x="505" y="418" on="1"/>
        <pt x="465" y="381" on="1"/>
        <pt x="465" y="0" on="1"/>
        <pt x="125" y="0" on="1"/>
        <pt x="125" y="1539" on="1"/>
        <pt x="465" y="1539" on="1"/>
        <pt x="465" y="812" on="1"/>
        <pt x="462" y="765" on="1"/>
        <pt x="664" y="1114" on="1"/>
        <pt x="1022" y="1114" on="1"/>
        <pt x="738" y="653" on="1"/>
        <pt x="1037" y="0" on="1"/>
        <pt x="684" y="0" on="1"/>
      </contour>
    </TTGlyph>
    <TTGlyph name="kafdageshhb" xMin="44" yMin="-19" xMax="774" yMax="1310">
      <contour>
        <pt x="44" y="1279" on="1"/>
        <pt x="177" y="1310" on="0"/>
        <pt x="440" y="1310" on="0"/>
        <pt x="599" y="1257" on="0"/>
        <pt x="695" y="1169" on="0"/>
        <pt x="753" y="1033" on="0"/>
        <pt x="774" y="887" on="0"/>
        <pt x="774" y="793" on="1"/>
        <pt x="774" y="528" on="1"/>
        <pt x="774" y="353" on="0"/>
        <pt x="718" y="222" on="1"/>
        <pt x="686" y="150" on="0"/>
        <pt x="589" y="45" on="0"/>
        <pt x="433" y="-19" on="0"/>
        <pt x="333" y="-19" on="1"/>
        <pt x="163" y="-19" on="0"/>
        <pt x="44" y="16" on="1"/>
        <pt x="44" y="280" on="1"/>
        <pt x="161" y="245" on="0"/>
        <pt x="281" y="245" on="1"/>
        <pt x="386" y="245" on="0"/>
        <pt x="410" y="358" on="1"/>
        <pt x="424" y="419" on="0"/>
        <pt x="424" y="528" on="1"/>
        <pt x="424" y="793" on="1"/>
        <pt x="424" y="918" on="0"/>
        <pt x="350" y="1046" on="0"/>
        <pt x="265" y="1046" on="1"/>
        <pt x="151" y="1046" on="0"/>
        <pt x="70" y="1028" on="1"/>
        <pt x="44" y="1023" on="1"/>
      </contour>
      <contour>
        <pt x="187" y="722" on="0"/>
        <pt x="253" y="722" on="0"/>
        <pt x="291" y="686" on="0"/>
        <pt x="291" y="627" on="0"/>
        <pt x="253" y="592" on="0"/>
        <pt x="187" y="592" on="0"/>
        <pt x="150" y="627" on="0"/>
        <pt x="150" y="687" on="0"/>
      </contour>
    </TTGlyph>
    <TTGlyph name="l" xMin="125" yMin="0" xMax="466" yMax="1539">
      <contour>
        <pt x="466" y="0" on="1"/>
        <pt x="125" y="0" on="1"/>
        <pt x="125" y="1539" on="1"/>
        <pt x="466" y="1539" on="1"/>
      </contour>
    </TTGlyph>
    <TTGlyph name="lameddageshhb" xMin="28" yMin="0" xMax="829" yMax="1548">
      <contour>
        <pt x="829" y="1290" on="1"/>
        <pt x="829" y="1095" on="1"/>
        <pt x="664" y="495" on="1"/>
        <pt x="566" y="0" on="1"/>
        <pt x="231" y="0" on="1"/>
        <pt x="330" y="504" on="1"/>
        <pt x="478" y="1039" on="1"/>
        <pt x="28" y="1039" on="1"/>
        <pt x="28" y="1548" on="1"/>
        <pt x="372" y="1548" on="1"/>
        <pt x="372" y="1290" on="1"/>
      </contour>
      <contour>
        <pt x="134" y="722" on="0"/>
        <pt x="200" y="722" on="0"/>
        <pt x="238" y="686" on="0"/>
        <pt x="238" y="627" on="0"/>
        <pt x="200" y="592" on="0"/>
        <pt x="134" y="592" on="0"/>
        <pt x="97" y="627" on="0"/>
        <pt x="97" y="687" on="0"/>
      </contour>
    </TTGlyph>
    <TTGlyph name="less" xMin="57" yMin="166" xMax="827" yMax="1279">
      <contour>
        <pt x="364" y="723" on="1"/>
        <pt x="827" y="449" on="1"/>
        <pt x="827" y="166" on="1"/>
        <pt x="57" y="642" on="1"/>
        <pt x="57" y="805" on="1"/>
        <pt x="827" y="1279" on="1"/>
        <pt x="827" y="996" on="1"/>
      </contour>
    </TTGlyph>
    <TTGlyph name="logicalnot" xMin="57" yMin="243" xMax="827" yMax="844">
      <contour>
        <pt x="827" y="243" on="1"/>
        <pt x="552" y="243" on="1"/>
        <pt x="552" y="600" on="1"/>
        <pt x="57" y="600" on="1"/>
        <pt x="57" y="844" on="1"/>
        <pt x="827" y="844" on="1"/>
      </contour>
    </TTGlyph>
    <TTGlyph name="m" xMin="125" yMin="0" xMax="1531" yMax="1134">
      <contour>
        <pt x="665" y="1134" on="1"/>
        <pt x="852" y="1134" on="0"/>
        <pt x="935" y="1003" on="1"/>
        <pt x="1024" y="1134" on="0"/>
        <pt x="1362" y="1134" on="0"/>
        <pt x="1531" y="924" on="0"/>
        <pt x="1531" y="721" on="1"/>
        <pt x="1531" y="0" on="1"/>
        <pt x="1189" y="0" on="1"/>
        <pt x="1189" y="660" on="1"/>
        <pt x="1189" y="875" on="0"/>
        <pt x="1115" y="875" on="1"/>
        <pt x="1053" y="875" on="0"/>
        <pt x="999" y="718" on="0"/>
        <pt x="999" y="542" on="1"/>
        <pt x="999" y="0" on="1"/>
        <pt x="657" y="0" on="1"/>
        <pt x="657" y="660" on="1"/>
        <pt x="657" y="875" on="0"/>
        <pt x="581" y="875" on="1"/>
        <pt x="522" y="875" on="0"/>
        <pt x="498" y="822" on="1"/>
        <pt x="486" y="793" on="0"/>
        <pt x="471" y="746" on="0"/>
        <pt x="468" y="700" on="1"/>
        <pt x="465" y="637" on="0"/>
        <pt x="465" y="536" on="1"/>
        <pt x="465" y="0" on="1"/>
        <pt x="125" y="0" on="1"/>
        <pt x="125" y="1114" on="1"/>
        <pt x="407" y="1114" on="1"/>
        <pt x="425" y="1035" on="1"/>
        <pt x="512" y="1134" on="0"/>
      </contour>
    </TTGlyph>
    <TTGlyph name="memdageshhb" xMin="50" yMin="0" xMax="1052" yMax="1310">
      <contour>
        <pt x="706" y="1310" on="1"/>
        <pt x="906" y="1310" on="0"/>
        <pt x="982" y="1162" on="1"/>
        <pt x="1020" y="1089" on="0"/>
        <pt x="1052" y="914" on="0"/>
        <pt x="1052" y="797" on="1"/>
        <pt x="1052" y="0" on="1"/>
        <pt x="536" y="0" on="1"/>
        <pt x="536" y="251" on="1"/>
        <pt x="709" y="251" on="1"/>
        <pt x="709" y="797" on="1"/>
        <pt x="709" y="942" on="0"/>
        <pt x="697" y="978" on="1"/>
        <pt x="680" y="1030" on="0"/>
        <pt x="656" y="1042" on="1"/>
        <pt x="639" y="1050" on="0"/>
        <pt x="590" y="1050" on="0"/>
        <pt x="540" y="1024" on="0"/>
        <pt x="523" y="1006" on="1"/>
        <pt x="488" y="969" on="0"/>
        <pt x="468" y="926" on="1"/>
        <pt x="398" y="0" on="1"/>
        <pt x="55" y="0" on="1"/>
        <pt x="125" y="832" on="1"/>
        <pt x="128" y="871" on="0"/>
        <pt x="128" y="909" on="1"/>
        <pt x="128" y="1079" on="0"/>
        <pt x="50" y="1290" on="1"/>
        <pt x="366" y="1290" on="1"/>
        <pt x="387" y="1245" on="0"/>
        <pt x="403" y="1160" on="1"/>
        <pt x="408" y="1160" on="1"/>
        <pt x="562" y="1310" on="0"/>
      </contour>
      <contour>
        <pt x="539" y="722" on="0"/>
        <pt x="605" y="722" on="0"/>
        <pt x="643" y="686" on="0"/>
        <pt x="643" y="627" on="0"/>
        <pt x="605" y="592" on="0"/>
        <pt x="539" y="592" on="0"/>
        <pt x="502" y="627" on="0"/>
        <pt x="502" y="687" on="0"/>
      </contour>
    </TTGlyph>
    <TTGlyph name="multiply" xMin="83" yMin="364" xMax="801" yMax="1082">
      <contour>
        <pt x="801" y="909" on="1"/>
        <pt x="615" y="723" on="1"/>
        <pt x="801" y="537" on="1"/>
        <pt x="628" y="364" on="1"/>
        <pt x="442" y="550" on="1"/>
        <pt x="256" y="364" on="1"/>
        <pt x="83" y="537" on="1"/>
        <pt x="269" y="723" on="1"/>
        <pt x="83" y="909" on="1"/>
        <pt x="256" y="1082" on="1"/>
        <pt x="442" y="896" on="1"/>
        <pt x="628" y="1082" on="1"/>
      </contour>
    </TTGlyph>
    <TTGlyph name="n" xMin="125" yMin="0" xMax="1002" yMax="1134">
      <contour>
        <pt x="425" y="1035" on="1"/>
        <pt x="515" y="1134" on="0"/>
        <pt x="834" y="1134" on="0"/>
        <pt x="1002" y="925" on="0"/>
        <pt x="1002" y="721" on="1"/>
        <pt x="1002" y="0" on="1"/>
        <pt x="659" y="0" on="1"/>
        <pt x="659" y="660" on="1"/>
        <pt x="659" y="875" on="0"/>
        <pt x="583" y="875" on="1"/>
        <pt x="553" y="875" on="0"/>
        <pt x="510" y="841" on="0"/>
        <pt x="489" y="794" on="0"/>
        <pt x="475" y="715" on="0"/>
        <pt x="472" y="654" on="0"/>
        <pt x="468" y="560" on="0"/>
        <pt x="466" y="536" on="1"/>
        <pt x="466" y="0" on="1"/>
        <pt x="125" y="0" on="1"/>
        <pt x="125" y="1114" on="1"/>
        <pt x="408" y="1114" on="1"/>
      </contour>
    </TTGlyph>
    <TTGlyph name="nine" xMin="65" yMin="-19" xMax="927" yMax="1480">
      <contour>
        <pt x="316" y="243" on="1"/>
        <pt x="497" y="243" on="0"/>
        <pt x="566" y="423" on="1"/>
        <pt x="587" y="478" on="0"/>
        <pt x="598" y="564" on="1"/>
        <pt x="522" y="502" on="0"/>
        <pt x="410" y="502" on="1"/>
        <pt x="246" y="502" on="0"/>
        <pt x="65" y="746" on="0"/>
        <pt x="65" y="971" on="1"/>
        <pt x="65" y="1189" on="0"/>
        <pt x="172" y="1331" on="1"/>
        <pt x="224" y="1401" on="0"/>
        <pt x="391" y="1480" on="0"/>
        <pt x="497" y="1480" on="1"/>
        <pt x="708" y="1480" on="0"/>
        <pt x="927" y="1155" on="0"/>
        <pt x="927" y="837" on="1"/>
        <pt x="927" y="500" on="0"/>
        <pt x="848" y="304" on="1"/>
        <pt x="787" y="150" on="0"/>
        <pt x="668" y="69" on="1"/>
        <pt x="538" y="-19" on="0"/>
        <pt x="338" y="-19" on="1"/>
        <pt x="236" y="-19" on="0"/>
        <pt x="142" y="7" on="1"/>
        <pt x="142" y="270" on="1"/>
        <pt x="251" y="243" on="0"/>
      </contour>
      <contour>
        <pt x="495" y="1215" on="1"/>
        <pt x="409" y="1215" on="0"/>
        <pt x="409" y="973" on="1"/>
        <pt x="409" y="871" on="0"/>
        <pt x="452" y="757" on="0"/>
        <pt x="493" y="757" on="1"/>
        <pt x="579" y="757" on="0"/>
        <pt x="579" y="973" on="1"/>
        <pt x="579" y="1215" on="0"/>
      </contour>
    </TTGlyph>
    <TTGlyph name="ntilde" xMin="66" yMin="0" xMax="943" yMax="1540">
      <contour>
        <pt x="656" y="1239" on="1"/>
        <pt x="600" y="1239" on="0"/>
        <pt x="395" y="1324" on="0"/>
        <pt x="353" y="1324" on="1"/>
        <pt x="307" y="1324" on="0"/>
        <pt x="290" y="1238" on="1"/>
        <pt x="132" y="1238" on="1"/>
        <pt x="141" y="1392" on="0"/>
        <pt x="249" y="1539" on="0"/>
        <pt x="353" y="1539" on="1"/>
        <pt x="398" y="1539" on="0"/>
        <pt x="604" y="1454" on="0"/>
        <pt x="695" y="1454" on="0"/>
        <pt x="712" y="1540" on="1"/>
        <pt x="872" y="1540" on="1"/>
        <pt x="863" y="1393" on="0"/>
        <pt x="752" y="1239" on="0"/>
      </contour>
      <contour>
        <pt x="366" y="1035" on="1"/>
        <pt x="456" y="1134" on="0"/>
        <pt x="775" y="1134" on="0"/>
        <pt x="943" y="925" on="0"/>
        <pt x="943" y="721" on="1"/>
        <pt x="943" y="0" on="1"/>
        <pt x="600" y="0" on="1"/>
        <pt x="600" y="660" on="1"/>
        <pt x="600" y="875" on="0"/>
        <pt x="524" y="875" on="1"/>
        <pt x="494" y="875" on="0"/>
        <pt x="451" y="841" on="0"/>
        <pt x="430" y="794" on="0"/>
        <pt x="416" y="715" on="0"/>
        <pt x="413" y="654" on="0"/>
        <pt x="409" y="560" on="0"/>
        <pt x="407" y="536" on="1"/>
        <pt x="407" y="0" on="1"/>
        <pt x="66" y="0" on="1"/>
        <pt x="66" y="1114" on="1"/>
        <pt x="349" y="1114" on="1"/>
      </contour>
    </TTGlyph>
    <TTGlyph name="numbersign" xMin="27" yMin="0" xMax="1116" yMax="1462">
      <contour>
        <pt x="664" y="1061" on="1"/>
        <pt x="672" y="1113" on="0"/>
        <pt x="724" y="1462" on="1"/>
        <pt x="992" y="1462" on="1"/>
        <pt x="935" y="1061" on="1"/>
        <pt x="1116" y="1061" on="1"/>
        <pt x="1116" y="831" on="1"/>
        <pt x="901" y="831" on="1"/>
        <pt x="871" y="629" on="1"/>
        <pt x="1065" y="629" on="1"/>
        <pt x="1065" y="398" on="1"/>
        <pt x="840" y="398" on="1"/>
        <pt x="782" y="0" on="1"/>
        <pt x="509" y="0" on="1"/>
        <pt x="568" y="398" on="1"/>
        <pt x="479" y="398" on="1"/>
        <pt x="421" y="0" on="1"/>
        <pt x="149" y="0" on="1"/>
        <pt x="207" y="398" on="1"/>
        <pt x="27" y="398" on="1"/>
        <pt x="27" y="629" on="1"/>
        <pt x="241" y="629" on="1"/>
        <pt x="271" y="831" on="1"/>
        <pt x="79" y="831" on="1"/>
        <pt x="79" y="1061" on="1"/>
        <pt x="304" y="1061" on="1"/>
        <pt x="362" y="1462" on="1"/>
        <pt x="630" y="1462" on="1"/>
        <pt x="573" y="1061" on="1"/>
      </contour>
      <contour>
        <pt x="539" y="831" on="1"/>
        <pt x="512" y="629" on="1"/>
        <pt x="601" y="629" on="1"/>
        <pt x="631" y="831" on="1"/>
      </contour>
    </TTGlyph>
    <TTGlyph name="nundageshhb" xMin="33" yMin="0" xMax="672" yMax="1310">
      <contour>
        <pt x="90" y="1287" on="1"/>
        <pt x="212" y="1310" on="0"/>
        <pt x="364" y="1310" on="0"/>
        <pt x="477" y="1290" on="0"/>
        <pt x="557" y="1256" on="0"/>
        <pt x="614" y="1199" on="0"/>
        <pt x="647" y="1139" on="0"/>
        <pt x="656" y="1096" on="1"/>
        <pt x="672" y="1025" on="0"/>
        <pt x="672" y="916" on="1"/>
        <pt x="672" y="376" on="1"/>
        <pt x="672" y="285" on="0"/>
        <pt x="644" y="97" on="0"/>
        <pt x="630" y="48" on="1"/>
        <pt x="616" y="0" on="1"/>
        <pt x="33" y="0" on="1"/>
        <pt x="33" y="251" on="1"/>
        <pt x="314" y="251" on="1"/>
        <pt x="328" y="324" on="0"/>
        <pt x="328" y="453" on="1"/>
        <pt x="328" y="916" on="1"/>
        <pt x="328" y="972" on="0"/>
        <pt x="277" y="1051" on="0"/>
        <pt x="218" y="1051" on="1"/>
        <pt x="178" y="1051" on="0"/>
        <pt x="112" y="1034" on="1"/>
        <pt x="90" y="1029" on="1"/>
      </contour>
      <contour>
        <pt x="140" y="722" on="0"/>
        <pt x="206" y="722" on="0"/>
        <pt x="244" y="686" on="0"/>
        <pt x="244" y="627" on="0"/>
        <pt x="206" y="592" on="0"/>
        <pt x="140" y="592" on="0"/>
        <pt x="103" y="627" on="0"/>
        <pt x="103" y="687" on="0"/>
      </contour>
    </TTGlyph>
    <TTGlyph name="o" xMin="77" yMin="-19" xMax="993" yMax="1134">
      <contour>
        <pt x="286" y="1073" on="0"/>
        <pt x="441" y="1134" on="0"/>
        <pt x="632" y="1134" on="0"/>
        <pt x="788" y="1067" on="0"/>
        <pt x="891" y="956" on="0"/>
        <pt x="926" y="880" on="1"/>
        <pt x="993" y="739" on="0"/>
        <pt x="993" y="559" on="1"/>
        <pt x="993" y="294" on="0"/>
        <pt x="754" y="-19" on="0"/>
        <pt x="533" y="-19" on="1"/>
        <pt x="328" y="-19" on="0"/>
        <pt x="77" y="293" on="0"/>
        <pt x="77" y="547" on="1"/>
        <pt x="77" y="749" on="0"/>
        <pt x="146" y="894" on="1"/>
        <pt x="182" y="967" on="0"/>
      </contour>
      <contour>
        <pt x="535" y="873" on="1"/>
        <pt x="477" y="873" on="0"/>
        <pt x="424" y="719" on="0"/>
        <pt x="424" y="559" on="1"/>
        <pt x="424" y="241" on="0"/>
        <pt x="647" y="241" on="0"/>
        <pt x="647" y="873" on="0"/>
      </contour>
    </TTGlyph>
    <TTGlyph name="oacute" xMin="28" yMin="-19" xMax="944" yMax="1566">
      <contour>
        <pt x="877" y="1566" on="1"/>
        <pt x="877" y="1548" on="1"/>
        <pt x="801" y="1488" on="0"/>
        <pt x="558" y="1315" on="0"/>
        <pt x="497" y="1278" on="1"/>
        <pt x="269" y="1278" on="1"/>
        <pt x="269" y="1303" on="1"/>
        <pt x="410" y="1455" on="0"/>
        <pt x="477" y="1532" on="0"/>
        <pt x="501" y="1566" on="1"/>
      </contour>
      <contour>
        <pt x="237" y="1073" on="0"/>
        <pt x="392" y="1134" on="0"/>
        <pt x="583" y="1134" on="0"/>
        <pt x="739" y="1067" on="0"/>
        <pt x="842" y="956" on="0"/>
        <pt x="878" y="880" on="1"/>
        <pt x="944" y="739" on="0"/>
        <pt x="944" y="559" on="1"/>
        <pt x="944" y="294" on="0"/>
        <pt x="705" y="-19" on="0"/>
        <pt x="484" y="-19" on="1"/>
        <pt x="279" y="-19" on="0"/>
        <pt x="28" y="293" on="0"/>
        <pt x="28" y="547" on="1"/>
        <pt x="28" y="749" on="0"/>
        <pt x="98" y="894" on="1"/>
        <pt x="133" y="967" on="0"/>
      </contour>
      <contour>
        <pt x="486" y="873" on="1"/>
        <pt x="428" y="873" on="0"/>
        <pt x="375" y="719" on="0"/>
        <pt x="375" y="559" on="1"/>
        <pt x="375" y="241" on="0"/>
        <pt x="598" y="241" on="0"/>
        <pt x="598" y="873" on="0"/>
      </contour>
    </TTGlyph>
    <TTGlyph name="ocircumflex" xMin="28" yMin="-19" xMax="944" yMax="1567">
      <contour>
        <pt x="887" y="1279" on="1"/>
        <pt x="663" y="1279" on="1"/>
        <pt x="590" y="1321" on="0"/>
        <pt x="486" y="1411" on="1"/>
        <pt x="376" y="1316" on="0"/>
        <pt x="315" y="1279" on="1"/>
        <pt x="88" y="1279" on="1"/>
        <pt x="88" y="1304" on="1"/>
        <pt x="145" y="1357" on="0"/>
        <pt x="281" y="1514" on="0"/>
        <pt x="315" y="1567" on="1"/>
        <pt x="661" y="1567" on="1"/>
        <pt x="742" y="1449" on="0"/>
        <pt x="887" y="1304" on="1"/>
      </contour>
      <contour>
        <pt x="237" y="1073" on="0"/>
        <pt x="392" y="1134" on="0"/>
        <pt x="583" y="1134" on="0"/>
        <pt x="739" y="1067" on="0"/>
        <pt x="842" y="956" on="0"/>
        <pt x="878" y="880" on="1"/>
        <pt x="944" y="739" on="0"/>
        <pt x="944" y="559" on="1"/>
        <pt x="944" y="294" on="0"/>
        <pt x="705" y="-19" on="0"/>
        <pt x="484" y="-19" on="1"/>
        <pt x="279" y="-19" on="0"/>
        <pt x="28" y="293" on="0"/>
        <pt x="28" y="547" on="1"/>
        <pt x="28" y="749" on="0"/>
        <pt x="98" y="894" on="1"/>
        <pt x="133" y="967" on="0"/>
      </contour>
      <contour>
        <pt x="486" y="873" on="1"/>
        <pt x="428" y="873" on="0"/>
        <pt x="375" y="719" on="0"/>
        <pt x="375" y="559" on="1"/>
        <pt x="375" y="241" on="0"/>
        <pt x="598" y="241" on="0"/>
        <pt x="598" y="873" on="0"/>
      </contour>
    </TTGlyph>
    <TTGlyph name="odieresis" xMin="28" yMin="-19" xMax="944" yMax="1554">
      <contour>
        <pt x="139" y="1480" on="0"/>
        <pt x="219" y="1554" on="0"/>
        <pt x="361" y="1554" on="0"/>
        <pt x="443" y="1477" on="0"/>
        <pt x="443" y="1350" on="0"/>
        <pt x="361" y="1275" on="0"/>
        <pt x="219" y="1275" on="0"/>
        <pt x="139" y="1348" on="0"/>
      </contour>
      <contour>
        <pt x="562" y="1480" on="0"/>
        <pt x="642" y="1554" on="0"/>
        <pt x="784" y="1554" on="0"/>
        <pt x="866" y="1477" on="0"/>
        <pt x="866" y="1350" on="0"/>
        <pt x="784" y="1275" on="0"/>
        <pt x="642" y="1275" on="0"/>
        <pt x="562" y="1348" on="0"/>
      </contour>
      <contour>
        <pt x="237" y="1073" on="0"/>
        <pt x="392" y="1134" on="0"/>
        <pt x="583" y="1134" on="0"/>
        <pt x="739" y="1067" on="0"/>
        <pt x="842" y="956" on="0"/>
        <pt x="878" y="880" on="1"/>
        <pt x="944" y="739" on="0"/>
        <pt x="944" y="559" on="1"/>
        <pt x="944" y="294" on="0"/>
        <pt x="705" y="-19" on="0"/>
        <pt x="484" y="-19" on="1"/>
        <pt x="279" y="-19" on="0"/>
        <pt x="28" y="293" on="0"/>
        <pt x="28" y="547" on="1"/>
        <pt x="28" y="749" on="0"/>
        <pt x="98" y="894" on="1"/>
        <pt x="133" y="967" on="0"/>
      </contour>
      <contour>
        <pt x="486" y="873" on="1"/>
        <pt x="428" y="873" on="0"/>
        <pt x="375" y="719" on="0"/>
        <pt x="375" y="559" on="1"/>
        <pt x="375" y="241" on="0"/>
        <pt x="598" y="241" on="0"/>
        <pt x="598" y="873" on="0"/>
      </contour>
    </TTGlyph>
    <TTGlyph name="oe" xMin="33" yMin="-19" xMax="1459" yMax="1134">
      <contour>
        <pt x="1416" y="70" on="1"/>
        <pt x="1262" y="-19" on="0"/>
        <pt x="889" y="-19" on="0"/>
        <pt x="777" y="89" on="1"/>
        <pt x="668" y="-19" on="0"/>
        <pt x="490" y="-19" on="1"/>
        <pt x="485" y="-19" on="0"/>
        <pt x="480" y="-19" on="1"/>
        <pt x="283" y="-19" on="0"/>
        <pt x="33" y="294" on="0"/>
        <pt x="33" y="551" on="1"/>
        <pt x="33" y="555" on="0"/>
        <pt x="33" y="559" on="1"/>
        <pt x="33" y="822" on="0"/>
        <pt x="153" y="978" on="1"/>
        <pt x="270" y="1134" on="0"/>
        <pt x="493" y="1134" on="1"/>
        <pt x="656" y="1134" on="0"/>
        <pt x="770" y="1029" on="1"/>
        <pt x="875" y="1134" on="0"/>
        <pt x="1043" y="1134" on="1"/>
        <pt x="1243" y="1134" on="0"/>
        <pt x="1351" y="997" on="1"/>
        <pt x="1459" y="856" on="0"/>
        <pt x="1459" y="628" on="1"/>
        <pt x="1459" y="470" on="1"/>
        <pt x="948" y="470" on="1"/>
        <pt x="954" y="350" on="0"/>
        <pt x="1041" y="230" on="0"/>
        <pt x="1116" y="230" on="1"/>
        <pt x="1229" y="230" on="0"/>
        <pt x="1416" y="343" on="1"/>
      </contour>
      <contour>
        <pt x="1041" y="895" on="1"/>
        <pt x="963" y="895" on="0"/>
        <pt x="952" y="699" on="1"/>
        <pt x="1125" y="699" on="1"/>
        <pt x="1117" y="895" on="0"/>
      </contour>
      <contour>
        <pt x="491" y="873" on="1"/>
        <pt x="433" y="873" on="0"/>
        <pt x="380" y="719" on="0"/>
        <pt x="380" y="559" on="1"/>
        <pt x="380" y="241" on="0"/>
        <pt x="603" y="241" on="0"/>
        <pt x="603" y="873" on="0"/>
      </contour>
    </TTGlyph>
    <TTGlyph name="ogonek" xMin="-19" yMin="-431" xMax="399" yMax="1">
      <contour>
        <pt x="399" y="-219" on="1"/>
        <pt x="399" y="-431" on="0"/>
        <pt x="145" y="-431" on="1"/>
        <pt x="110" y="-431" on="0"/>
        <pt x="28" y="-413" on="0"/>
        <pt x="4" y="-404" on="1"/>
        <pt x="-19" y="-395" on="1"/>
        <pt x="-19" y="-226" on="1"/>
        <pt x="55" y="-255" on="0"/>
        <pt x="170" y="-255" on="0"/>
        <pt x="170" y="-207" on="1"/>
        <pt x="170" y="-180" on="0"/>
        <pt x="105" y="-134" on="0"/>
        <pt x="72" y="-124" on="1"/>
        <pt x="40" y="-114" on="1"/>
        <pt x="98" y="1" on="0"/>
        <pt x="99" y="1" on="1"/>
        <pt x="247" y="1" on="1"/>
        <pt x="239" y="-24" on="1"/>
        <pt x="265" y="-27" on="0"/>
        <pt x="329" y="-68" on="0"/>
        <pt x="370" y="-109" on="0"/>
        <pt x="399" y="-178" on="0"/>
      </contour>
    </TTGlyph>
    <TTGlyph name="ograve" xMin="28" yMin="-19" xMax="944" yMax="1567">
      <contour>
        <pt x="103" y="1567" on="1"/>
        <pt x="481" y="1567" on="1"/>
        <pt x="530" y="1502" on="0"/>
        <pt x="660" y="1362" on="1"/>
        <pt x="711" y="1304" on="1"/>
        <pt x="711" y="1279" on="1"/>
        <pt x="483" y="1279" on="1"/>
        <pt x="433" y="1309" on="0"/>
        <pt x="202" y="1472" on="0"/>
        <pt x="103" y="1549" on="1"/>
      </contour>
      <contour>
        <pt x="237" y="1073" on="0"/>
        <pt x="392" y="1134" on="0"/>
        <pt x="583" y="1134" on="0"/>
        <pt x="739" y="1067" on="0"/>
        <pt x="842" y="956" on="0"/>
        <pt x="878" y="880" on="1"/>
        <pt x="944" y="739" on="0"/>
        <pt x="944" y="559" on="1"/>
        <pt x="944" y="294" on="0"/>
        <pt x="705" y="-19" on="0"/>
        <pt x="484" y="-19" on="1"/>
        <pt x="279" y="-19" on="0"/>
        <pt x="28" y="293" on="0"/>
        <pt x="28" y="547" on="1"/>
        <pt x="28" y="749" on="0"/>
        <pt x="98" y="894" on="1"/>
        <pt x="133" y="967" on="0"/>
      </contour>
      <contour>
        <pt x="486" y="873" on="1"/>
        <pt x="428" y="873" on="0"/>
        <pt x="375" y="719" on="0"/>
        <pt x="375" y="559" on="1"/>
        <pt x="375" y="241" on="0"/>
        <pt x="598" y="241" on="0"/>
        <pt x="598" y="873" on="0"/>
      </contour>
    </TTGlyph>
    <TTGlyph name="one" xMin="46" yMin="0" xMax="746" yMax="1462">
      <contour>
        <pt x="746" y="0" on="1"/>
        <pt x="401" y="0" on="1"/>
        <pt x="401" y="854" on="1"/>
        <pt x="412" y="1064" on="1"/>
        <pt x="299" y="947" on="0"/>
        <pt x="237" y="882" on="1"/>
        <pt x="46" y="1091" on="1"/>
        <pt x="445" y="1462" on="1"/>
        <pt x="746" y="1462" on="1"/>
      </contour>
    </TTGlyph>
    <TTGlyph name="onehalf" xMin="32" yMin="-16" xMax="1505" yMax="1462">
      <contour>
        <pt x="490" y="569" on="1"/>
        <pt x="241" y="569" on="1"/>
        <pt x="241" y="1038" on="1"/>
        <pt x="247" y="1158" on="1"/>
        <pt x="146" y="1059" on="1"/>
        <pt x="32" y="1222" on="1"/>
        <pt x="291" y="1462" on="1"/>
        <pt x="490" y="1462" on="1"/>
      </contour>
      <contour>
        <pt x="507" y="0" on="1"/>
        <pt x="225" y="0" on="1"/>
        <pt x="967" y="1462" on="1"/>
        <pt x="1250" y="1462" on="1"/>
      </contour>
      <contour>
        <pt x="1218" y="897" on="1"/>
        <pt x="1342" y="897" on="0"/>
        <pt x="1483" y="756" on="0"/>
        <pt x="1483" y="633" on="1"/>
        <pt x="1483" y="524" on="0"/>
        <pt x="1406" y="420" on="1"/>
        <pt x="1377" y="380" on="0"/>
        <pt x="1348" y="346" on="0"/>
        <pt x="1306" y="300" on="0"/>
        <pt x="1303" y="296" on="0"/>
        <pt x="1297" y="290" on="0"/>
        <pt x="1295" y="287" on="1"/>
        <pt x="1224" y="207" on="1"/>
        <pt x="1505" y="207" on="1"/>
        <pt x="1505" y="-16" on="1"/>
        <pt x="931" y="-16" on="1"/>
        <pt x="931" y="161" on="1"/>
        <pt x="1113" y="388" on="1"/>
        <pt x="1257" y="563" on="0"/>
        <pt x="1257" y="632" on="1"/>
        <pt x="1257" y="659" on="0"/>
        <pt x="1220" y="682" on="0"/>
        <pt x="1198" y="682" on="1"/>
        <pt x="1140" y="682" on="0"/>
        <pt x="1040" y="581" on="1"/>
        <pt x="925" y="754" on="1"/>
        <pt x="1055" y="897" on="0"/>
      </contour>
    </TTGlyph>
    <TTGlyph name="onequarter" xMin="16" yMin="0" xMax="1446" yMax="1462">
      <contour>
        <pt x="474" y="569" on="1"/>
        <pt x="225" y="569" on="1"/>
        <pt x="225" y="1038" on="1"/>
        <pt x="231" y="1158" on="1"/>
        <pt x="130" y="1059" on="1"/>
        <pt x="16" y="1222" on="1"/>
        <pt x="275" y="1462" on="1"/>
        <pt x="474" y="1462" on="1"/>
      </contour>
      <contour>
        <pt x="498" y="0" on="1"/>
        <pt x="216" y="0" on="1"/>
        <pt x="957" y="1462" on="1"/>
        <pt x="1241" y="1462" on="1"/>
      </contour>
      <contour>
        <pt x="1349" y="353" on="1"/>
        <pt x="1446" y="353" on="1"/>
        <pt x="1446" y="155" on="1"/>
        <pt x="1349" y="155" on="1"/>
        <pt x="1349" y="1" on="1"/>
        <pt x="1100" y="1" on="1"/>
        <pt x="1100" y="155" on="1"/>
        <pt x="799" y="155" on="1"/>
        <pt x="799" y="319" on="1"/>
        <pt x="1114" y="900" on="1"/>
        <pt x="1349" y="900" on="1"/>
      </contour>
      <contour>
        <pt x="1100" y="353" on="1"/>
        <pt x="1100" y="520" on="1"/>
        <pt x="1007" y="353" on="1"/>
      </contour>
    </TTGlyph>
    <TTGlyph name="onesuperior" xMin="39" yMin="569" xMax="497" yMax="1462">
      <contour>
        <pt x="497" y="569" on="1"/>
        <pt x="248" y="569" on="1"/>
        <pt x="248" y="1038" on="1"/>
        <pt x="254" y="1158" on="1"/>
        <pt x="153" y="1059" on="1"/>
        <pt x="39" y="1222" on="1"/>
        <pt x="298" y="1462" on="1"/>
        <pt x="497" y="1462" on="1"/>
      </contour>
    </TTGlyph>
    <TTGlyph name="ordfeminine" xMin="9" yMin="729" xMax="602" yMax="1465">
      <contour>
        <pt x="44" y="1374" on="1"/>
        <pt x="191" y="1465" on="0"/>
        <pt x="466" y="1465" on="0"/>
        <pt x="602" y="1324" on="0"/>
        <pt x="602" y="1192" on="1"/>
        <pt x="602" y="741" on="1"/>
        <pt x="410" y="741" on="1"/>
        <pt x="399" y="783" on="1"/>
        <pt x="331" y="729" on="0"/>
        <pt x="130" y="729" on="0"/>
        <pt x="9" y="844" on="0"/>
        <pt x="9" y="1075" on="0"/>
        <pt x="156" y="1187" on="0"/>
        <pt x="317" y="1197" on="1"/>
        <pt x="356" y="1199" on="1"/>
        <pt x="351" y="1281" on="0"/>
        <pt x="299" y="1281" on="1"/>
        <pt x="251" y="1281" on="0"/>
        <pt x="119" y="1202" on="1"/>
      </contour>
      <contour>
        <pt x="295" y="1040" on="0"/>
        <pt x="259" y="1002" on="0"/>
        <pt x="259" y="909" on="0"/>
        <pt x="278" y="909" on="1"/>
        <pt x="314" y="909" on="0"/>
        <pt x="356" y="975" on="0"/>
        <pt x="356" y="1034" on="1"/>
        <pt x="356" y="1046" on="1"/>
        <pt x="333" y="1044" on="1"/>
      </contour>
    </TTGlyph>
    <TTGlyph name="ordmasculine" xMin="13" yMin="729" xMax="640" yMax="1465">
      <contour>
        <pt x="556" y="1364" on="1"/>
        <pt x="640" y="1259" on="0"/>
        <pt x="640" y="933" on="0"/>
        <pt x="478" y="729" on="0"/>
        <pt x="175" y="729" on="0"/>
        <pt x="94" y="831" on="1"/>
        <pt x="13" y="938" on="0"/>
        <pt x="13" y="1263" on="0"/>
        <pt x="173" y="1465" on="0"/>
        <pt x="480" y="1465" on="0"/>
        <pt x="557" y="1364" on="1"/>
      </contour>
      <contour>
        <pt x="390" y="1275" on="0"/>
        <pt x="263" y="1275" on="0"/>
        <pt x="263" y="919" on="0"/>
        <pt x="390" y="919" on="0"/>
      </contour>
    </TTGlyph>
    <TTGlyph name="oslash" xMin="28" yMin="-96" xMax="944" yMax="1191">
      <contour>
        <pt x="944" y="559" on="1"/>
        <pt x="944" y="294" on="0"/>
        <pt x="705" y="-19" on="0"/>
        <pt x="484" y="-19" on="1"/>
        <pt x="399" y="-19" on="0"/>
        <pt x="322" y="11" on="1"/>
        <pt x="267" y="-96" on="1"/>
        <pt x="93" y="-16" on="1"/>
        <pt x="164" y="124" on="1"/>
        <pt x="28" y="281" on="0"/>
        <pt x="28" y="547" on="1"/>
        <pt x="28" y="749" on="0"/>
        <pt x="98" y="894" on="1"/>
        <pt x="133" y="967" on="0"/>
        <pt x="237" y="1073" on="0"/>
        <pt x="392" y="1134" on="0"/>
        <pt x="581" y="1134" on="0"/>
        <pt x="662" y="1100" on="1"/>
        <pt x="709" y="1191" on="1"/>
        <pt x="883" y="1111" on="1"/>
        <pt x="816" y="981" on="1"/>
        <pt x="880" y="900" on="0"/>
        <pt x="944" y="678" on="0"/>
      </contour>
      <contour>
        <pt x="486" y="873" on="1"/>
        <pt x="428" y="873" on="0"/>
        <pt x="375" y="719" on="0"/>
        <pt x="375" y="559" on="1"/>
        <pt x="375" y="536" on="1"/>
        <pt x="536" y="853" on="1"/>
        <pt x="514" y="873" on="0"/>
      </contour>
      <contour>
        <pt x="486" y="241" on="1"/>
        <pt x="596" y="241" on="0"/>
        <pt x="598" y="552" on="1"/>
        <pt x="445" y="253" on="1"/>
        <pt x="463" y="241" on="0"/>
      </contour>
    </TTGlyph>
    <TTGlyph name="otilde" xMin="28" yMin="-19" xMax="944" yMax="1540">
      <contour>
        <pt x="642" y="1239" on="1"/>
        <pt x="586" y="1239" on="0"/>
        <pt x="381" y="1324" on="0"/>
        <pt x="339" y="1324" on="1"/>
        <pt x="293" y="1324" on="0"/>
        <pt x="276" y="1238" on="1"/>
        <pt x="118" y="1238" on="1"/>
        <pt x="127" y="1392" on="0"/>
        <pt x="235" y="1539" on="0"/>
        <pt x="339" y="1539" on="1"/>
        <pt x="384" y="1539" on="0"/>
        <pt x="590" y="1454" on="0"/>
        <pt x="681" y="1454" on="0"/>
        <pt x="698" y="1540" on="1"/>
        <pt x="858" y="1540" on="1"/>
        <pt x="849" y="1393" on="0"/>
        <pt x="738" y="1239" on="0"/>
      </contour>
      <contour>
        <pt x="237" y="1073" on="0"/>
        <pt x="392" y="1134" on="0"/>
        <pt x="583" y="1134" on="0"/>
        <pt x="739" y="1067" on="0"/>
        <pt x="842" y="956" on="0"/>
        <pt x="878" y="880" on="1"/>
        <pt x="944" y="739" on="0"/>
        <pt x="944" y="559" on="1"/>
        <pt x="944" y="294" on="0"/>
        <pt x="705" y="-19" on="0"/>
        <pt x="484" y="-19" on="1"/>
        <pt x="279" y="-19" on="0"/>
        <pt x="28" y="293" on="0"/>
        <pt x="28" y="547" on="1"/>
        <pt x="28" y="749" on="0"/>
        <pt x="98" y="894" on="1"/>
        <pt x="133" y="967" on="0"/>
      </contour>
      <contour>
        <pt x="486" y="873" on="1"/>
        <pt x="428" y="873" on="0"/>
        <pt x="375" y="719" on="0"/>
        <pt x="375" y="559" on="1"/>
        <pt x="375" y="241" on="0"/>
        <pt x="598" y="241" on="0"/>
        <pt x="598" y="873" on="0"/>
      </contour>
    </TTGlyph>
    <TTGlyph name="overscore" xMin="-16" yMin="1556" xMax="1020" yMax="1745">
      <contour>
        <pt x="1020" y="1556" on="1"/>
        <pt x="-16" y="1556" on="1"/>
        <pt x="-16" y="1745" on="1"/>
        <pt x="1020" y="1745" on="1"/>
      </contour>
    </TTGlyph>
    <TTGlyph name="p" xMin="125" yMin="-473" xMax="1008" yMax="1134">
      <contour>
        <pt x="654" y="1134" on="1"/>
        <pt x="725" y="1134" on="0"/>
        <pt x="840" y="1080" on="0"/>
        <pt x="915" y="986" on="0"/>
        <pt x="968" y="872" on="0"/>
        <pt x="982" y="804" on="1"/>
        <pt x="1008" y="679" on="0"/>
        <pt x="1008" y="480" on="0"/>
        <pt x="989" y="330" on="0"/>
        <pt x="938" y="172" on="0"/>
        <pt x="860" y="55" on="0"/>
        <pt x="729" y="-19" on="0"/>
        <pt x="646" y="-19" on="1"/>
        <pt x="535" y="-19" on="0"/>
        <pt x="464" y="38" on="1"/>
        <pt x="468" y="5" on="0"/>
        <pt x="468" y="-14" on="1"/>
        <pt x="468" y="-473" on="1"/>
        <pt x="125" y="-473" on="1"/>
        <pt x="125" y="1114" on="1"/>
        <pt x="401" y="1114" on="1"/>
        <pt x="427" y="1031" on="1"/>
        <pt x="511" y="1134" on="0"/>
      </contour>
      <contour>
        <pt x="567" y="875" on="1"/>
        <pt x="515" y="875" on="0"/>
        <pt x="466" y="743" on="0"/>
        <pt x="466" y="404" on="0"/>
        <pt x="513" y="243" on="0"/>
        <pt x="569" y="243" on="1"/>
        <pt x="661" y="243" on="0"/>
        <pt x="661" y="875" on="0"/>
      </contour>
    </TTGlyph>
    <TTGlyph name="paragraph" xMin="16" yMin="-252" xMax="960" yMax="1553">
      <contour>
        <pt x="960" y="-252" on="1"/>
        <pt x="726" y="-252" on="1"/>
        <pt x="726" y="1324" on="1"/>
        <pt x="655" y="1324" on="1"/>
        <pt x="655" y="-252" on="1"/>
        <pt x="420" y="-252" on="1"/>
        <pt x="420" y="529" on="1"/>
        <pt x="395" y="525" on="0"/>
        <pt x="359" y="525" on="1"/>
        <pt x="184" y="525" on="0"/>
        <pt x="16" y="776" on="0"/>
        <pt x="16" y="1296" on="0"/>
        <pt x="194" y="1553" on="0"/>
        <pt x="385" y="1553" on="1"/>
        <pt x="960" y="1553" on="1"/>
      </contour>
    </TTGlyph>
    <TTGlyph name="parenleft" xMin="64" yMin="-315" xMax="687" yMax="1462">
      <contour>
        <pt x="394" y="568" on="1"/>
        <pt x="394" y="82" on="0"/>
        <pt x="685" y="-315" on="1"/>
        <pt x="374" y="-315" on="1"/>
        <pt x="223" y="-141" on="0"/>
        <pt x="64" y="311" on="0"/>
        <pt x="64" y="824" on="0"/>
        <pt x="223" y="1283" on="0"/>
        <pt x="373" y="1462" on="1"/>
        <pt x="687" y="1462" on="1"/>
        <pt x="543" y="1265" on="0"/>
        <pt x="394" y="805" on="0"/>
      </contour>
    </TTGlyph>
    <TTGlyph name="parenright" xMin="45" yMin="-315" xMax="669" yMax="1462">
      <contour>
        <pt x="515" y="1272" on="0"/>
        <pt x="669" y="813" on="0"/>
        <pt x="669" y="310" on="0"/>
        <pt x="510" y="-142" on="0"/>
        <pt x="359" y="-315" on="1"/>
        <pt x="47" y="-315" on="1"/>
        <pt x="339" y="92" on="0"/>
        <pt x="339" y="568" on="1"/>
        <pt x="339" y="806" on="0"/>
        <pt x="189" y="1265" on="0"/>
        <pt x="45" y="1462" on="1"/>
        <pt x="360" y="1462" on="1"/>
      </contour>
    </TTGlyph>
</ttFont>
